<svg width="106" height="88" viewBox="0 0 106 88" fill="none" xmlns="http://www.w3.org/2000/svg">
<g id="logo" clip-path="url(#clip0_0_2106)">
<g id="Group">
<path id="Vector" d="M22.0019 70.4174H0L3.63052 62.7977L0 54.2671H22.0019V70.4174Z" fill="#67B33D"/>
<path id="Vector_2" d="M83.9981 70.4174H106L102.369 62.7977L106 54.2671H83.9981V70.4174Z" fill="#67B33D"/>
</g>
<g id="Group_2">
<path id="Vector_3" d="M95.9811 44.004L93.4802 47.9933L95.1644 52.3896L91.9333 55.8166L92.7195 60.4571L88.8803 63.1819L88.7404 67.8861L84.4433 69.8069L83.3926 74.3966L78.8029 75.4473L76.8821 79.747L72.1754 79.8844L69.4531 83.7235L64.81 82.9374L61.3856 86.1684L56.9892 84.4842L53 86.9851L49.0108 84.4842L44.6144 86.1684L41.1875 82.9374L36.5469 83.7235L33.8221 79.8844L29.1179 79.7444L27.1971 75.4473L22.6074 74.3966L21.5567 69.8069L17.2571 67.8861L17.1197 63.1794L13.2805 60.4571L14.0667 55.814L10.8356 52.3896L12.5198 47.9933L10.0189 44.004L12.5198 40.0148L10.8356 35.6159L14.0667 32.1915L13.2805 27.5509L17.1197 24.8261L17.2596 20.122L21.5567 18.2011L22.6074 13.6115L27.1971 12.5607L29.1179 8.26109L33.8246 8.12371L36.5469 4.28457L41.19 5.07071L44.6144 1.83963L49.0108 3.52386L53 1.02295L56.9892 3.52386L61.3881 1.83963L64.8125 5.07071L69.4531 4.28457L72.1779 8.12371L76.8821 8.26364L78.8029 12.5607L83.3926 13.6115L84.4433 18.2011L88.7429 20.122L88.8803 24.8287L92.7195 27.5509L91.9333 32.194L95.1644 35.6185L93.4802 40.0148L95.9811 44.004Z" fill="white"/>
<path id="Vector_4" d="M53 88.0077L48.9166 85.4482L44.4135 87.1707L40.9076 83.8632L36.1551 84.6697L33.3667 80.7365L28.548 80.5965L26.5814 76.1951L21.8849 75.119L20.8087 70.4199L16.4098 68.4532L16.2699 63.6346L12.3366 60.8462L13.1431 56.0937L9.83573 52.5878L11.5581 48.0847L8.9987 44.0013L11.5581 39.9179L9.83573 35.4147L13.1431 31.9089L12.3366 27.1564L16.2699 24.368L16.4124 19.5493L20.8113 17.5827L21.8874 12.8836L26.5865 11.8075L28.5531 7.4086L33.3718 7.26867L36.1602 3.3354L40.9127 4.1419L44.4185 0.834485L48.9217 2.55688L53 0L57.0834 2.55943L61.5866 0.83703L65.0924 4.14444L69.8449 3.33794L72.6333 7.27122L77.452 7.41115L79.4186 11.8125L84.1177 12.8887L85.1938 17.5878L89.5927 19.5544L89.7326 24.3731L93.6659 27.1615L92.8594 31.914L96.1668 35.4198L94.4444 39.923L97.0038 44.0064L94.4444 48.0898L96.1668 52.5929L92.8594 56.0988L93.6659 60.8513L89.7326 63.6397L89.5927 68.4583L85.1913 70.425L84.1151 75.124L79.416 76.2002L77.4494 80.5991L72.6308 80.739L69.8424 84.6723L65.0899 83.8658L61.584 87.1732L57.0808 85.4508L52.9975 88.0102L53 88.0077ZM49.1049 83.5223L53 85.9647L56.8951 83.5223L61.1871 85.1659L64.5301 82.0111L69.0613 82.7794L71.72 79.0293L76.3147 78.8945L78.1898 74.6966L82.67 73.6713L83.6953 69.191L87.8932 67.316L88.028 62.7212L91.7781 60.0626L91.0098 55.5314L94.162 52.1884L92.5185 47.8964L94.9609 44.0013L92.5185 40.1062L94.162 35.8142L91.0072 32.4711L91.7756 27.94L88.0255 25.2813L87.8906 20.6866L83.6928 18.8115L82.6675 14.3313L78.1872 13.306L76.3122 9.1081L71.7174 8.97326L69.0588 5.22317L64.5276 5.9915L61.1846 2.83929L56.8926 4.48282L52.9975 2.04042L49.1023 4.48282L44.8103 2.83929L41.4673 5.99405L36.9362 5.22571L34.2775 8.97581L29.6827 9.11065L27.8077 13.3085L23.3274 14.3338L22.3021 18.8141L18.1043 20.6891L17.9694 25.2839L14.2193 27.9425L14.9877 32.4737L11.8329 35.8167L13.4764 40.1087L11.034 44.0038L13.4764 47.899L11.8329 52.191L14.9877 55.534L14.2193 60.0651L17.9694 62.7238L18.1043 67.3186L22.2996 69.1936L23.3249 73.6739L27.8052 74.6992L29.6802 78.897L34.275 79.0319L36.9336 82.782L41.4648 82.0136L44.8078 85.1659L49.0998 83.5223H49.1049Z" fill="#284122"/>
</g>
<path id="Vector_5" d="M80.1277 71.1318C95.1106 56.1489 95.1106 31.8569 80.1277 16.8741C65.1449 1.89125 40.8529 1.89125 25.8701 16.8741C10.8872 31.8569 10.8872 56.1489 25.8701 71.1318C40.8529 86.1146 65.1449 86.1146 80.1277 71.1318Z" fill="#284122"/>
<path id="Vector_6" d="M53 78.4771C72.0391 78.4771 87.4734 63.0428 87.4734 44.0037C87.4734 24.9645 72.0391 9.53027 53 9.53027C33.9609 9.53027 18.5266 24.9645 18.5266 44.0037C18.5266 63.0428 33.9609 78.4771 53 78.4771Z" fill="white"/>
<path id="Vector_7" d="M73.0604 47.2917C74.879 36.2104 67.3701 25.7529 56.2888 23.9343C45.2074 22.1157 34.75 29.6246 32.9314 40.706C31.1127 51.7873 38.6217 62.2448 49.703 64.0634C60.7843 65.882 71.2418 58.3731 73.0604 47.2917Z" fill="#94D03A"/>
<path id="Vector_8" d="M53.0433 23.6709V64.3368C64.2528 64.3139 73.3329 55.2211 73.3329 44.0038C73.3329 32.7866 64.2528 23.6963 53.0433 23.6709Z" fill="#67B33D"/>
<path id="Vector_9" d="M53 65.2016C41.3096 65.2016 31.802 55.6915 31.802 44.0036C31.802 32.3157 41.3121 22.8057 53 22.8057C64.6879 22.8057 74.198 32.3157 74.198 44.0036C74.198 55.6915 64.6879 65.2016 53 65.2016ZM53 24.5357C42.2662 24.5357 33.5321 33.2698 33.5321 44.0036C33.5321 54.7375 42.2662 63.4716 53 63.4716C63.7338 63.4716 72.4679 54.7375 72.4679 44.0036C72.4679 33.2698 63.7338 24.5357 53 24.5357Z" fill="#284122"/>
<g id="Group_3">
<path id="Vector_10" d="M25.4442 34.7506C26.0064 34.9516 26.4517 35.2315 26.7773 35.5851C27.103 35.9387 27.3065 36.3356 27.3905 36.7732C27.4744 37.2108 27.4337 37.6586 27.2683 38.1165C27.103 38.5745 26.8511 38.9459 26.5076 39.2309C26.1642 39.5158 25.7546 39.6914 25.2788 39.7575C24.803 39.8237 24.284 39.7575 23.7218 39.5565C23.1595 39.3556 22.7143 39.0782 22.3886 38.7221C22.063 38.3684 21.8594 37.9741 21.7755 37.5339C21.6915 37.0963 21.7322 36.6486 21.8976 36.1906C22.063 35.7327 22.3149 35.3612 22.6558 35.0763C22.9992 34.7913 23.4063 34.6158 23.8821 34.5496C24.3578 34.4835 24.8768 34.5496 25.4391 34.7532L25.4442 34.7506ZM25.1033 35.7021C24.7064 35.5597 24.3502 35.5011 24.0322 35.5266C23.7141 35.552 23.447 35.6487 23.2282 35.8166C23.0094 35.9845 22.8491 36.211 22.7474 36.4934C22.6456 36.7783 22.6252 37.0531 22.6888 37.3202C22.7499 37.5874 22.8975 37.8341 23.1264 38.0529C23.3554 38.2743 23.6683 38.4549 24.0652 38.5974C24.4621 38.7399 24.8183 38.7984 25.1363 38.7729C25.4543 38.7475 25.7215 38.6508 25.9403 38.4829C26.1591 38.315 26.3194 38.0911 26.4211 37.8062C26.5229 37.5212 26.5433 37.2464 26.4796 36.9793C26.416 36.7122 26.271 36.4654 26.0421 36.2466C25.8131 36.0252 25.5001 35.8446 25.1033 35.7021Z" fill="#284122"/>
<path id="Vector_11" d="M29.1027 33.7765L24.4825 30.6981L25.6375 28.9655C25.8741 28.6093 26.1336 28.3524 26.4186 28.1946C26.7035 28.0369 26.9961 27.9682 27.3014 27.9911C27.6067 28.014 27.9069 28.126 28.1995 28.3219C28.4946 28.5203 28.7109 28.7518 28.8432 29.024C28.978 29.2937 29.0213 29.5914 28.978 29.912C28.9348 30.2325 28.7923 30.5734 28.5557 30.9271L27.7339 32.161L27.0394 31.698L27.7848 30.576C27.9222 30.3674 28.0087 30.1791 28.0367 30.0086C28.0672 29.8382 28.0469 29.683 27.9782 29.5456C27.9095 29.4082 27.7924 29.2835 27.6271 29.1742C27.4617 29.0648 27.3014 29.0037 27.1411 28.991C26.9808 28.9782 26.8282 29.0164 26.6781 29.108C26.528 29.1996 26.3855 29.3497 26.2456 29.5583L25.7342 30.3241L29.6548 32.9344L29.0976 33.7715L29.1027 33.7765ZM28.5989 29.9959L31.4535 30.2452L30.8302 31.179L27.9883 30.9093L28.5964 29.9959H28.5989Z" fill="#284122"/>
<path id="Vector_12" d="M32.896 23.4624C32.7637 23.3861 32.6289 23.3301 32.4915 23.297C32.3541 23.2639 32.2167 23.2538 32.0819 23.269C31.9445 23.2817 31.8097 23.3199 31.6774 23.3861C31.5451 23.4497 31.4179 23.5387 31.2957 23.6507C31.0769 23.8516 30.9319 24.0882 30.8607 24.3554C30.792 24.6225 30.8047 24.91 30.9039 25.2128C31.0032 25.5155 31.194 25.8208 31.4738 26.1261C31.7588 26.434 32.0463 26.6502 32.3414 26.7749C32.6365 26.8995 32.9215 26.9377 33.1962 26.8894C33.471 26.841 33.7229 26.7113 33.9519 26.5001C34.1579 26.3093 34.3029 26.1032 34.3818 25.8844C34.4607 25.6656 34.4734 25.4443 34.42 25.2204C34.3665 24.9965 34.2495 24.7879 34.0663 24.5894L34.2571 24.4622L33.1479 25.4825L32.6162 24.9049L34.2724 23.3784L34.7253 23.8695C35.0484 24.218 35.2519 24.5894 35.3384 24.9813C35.4249 25.3731 35.402 25.7598 35.2672 26.1363C35.1323 26.5128 34.8983 26.8588 34.5599 27.1692C34.1834 27.5152 33.7763 27.734 33.3362 27.8256C32.896 27.9172 32.4533 27.8791 32.0056 27.7137C31.5578 27.5483 31.1355 27.2481 30.7411 26.8181C30.4384 26.4874 30.2119 26.1516 30.0669 25.8056C29.9219 25.4596 29.8507 25.1186 29.8507 24.7828C29.8507 24.447 29.9244 24.1264 30.0618 23.8211C30.2018 23.5158 30.4053 23.241 30.6724 22.9943C30.8989 22.7856 31.138 22.6254 31.395 22.5109C31.6519 22.3964 31.9114 22.3302 32.1735 22.3099C32.4355 22.2895 32.695 22.3201 32.9469 22.3938C33.1988 22.4676 33.4328 22.5923 33.6466 22.7653L32.8935 23.4598L32.896 23.4624Z" fill="#284122"/>
<path id="Vector_13" d="M38.5263 24.0171L37.5849 24.5335L36.6283 18.7278L37.7172 18.1299L42.1008 22.0555L41.1595 22.572L37.7376 19.4147L37.6994 19.435L38.5237 24.0145L38.5263 24.0171ZM37.5111 22.0911L40.0782 20.6842L40.4675 21.3915L37.9004 22.7984L37.5111 22.0911Z" fill="#284122"/>
<path id="Vector_14" d="M46.9525 14.8579L48.3391 20.2337L47.4741 20.4576L43.9962 17.4504L43.9504 17.4631L44.8943 21.1242L43.9199 21.3761L42.5333 16.0002L43.4034 15.7764L46.8787 18.7861L46.9271 18.7734L45.9807 15.1098L46.95 14.8605L46.9525 14.8579Z" fill="#284122"/>
<path id="Vector_15" d="M51.3666 14.4204L51.7228 19.9591L50.7204 20.0227L50.3642 14.484L51.3666 14.4204Z" fill="#284122"/>
<path id="Vector_16" d="M59.2637 16.7891L58.2562 16.6644C58.2486 16.4965 58.213 16.3438 58.1519 16.2039C58.0909 16.0665 58.0069 15.9444 57.9051 15.8426C57.8034 15.7409 57.6787 15.6544 57.5388 15.5908C57.3989 15.5272 57.2437 15.4839 57.0757 15.4636C56.7755 15.4279 56.5008 15.4686 56.2514 15.5908C56.0021 15.7129 55.7935 15.9088 55.6281 16.181C55.4627 16.4532 55.3533 16.7967 55.3025 17.2088C55.2516 17.6312 55.2719 17.9925 55.3686 18.2977C55.4653 18.6005 55.6205 18.8422 55.8316 19.0152C56.0428 19.1908 56.2998 19.2951 56.5974 19.3307C56.7628 19.351 56.9206 19.3485 57.0707 19.3205C57.2208 19.2951 57.3581 19.2442 57.4854 19.1729C57.6126 19.1017 57.722 19.0076 57.8186 18.8905C57.9128 18.7761 57.9866 18.6387 58.0374 18.4809L59.0424 18.6107C58.9737 18.8676 58.8617 19.1042 58.7091 19.318C58.5564 19.5317 58.3682 19.7148 58.1468 19.865C57.9255 20.0151 57.6736 20.1219 57.3912 20.1881C57.1088 20.2542 56.8061 20.2644 56.4779 20.2237C55.9945 20.1652 55.5747 19.9998 55.2236 19.7276C54.87 19.4579 54.6105 19.0966 54.4451 18.6463C54.2772 18.196 54.2314 17.6744 54.3026 17.0842C54.3764 16.4914 54.5468 15.9953 54.8216 15.6009C55.0938 15.2066 55.4348 14.9191 55.8418 14.741C56.2489 14.5629 56.6941 14.5044 57.175 14.5629C57.4828 14.6011 57.7627 14.6774 58.0145 14.797C58.2664 14.9166 58.4878 15.0692 58.6735 15.2626C58.8592 15.4559 59.0042 15.6773 59.1085 15.9342C59.2128 16.1912 59.2663 16.4736 59.2714 16.7865L59.2637 16.7891Z" fill="#284122"/>
<path id="Vector_17" d="M63.9603 22.1571L66.4891 17.2163L69.6541 18.8344L69.2699 19.5849L67.0005 18.4248L66.3136 19.7656L68.3667 20.8163L67.9826 21.5668L65.9294 20.5161L64.8558 22.615L63.9603 22.1571Z" fill="#284122"/>
<path id="Vector_18" d="M74.5211 26.0267C74.1318 26.4821 73.7146 26.7976 73.2693 26.9782C72.8241 27.1588 72.3814 27.2072 71.9413 27.1309C71.5037 27.0545 71.0992 26.8561 70.7277 26.5406C70.3588 26.2251 70.1019 25.8562 69.9543 25.4339C69.8093 25.0116 69.7915 24.5663 69.8958 24.0982C70.0026 23.6301 70.2494 23.1696 70.6361 22.7142C71.0254 22.2588 71.4426 21.9433 71.8879 21.7627C72.3331 21.582 72.7758 21.5337 73.2159 21.61C73.6535 21.6864 74.058 21.8848 74.4295 22.2003C74.8009 22.5157 75.0579 22.8847 75.2029 23.3044C75.3479 23.7242 75.3683 24.1695 75.2614 24.6376C75.1546 25.1057 74.9078 25.5687 74.5185 26.0241L74.5211 26.0267ZM73.7527 25.3703C74.025 25.0497 74.2081 24.7368 74.2946 24.4315C74.3837 24.1262 74.3888 23.8413 74.3099 23.5767C74.231 23.3121 74.0758 23.0831 73.8469 22.8872C73.6179 22.6913 73.366 22.5743 73.0938 22.5386C72.8216 22.503 72.5417 22.5514 72.2517 22.6862C71.9642 22.821 71.6843 23.05 71.4096 23.3706C71.1348 23.6912 70.9542 24.0041 70.8676 24.3094C70.7786 24.6147 70.7735 24.8996 70.8549 25.1642C70.9338 25.4288 71.089 25.6578 71.318 25.8537C71.5469 26.0496 71.7988 26.1666 72.071 26.2022C72.3433 26.2379 72.6231 26.1895 72.9106 26.0547C73.1981 25.9198 73.478 25.6909 73.7527 25.3703Z" fill="#284122"/>
<path id="Vector_19" d="M79.2634 32.2448C78.7724 32.5857 78.289 32.7867 77.8107 32.8452C77.3349 32.9037 76.8922 32.8401 76.4877 32.6544C76.0832 32.4687 75.7423 32.1736 75.465 31.7767C75.1876 31.3772 75.0324 30.9549 74.9994 30.5097C74.9663 30.0644 75.0604 29.6294 75.2843 29.2045C75.5082 28.7796 75.8618 28.3955 76.3529 28.0546C76.8439 27.7136 77.3273 27.5127 77.8056 27.4541C78.2839 27.3956 78.724 27.4592 79.1285 27.6449C79.5331 27.8307 79.874 28.1258 80.1513 28.5227C80.4286 28.9221 80.5838 29.3444 80.6169 29.7871C80.65 30.2298 80.5558 30.6674 80.3345 31.0923C80.1131 31.5172 79.7544 31.9013 79.2634 32.2422V32.2448ZM78.6859 31.4154C79.0319 31.1762 79.2863 30.9193 79.4491 30.6471C79.6119 30.3748 79.6908 30.1001 79.6806 29.8253C79.6705 29.5505 79.5814 29.2885 79.4084 29.0417C79.2354 28.7949 79.0242 28.6168 78.7698 28.5125C78.5154 28.4082 78.2305 28.3828 77.9201 28.4413C77.6071 28.4998 77.2764 28.6473 76.9329 28.889C76.5869 29.1282 76.3325 29.3852 76.1697 29.6574C76.0069 29.9296 75.928 30.2044 75.9382 30.4791C75.9483 30.7539 76.0374 31.016 76.2104 31.2627C76.3834 31.5095 76.5946 31.6876 76.849 31.7919C77.1034 31.8962 77.3858 31.9217 77.6987 31.8632C78.0117 31.8047 78.3399 31.6571 78.6859 31.4154Z" fill="#284122"/>
<path id="Vector_20" d="M78.5994 37.5318L77.9481 35.7662L83.156 33.8428L83.82 35.644C84.0108 36.1605 84.0719 36.6439 84.0006 37.0917C83.9294 37.5394 83.7386 37.9363 83.4231 38.2798C83.1076 38.6233 82.6802 38.8955 82.1408 39.0939C81.5989 39.2949 81.0952 39.3661 80.6322 39.3102C80.1691 39.2542 79.7621 39.0736 79.4135 38.7734C79.065 38.4731 78.7953 38.0584 78.5994 37.5293V37.5318ZM79.1133 36.4098L79.4008 37.1858C79.5356 37.5496 79.7137 37.8269 79.9351 38.0203C80.1589 38.2136 80.4235 38.323 80.7339 38.3459C81.0443 38.3688 81.3979 38.3078 81.7974 38.1602C82.1968 38.0127 82.5047 37.8295 82.7235 37.6107C82.9423 37.3919 83.072 37.1375 83.1153 36.8525C83.1585 36.565 83.1153 36.247 82.9855 35.8934L82.6878 35.0894L79.1133 36.4098Z" fill="#284122"/>
</g>
<path id="Vector_21" d="M93.7015 58.75H12.5478V76.5591H93.7015V58.75Z" fill="#284122"/>
<g id="Group_4">
<path id="Vector_22" d="M22.2792 72.8089V72.6613L22.5744 72.557C22.7703 72.4985 22.9026 72.4094 22.9662 72.2924C23.0298 72.1754 23.0628 72.0176 23.0628 71.8192V64.0875C23.0628 63.8916 23.0272 63.7339 22.9585 63.6143C22.8898 63.4972 22.7575 63.4031 22.5591 63.3344L22.2792 63.2174V63.0698H25.864C27.3294 63.0698 28.3903 63.337 29.0442 63.8738C29.698 64.4106 30.0262 65.1153 30.0262 65.9905C30.0262 66.5502 29.8914 67.0642 29.6217 67.5323C29.352 68.0004 28.9068 68.3719 28.286 68.6466C27.6652 68.9214 26.8307 69.0588 25.7775 69.0588H25.2763V71.7734C25.2763 72.1576 25.4671 72.4069 25.8512 72.5265L26.2939 72.6588V72.8063H22.2792V72.8089ZM25.2737 68.7662H25.8334C26.3143 68.7662 26.7086 68.6873 27.0139 68.5296C27.3192 68.3719 27.5457 68.0971 27.6932 67.7027C27.8408 67.3084 27.9146 66.764 27.9146 66.0643C27.9146 65.3647 27.8331 64.8049 27.6703 64.4106C27.5075 64.0163 27.2683 63.744 26.9554 63.5914C26.6399 63.4387 26.2481 63.3624 25.7749 63.3624H25.2737V68.7637V68.7662Z" fill="white" stroke="white" stroke-width="0.65"/>
<path id="Vector_23" d="M37.5518 73.0737C36.8039 73.0737 36.1424 72.9414 35.5674 72.6742C34.9924 72.4096 34.5446 71.9873 34.2241 71.4123C33.9035 70.8374 33.7458 70.0767 33.7458 69.1328V64.0419C33.7458 63.6679 33.555 63.4211 33.1708 63.3041L32.8451 63.215V63.0675H36.9336V63.215L36.5062 63.3321C36.1424 63.4211 35.9592 63.6654 35.9592 64.0699V69.5144C35.9592 70.4303 36.15 71.1045 36.5342 71.5446C36.9183 71.9822 37.4679 72.201 38.1879 72.201C38.9079 72.201 39.5287 71.9695 39.9663 71.5065C40.4038 71.0434 40.6226 70.3896 40.6226 69.5449V64.1284C40.6226 63.9325 40.5896 63.757 40.526 63.6043C40.4624 63.4517 40.3326 63.3499 40.1342 63.3015L39.7653 63.2125V63.0649H41.8311V63.2125L41.4317 63.3168C41.2434 63.355 41.1213 63.4491 41.0628 63.5967C41.0043 63.7442 40.9737 63.9172 40.9737 64.1131V69.5144C40.9737 70.2318 40.8313 70.8603 40.5463 71.3971C40.2614 71.9339 39.8619 72.346 39.3506 72.6361C38.8392 72.9261 38.2388 73.0711 37.5493 73.0711L37.5518 73.0737Z" fill="white" stroke="white" stroke-width="0.65"/>
<path id="Vector_24" d="M44.6653 72.8093V72.6617L44.9757 72.5574C45.1716 72.4887 45.3014 72.3971 45.3599 72.2852C45.4184 72.1732 45.4489 72.0129 45.4489 71.8069V64.0904C45.4489 63.8945 45.4209 63.7393 45.3675 63.6248C45.3141 63.5129 45.192 63.4213 45.0062 63.3526L44.6679 63.2203V63.0728H48.8886C50.0488 63.0728 50.9392 63.2916 51.56 63.7291C52.1808 64.1667 52.4886 64.7748 52.4886 65.5508C52.4886 65.9833 52.3258 66.4158 52.0027 66.8483C51.677 67.2808 51.1657 67.6166 50.4686 67.8507L52.5191 71.9239C52.6082 72.0918 52.7074 72.2266 52.8219 72.331C52.9338 72.4353 53.084 72.5243 53.2722 72.6032L53.463 72.677V72.8093H50.8222L48.6393 68.1611H47.6369V71.8069C47.6369 71.9926 47.6674 72.1452 47.7259 72.2648C47.7845 72.3818 47.9066 72.4709 48.0948 72.5294L48.4485 72.6617V72.8093H44.6704H44.6653ZM47.6318 67.866H48.3391C49.0464 67.866 49.5577 67.6777 49.8732 67.2986C50.1887 66.9195 50.3464 66.3573 50.3464 65.6093C50.3464 64.8613 50.1989 64.2889 49.9037 63.92C49.6086 63.5511 49.1125 63.3653 48.4129 63.3653H47.6318V67.866Z" fill="white" stroke="white" stroke-width="0.65"/>
<path id="Vector_25" d="M56.3965 72.8089V72.6613L56.7348 72.529C56.9027 72.4603 57.0172 72.3687 57.0808 72.2568C57.1444 72.1449 57.1775 71.9897 57.1775 71.7912V64.0875C57.1775 63.8916 57.1495 63.7364 57.0961 63.6219C57.0427 63.51 56.9206 63.4184 56.7348 63.3497L56.3965 63.2174V63.0698H63.4641L63.5532 65.3418H63.4056L62.7721 63.9552C62.6831 63.7771 62.5889 63.6346 62.4923 63.5278C62.393 63.4184 62.2455 63.3649 62.0496 63.3649H59.3935V67.629H60.9734C61.1693 67.629 61.3194 67.5781 61.4237 67.4738C61.528 67.3695 61.6171 67.2295 61.6959 67.054L61.9911 66.4637H62.1386V69.1198H61.9911L61.6959 68.4991C61.6069 68.321 61.5128 68.181 61.4161 68.0793C61.3169 67.975 61.1693 67.9241 60.9734 67.9241H59.3935V72.5138H62.3752C62.5711 72.5138 62.7238 72.4629 62.8332 72.3586C62.94 72.2543 63.0291 72.1092 63.0978 71.9235L63.7033 70.5369H63.8509L63.7618 72.8089H56.399H56.3965Z" fill="white" stroke="white" stroke-width="0.65"/>
<path id="Vector_26" d="M67.0489 72.8089V72.6613L67.3593 72.5443C67.5653 72.4654 67.6951 72.3687 67.7511 72.2568C67.8045 72.1449 67.8325 71.9897 67.8325 71.7912V64.0875C67.8325 63.8916 67.8019 63.7339 67.7434 63.6143C67.6849 63.4972 67.5552 63.4031 67.3593 63.3344L67.0489 63.2174V63.0698H70.8117V63.2174L70.5471 63.3344C70.3588 63.4031 70.2316 63.4998 70.1629 63.6219C70.0942 63.744 70.0586 63.9043 70.0586 64.1002V72.5112H72.3305C72.6944 72.5112 72.9615 72.4222 73.1345 72.2466C73.3075 72.0685 73.4703 71.8141 73.6281 71.4783L74.2031 70.2393H74.3506L74.2183 72.8063H67.0463L67.0489 72.8089Z" fill="white" stroke="white" stroke-width="0.65"/>
<path id="Vector_27" d="M78.2941 72.8089V72.6613L78.7367 72.5443C79.0802 72.4451 79.2532 72.2008 79.2532 71.8065V69.0028L76.8184 64.0442C76.7294 63.8483 76.648 63.7008 76.5742 63.6016C76.5004 63.5023 76.3885 63.4184 76.2409 63.3497L75.9763 63.2174V63.0698H79.93V63.2174L79.6654 63.3217C79.4491 63.4107 79.3321 63.5303 79.3117 63.683C79.2914 63.8356 79.3321 64.0239 79.4288 64.2503L81.169 68.1174L83.1178 64.1028C83.1967 63.945 83.2272 63.7822 83.2145 63.6168C83.1992 63.4489 83.0949 63.3421 82.8964 63.2912L82.6904 63.2174V63.0698H84.4611V63.2174L84.1813 63.3217C83.993 63.3904 83.8556 63.4871 83.7691 63.6092C83.6801 63.7313 83.591 63.8865 83.5045 64.0748L81.4819 68.3235V71.8065C81.4819 72.0024 81.5201 72.1627 81.5938 72.2848C81.6676 72.4069 81.7974 72.4934 81.9856 72.5443L82.4436 72.6613V72.8089H78.2966H78.2941Z" fill="white" stroke="white" stroke-width="0.65"/>
</g>
<g id="Group_5">
<g id="Group_6">
<path id="Vector_28" d="M61.3932 46.2478C60.808 48.5121 60.0448 50.7357 58.1621 52.275C57.2818 52.9949 56.2642 53.6106 55.2465 54.1627C54.9895 54.3026 54.7351 54.4349 54.4807 54.5672C50.8044 56.4601 48.0109 56.3202 45.9374 55.272C46.2045 54.7199 46.4971 54.1322 46.8126 53.519C47.0187 53.1171 47.2349 52.7024 47.4588 52.28C48.4968 52.0307 55.5721 49.5985 56.3914 49.0133C56.4372 48.9803 50.6848 50.6569 48.1178 51.0538C49.1176 49.2067 50.237 47.2273 51.3717 45.2658C52.3461 45.0165 58.0425 43.0524 58.7116 42.5766C58.7498 42.5512 54.122 43.8996 51.9645 44.2481C53.2112 42.1085 54.4578 40.0197 55.5696 38.1777C56.137 38.0226 59.2128 36.9387 59.5741 36.6767C59.5461 36.6767 57.0936 37.4069 55.9105 37.6129C58.0069 34.1478 59.5512 31.68 59.5741 31.6265C58.8338 32.4992 57.3582 34.5854 55.6078 37.211C55.0226 35.8142 54.1423 32.7485 54.1322 32.7485C54.1016 33.2726 54.9285 36.8217 55.2083 37.8114C54.0406 39.5745 52.771 41.5462 51.5295 43.5408C50.4075 41.3859 48.5986 36.6691 48.5808 36.6691C48.6062 37.4883 50.3337 42.8056 50.9519 44.4745C49.6519 46.5811 48.4052 48.6775 47.3647 50.5449C46.2783 48.2603 44.7111 43.9326 44.6958 43.9352C44.706 44.7162 46.1816 49.5985 46.8304 51.5168C46.6014 51.9289 46.3089 52.481 46.0264 53.0128C45.6143 53.7836 45.2199 54.5164 45.0546 54.7428C43.5612 53.7455 42.6274 52.3615 41.9253 50.9723C41.0424 49.222 40.7829 47.2401 40.8465 45.3014C40.8643 44.7315 40.9127 44.1667 40.9814 43.6019C41.0221 43.2712 41.0679 42.943 41.1188 42.6148C41.4317 43.0117 41.6963 43.4442 41.9074 43.9097C42.1161 44.3728 42.7699 44.2456 42.8055 43.7469C43.0549 40.297 44.6653 36.9718 47.1764 34.6007C47.67 34.1351 48.1966 33.7102 48.7538 33.3235C48.7156 33.8476 48.7182 34.3742 48.7691 34.9034C48.8123 35.3435 49.3695 35.3944 49.5908 35.0688C50.8273 33.2599 53.0331 32.1328 55.1574 31.8046C56.974 31.5222 58.9304 31.5477 60.5333 30.6216C60.7699 33.6033 60.3832 36.7428 59.3095 39.5185C59.1772 39.8594 59.6352 40.1495 59.9252 40.0401C60.4239 39.8493 60.892 39.5999 61.3194 39.2946C61.21 40.4013 61.0039 41.503 60.7012 42.5715C60.4976 43.2864 60.2432 43.9835 59.943 44.6628C59.6326 45.365 59.3222 46.0596 58.8948 46.6981C58.7829 46.8661 58.8541 47.1128 58.9966 47.2375C59.1671 47.3851 59.3858 47.3647 59.5767 47.2782C60.0829 47.0442 60.5714 46.7694 61.0472 46.4819C61.1642 46.4107 61.2813 46.3343 61.3957 46.258L61.3932 46.2478Z" fill="#94D03A"/>
<path id="Vector_29" d="M46.0214 53.01C45.6092 53.7809 45.2149 54.5136 45.0495 54.74C43.5561 53.7427 42.6224 52.3587 41.9202 50.9696C41.0373 49.2192 40.7778 47.2373 40.8414 45.2986C40.8593 44.7287 40.9076 44.1639 40.9763 43.5991C41.1925 45.4131 41.6556 47.1889 42.4748 48.8197C43.2991 50.4658 44.5254 51.9491 46.0214 53.0125V53.01Z" fill="#67B33D"/>
<path id="Vector_30" d="M55.2439 54.1603C54.987 54.3002 54.7326 54.4325 54.4782 54.5648C50.8018 56.4577 48.0084 56.3177 45.9349 55.2695C46.202 54.7174 46.4946 54.1297 46.8101 53.5166C47.6547 54.0025 48.5681 54.3562 49.5323 54.5394C51.4226 54.8981 53.3536 54.5953 55.2439 54.1603Z" fill="#67B33D"/>
<path id="Vector_31" d="M54.1271 32.7485L54.585 38.7502L55.4475 37.7097L54.1271 32.7485Z" fill="#67B33D"/>
<path id="Vector_32" d="M48.5782 36.814L50.5907 45.8737L51.2293 44.3472L48.5782 36.814Z" fill="#67B33D"/>
<path id="Vector_33" d="M48.2272 50.1963L56.2438 49.0107C56.2438 49.0107 47.6038 51.415 47.7031 51.3819C47.8023 51.3488 48.2272 50.1963 48.2272 50.1963Z" fill="#67B33D"/>
<path id="Vector_34" d="M58.7066 42.5742L51.6643 44.6452L52.1273 43.5944L58.7066 42.5742Z" fill="#67B33D"/>
<path id="Vector_35" d="M61.8944 44.7696C61.4619 45.0978 60.9963 45.3955 60.5231 45.6779C60.635 45.4642 60.7444 45.2454 60.8411 45.024C61.1668 44.2888 61.4441 43.5306 61.6781 42.7597C62.1437 41.2307 62.3854 39.6584 62.4134 38.0607C62.421 37.6282 61.7824 37.4602 61.5204 37.7655C61.2405 38.0912 60.9302 38.3838 60.5841 38.6357C60.9734 37.3865 61.2711 36.1195 61.4237 34.8067C61.6196 33.1199 61.5967 31.4509 61.3957 29.7667C61.3449 29.3444 60.8665 29.2426 60.5714 29.4945C59.3044 30.5808 57.4904 30.6241 55.9156 30.8073C54.1398 31.0159 52.481 31.4866 51.0105 32.5373C50.5042 32.9011 50.0462 33.3107 49.6213 33.7534C49.6315 33.354 49.6595 32.9545 49.7129 32.5576C49.7638 32.1862 49.3669 31.9241 49.0413 32.1226C45.8967 34.0536 43.495 37.1728 42.4366 40.7117C42.2764 41.2434 42.1542 41.7828 42.0601 42.3272C41.7853 41.9253 41.4749 41.5487 41.1264 41.2027C40.8796 40.9585 40.386 41.1111 40.3199 41.4495C39.8721 43.7163 39.6024 46.0824 40.1087 48.3544C40.989 52.308 43.5459 54.8114 44.4974 55.6179C44.0115 56.2921 43.7494 56.9358 43.2126 57.4675C42.6987 57.9815 44.2913 59.0271 44.561 58.5005C44.8714 57.8924 45.2556 56.9485 45.5023 56.3176C48.1432 57.61 51.5371 56.7806 54.1881 55.679C55.6357 55.076 57.0478 54.3179 58.3122 53.3893C59.5563 52.4759 60.546 51.3488 61.2126 49.9521C61.9224 48.4638 62.2913 46.8431 62.6144 45.2352C62.6907 44.8587 62.215 44.5228 61.8918 44.7696H61.8944ZM58.1596 52.2724C57.0579 53.173 55.7401 53.9133 54.4782 54.5647C50.8018 56.4601 48.0083 56.3176 45.9349 55.2694C46.3775 54.3535 46.8915 53.346 47.4563 52.28C48.4943 52.0307 55.5696 49.5984 56.3888 49.0133C56.4346 48.9802 50.6797 50.6568 48.1152 51.0537C49.1151 49.2066 50.2345 47.2273 51.3692 45.2657C52.3436 45.0164 58.04 43.0523 58.7091 42.5766C58.7473 42.5486 54.1194 43.8995 51.962 44.2481C53.2086 42.1084 54.4553 40.0197 55.5671 38.1777C56.1344 38.0225 59.2103 36.9387 59.5716 36.6792C59.5919 36.6639 57.1037 37.4094 55.908 37.6154C58.0451 34.0841 59.6072 31.5883 59.5716 31.629C58.8338 32.5017 57.3556 34.5879 55.6052 37.2135C55.0175 35.8091 54.1321 32.7205 54.1296 32.751C54.0991 33.2751 54.9259 36.8242 55.2058 37.8139C54.038 39.577 52.7685 41.5487 51.5269 43.5433C50.3973 41.3783 48.5757 36.6207 48.5782 36.6716C48.6037 37.4908 50.3312 42.8081 50.9494 44.4771C49.6493 46.5836 48.4027 48.68 47.3621 50.5474C46.2707 48.25 44.6933 43.8893 44.6933 43.9377C44.7035 44.7187 46.1791 49.601 46.8279 51.5193C46.2681 52.5293 45.3268 54.3611 45.052 54.7427C43.5586 53.7454 42.6249 52.3614 41.9227 50.9723C41.0399 49.2219 40.7804 47.24 40.844 45.3014C40.8745 44.4007 40.9788 43.5026 41.1162 42.6122C41.4291 43.0091 41.6937 43.439 41.9049 43.9072C42.1135 44.3702 42.7674 44.243 42.803 43.7443C43.0523 40.2944 44.6653 36.9692 47.1739 34.6006C47.6674 34.135 48.1941 33.7076 48.7512 33.3234C48.7131 33.8475 48.7156 34.3742 48.7665 34.9034C48.8098 35.3435 49.3644 35.3944 49.5883 35.0687C50.8247 33.2598 53.0305 32.1328 55.1549 31.8046C56.974 31.5222 58.9279 31.5476 60.5333 30.6215C60.7699 33.6033 60.3832 36.7428 59.3095 39.5185C59.1772 39.8594 59.6352 40.1494 59.9252 40.0375C60.4239 39.8467 60.892 39.5973 61.3194 39.292C61.2126 40.3988 61.0065 41.5004 60.7012 42.5689C60.4976 43.2838 60.2432 43.9835 59.943 44.6602C59.6326 45.3624 59.3222 46.057 58.8948 46.6956C58.7829 46.8635 58.8541 47.1103 58.9966 47.2349C59.167 47.3825 59.3858 47.3621 59.5767 47.2756C60.0829 47.0416 60.5689 46.7668 61.0472 46.4793C61.1668 46.4081 61.2812 46.3317 61.3957 46.2554C60.8106 48.5197 60.0473 50.7433 58.1646 52.2825L58.1596 52.2724Z" fill="#284122"/>
</g>
<g id="Group_7">
<path id="Vector_36" d="M58.2512 57.1876C56.9078 58.2613 54.7199 57.7982 53.9108 56.0911C53.1425 54.473 54.2873 53.0483 55.8902 52.7099C58.5412 52.1502 60.518 55.3736 58.2512 57.1876Z" fill="#F24B11"/>
<path id="Vector_37" d="M58.5259 52.3412C56.7755 51.3694 54.0126 51.8807 53.2366 53.7838C52.6972 55.1067 53.4172 56.9665 54.4629 57.8112C55.8469 58.9306 57.9408 58.5922 59.1823 57.4016C60.2254 56.4017 60.3603 54.6997 59.6606 53.4479C59.3935 52.9696 58.9966 52.6033 58.5259 52.3412ZM58.2512 57.1879C56.9078 58.2615 54.7199 57.7985 53.9108 56.0913C53.1425 54.4732 54.2873 53.0485 55.8902 52.7101C58.5412 52.1504 60.518 55.3739 58.2512 57.1879Z" fill="#294123"/>
<path id="Vector_38" d="M57.6049 53.1579C57.4854 53.074 57.3454 53.2597 57.4497 53.3589C57.9204 53.7991 58.2588 54.4275 58.274 55.0839C58.2868 55.6995 57.9051 56.1092 57.7499 56.6638C57.6889 56.8826 57.9535 57.1217 58.157 56.9767C59.3808 56.1066 58.6022 53.8678 57.6024 53.1579H57.6049Z" fill="#F77B59"/>
</g>
<g id="Group_8">
<path id="Vector_39" d="M60.4671 52.6616C59.7776 51.1759 60.7775 49.3619 62.6246 49.1125C64.3749 48.8785 65.4537 50.2854 65.3723 51.8017C65.2374 54.3077 61.6323 55.1727 60.4671 52.6616Z" fill="#F24B11"/>
<path id="Vector_40" d="M65.0542 54.2417C66.4332 52.9569 66.6443 50.3669 65.0135 49.1508C63.8788 48.3062 61.9097 48.4334 60.8309 49.1279C59.4011 50.0464 59.195 52.0003 60.0219 53.4276C60.719 54.631 62.3193 55.2187 63.7007 54.9414C64.2274 54.837 64.6828 54.5852 65.0517 54.2392L65.0542 54.2417ZM60.4671 52.6618C59.7776 51.176 60.7775 49.362 62.6246 49.1127C64.3749 48.8786 65.4537 50.2855 65.3723 51.8019C65.2374 54.3079 61.6323 55.1729 60.4671 52.6618Z" fill="#294123"/>
<path id="Vector_41" d="M64.0747 53.4071C63.9704 53.4936 63.8305 53.3257 63.9195 53.229C64.3292 52.7915 64.6014 52.1834 64.5759 51.5703C64.5505 50.9953 64.1765 50.634 64.001 50.1252C63.9323 49.9242 64.1612 49.685 64.3571 49.8071C65.5351 50.5475 64.9525 52.6871 64.0722 53.4071H64.0747Z" fill="#F77B59"/>
</g>
</g>
<path id="Vector_42" d="M18.4656 67.8197C18.4656 68.3641 18.0229 68.8068 17.4784 68.8068C16.934 68.8068 16.4913 68.3641 16.4913 67.8197C16.4913 67.2752 16.934 66.8325 17.4784 66.8325C18.0229 66.8325 18.4656 67.2752 18.4656 67.8197Z" fill="#94D03A"/>
<path id="Vector_43" d="M89.7479 67.8197C89.7479 68.3641 89.3052 68.8068 88.7607 68.8068C88.2163 68.8068 87.7736 68.3641 87.7736 67.8197C87.7736 67.2752 88.2163 66.8325 88.7607 66.8325C89.3052 66.8325 89.7479 67.2752 89.7479 67.8197Z" fill="#94D03A"/>
</g>
<defs>
<clipPath id="clip0_0_2106">
<rect width="106" height="88.0077" fill="white"/>
</clipPath>
</defs>
</svg>
