<svg xmlns="http://www.w3.org/2000/svg" width="18" height="18" viewBox="0 0 18 18" fill="none">
  <path d="M13.3523 9.10175C13.3001 9.04839 13.2378 9.00596 13.169 8.97692C13.1002 8.94788 13.0264 8.93282 12.9517 8.93262C12.8771 8.93242 12.8031 8.94707 12.7342 8.97574C12.6653 9.0044 12.6027 9.0465 12.5502 9.09957C12.4977 9.15265 12.4563 9.21564 12.4284 9.28488C12.4005 9.35411 12.3867 9.42821 12.3877 9.50286C12.3888 9.5775 12.4046 9.65119 12.4344 9.71963C12.4642 9.78808 12.5073 9.84991 12.5613 9.90152C13.0385 10.3711 13.4171 10.9313 13.6749 11.5492C13.9327 12.1671 14.0645 12.8303 14.0625 13.4998C14.0625 14.1878 12.0905 15.1873 9.00003 15.1873C5.9096 15.1873 3.93753 14.1873 3.93753 13.4987C3.93563 12.8338 4.06565 12.1751 4.32005 11.5607C4.57445 10.9464 4.94818 10.3886 5.4196 9.91969C5.47292 9.8677 5.51539 9.80564 5.54454 9.73712C5.57369 9.66859 5.58894 9.59496 5.58942 9.52049C5.58989 9.44603 5.57557 9.37221 5.54729 9.30332C5.51901 9.23443 5.47733 9.17184 5.42467 9.11918C5.37202 9.06653 5.30943 9.02485 5.24054 8.99657C5.17165 8.96829 5.09783 8.95397 5.02336 8.95444C4.94889 8.95491 4.87526 8.97017 4.80674 8.99932C4.73821 9.02847 4.67616 9.07093 4.62417 9.12426C4.04785 9.69755 3.59097 10.3795 3.28 11.1305C2.96903 11.8816 2.81014 12.6869 2.81253 13.4998C2.81253 15.3266 6.00021 16.3123 9.00003 16.3123C11.9998 16.3123 15.1875 15.3266 15.1875 13.4998C15.19 12.6814 15.029 11.8708 14.7138 11.1156C14.3986 10.3603 13.9357 9.67562 13.3523 9.10175Z" fill="#004C3F"/>
  <path d="M9 9.5625C9.77876 9.5625 10.54 9.33157 11.1876 8.89891C11.8351 8.46626 12.3398 7.8513 12.6378 7.13182C12.9358 6.41233 13.0138 5.62063 12.8618 4.85683C12.7099 4.09303 12.3349 3.39144 11.7842 2.84077C11.2336 2.2901 10.532 1.91509 9.76817 1.76316C9.00437 1.61123 8.21267 1.68921 7.49318 1.98723C6.7737 2.28525 6.15875 2.78993 5.72609 3.43744C5.29343 4.08496 5.0625 4.84624 5.0625 5.625C5.06371 6.66892 5.47894 7.66974 6.2171 8.4079C6.95526 9.14607 7.95608 9.5613 9 9.5625ZM9 2.8125C9.55626 2.8125 10.1 2.97745 10.5625 3.28649C11.0251 3.59553 11.3855 4.03479 11.5984 4.5487C11.8113 5.06262 11.867 5.62812 11.7585 6.17369C11.6499 6.71926 11.3821 7.2204 10.9887 7.61374C10.5954 8.00707 10.0943 8.27494 9.54869 8.38346C9.00312 8.49198 8.43762 8.43628 7.9237 8.22341C7.40979 8.01054 6.97053 7.65006 6.66149 7.18754C6.35245 6.72503 6.1875 6.18126 6.1875 5.625C6.18838 4.87935 6.48498 4.16449 7.01223 3.63723C7.53949 3.10998 8.25435 2.81338 9 2.8125Z" fill='#004C3F'/>
</svg>