<svg width="40" height="44" viewBox="0 0 40 44" fill="none" xmlns="http://www.w3.org/2000/svg">
<g id="Group">
<path id="Vector" opacity="0.21" d="M40 18.6197C39.9824 21.1428 39.5901 23.6307 39.2798 26.1245C39.1217 27.4006 38.9929 28.6885 38.7061 29.9354C37.9215 33.3131 36.3291 36.2108 33.4193 38.2655C31.8502 39.3777 30.246 40.4197 28.4896 41.2276C26.3877 42.1993 24.1337 42.574 21.8913 42.9603C20.1232 43.2647 18.3258 43.3115 16.5343 43.0832C16.3352 43.0598 16.1361 43.0306 15.9488 42.972C15.7029 42.8959 15.3399 42.9076 15.3516 42.5388C15.3633 42.2052 15.7087 42.2169 15.9429 42.1817C16.7509 42.0588 17.5588 41.971 18.3668 41.8598C19.0108 41.772 19.6607 41.6842 20.3047 41.5964C20.6384 41.5495 20.896 41.4383 21.1068 41.128C21.4054 40.6948 21.8796 40.4256 22.3187 40.1329C23.718 39.1963 25.1173 38.2538 26.3643 37.1123C27.9334 35.6663 28.9755 33.8341 30.0294 32.0193C31.2823 29.871 32.2483 27.5821 33.1148 25.2581C33.267 24.8483 33.4192 24.4444 33.7764 24.1575C33.9462 24.0229 33.9637 23.818 33.9813 23.619C34.0984 22.5184 34.1687 21.4179 34.1804 20.3115C34.1979 18.5553 34.3033 16.7992 34.7658 15.0898C34.8361 14.8323 34.8244 14.6098 34.637 14.3815C34.3384 14.0244 34.5317 13.7903 34.8829 13.6205C36.4754 12.8653 38.548 13.5561 39.3794 15.125C39.8653 16.0382 40.0117 16.8811 39.9941 18.6139L40 18.6197Z" fill="#3D2308"/>
<g id="Group_2">
<path id="Vector_2" d="M34.8654 16.7173C34.8654 16.77 34.8654 16.8226 34.8654 16.8753C34.8712 16.8226 34.8712 16.7641 34.8654 16.7173Z" fill="#CFD632"/>
<path id="Vector_3" d="M34.8362 13.6616C34.8362 13.8431 34.8479 14.0187 34.8479 14.206C34.9006 14.0714 34.8947 13.8958 34.8362 13.6616Z" fill="#CFD632"/>
<path id="Vector_4" d="M22.9862 15.7571C22.0729 15.5522 21.1537 15.5405 20.1233 15.5698C18.9523 15.4644 17.6994 15.6518 16.4758 15.9971C13.525 16.8226 11.0309 18.2743 9.374 20.973C8.20891 22.8696 7.6293 24.8951 7.93374 27.0786C8.36699 30.2163 9.9829 32.4525 13.1327 33.4477C15.7205 34.2614 18.1619 34.0565 20.3809 32.4876C22.0963 31.2759 23.2145 29.5665 23.8995 27.5879C24.6782 25.3341 24.889 23.0101 24.8656 20.6393C24.848 19.0705 24.3913 17.6538 23.6946 16.284C23.5483 15.9972 23.3316 15.8274 22.9921 15.7513L22.9862 15.7571ZM24.0928 21.4823C24.0752 21.7223 24.0693 21.9623 24.0401 22.1964C24.0401 22.2082 24.0401 22.2199 24.0401 22.2257C23.9054 25.2756 23.2321 28.2026 21.0366 30.5676C19.9066 31.7852 18.642 32.8974 16.9207 33.1316C12.6702 33.7169 9.31545 30.9246 8.69485 27.3655C8.68899 27.3303 8.68314 27.2952 8.67729 27.2601C8.65972 27.1489 8.6363 27.0376 8.62459 26.9264C8.62459 26.9147 8.62459 26.8971 8.62459 26.8854C8.56605 26.3996 8.54849 25.8903 8.57776 25.3459C8.64217 23.9409 8.84122 23.1916 9.46768 21.8979C10.0122 20.7798 11.025 19.6149 12.4126 18.4851C13.7943 17.3787 16.0132 16.4538 17.8926 16.2138C19.1689 16.044 20.6912 16.085 21.663 16.2723C21.6748 16.2723 21.6865 16.2723 21.6923 16.2723C21.9675 16.3074 22.2075 16.3777 22.4066 16.4947C22.4593 16.524 22.5061 16.5533 22.5412 16.5825C22.7989 16.7699 22.9921 17.0333 23.1384 17.3845C23.3785 17.9641 23.5541 18.5495 23.6829 19.1524C23.9698 19.8724 24.1337 20.6335 24.081 21.4764L24.0928 21.4823Z" fill="#CFD632"/>
<path id="Vector_5" d="M1.41159 34.1328C1.41159 34.1328 1.38818 34.0918 1.38232 34.0742C1.39403 34.0918 1.40574 34.1152 1.41159 34.1328Z" fill="#CFD632"/>
<path id="Vector_6" d="M10.059 41.6667C10.1819 41.7018 10.299 41.731 10.4219 41.7662C9.98284 41.6257 9.54958 41.4676 9.11633 41.292C9.42078 41.4442 9.73109 41.573 10.059 41.6667Z" fill="#CFD632"/>
<path id="Vector_7" d="M2.61182 35.9473C2.77575 36.199 2.93968 36.4507 3.09776 36.7024C3.94084 38.0956 5.10593 39.1142 6.54619 39.8401C6.58717 39.8635 6.63401 39.8811 6.67499 39.9045C6.36469 39.6586 6.0661 39.4011 5.76751 39.1376C4.6434 38.1308 3.54272 37.1298 2.61182 35.9473Z" fill="#CFD632"/>
<path id="Vector_8" d="M30.4978 3.87372C30.4803 3.48737 30.3983 3.11857 30.2461 2.76733C30.2578 2.84929 30.2754 2.92539 30.2871 3.0132C30.3164 3.32931 30.3925 3.6103 30.4978 3.87372Z" fill="#CFD632"/>
<path id="Vector_9" d="M26.4814 0.133057C26.9615 0.215011 27.4416 0.343795 27.9276 0.495996C27.4826 0.296963 27.0084 0.162326 26.4814 0.133057Z" fill="#CFD632"/>
<path id="Vector_10" d="M24.1044 1.05197C22.108 1.79541 20.3164 2.95449 18.5717 4.15454C15.2814 6.43172 12.0203 8.74401 9.15149 11.5773C7.09063 13.6086 5.20542 15.7687 3.62464 18.1922C2.69374 19.6206 1.82139 21.0841 1.52865 22.811C1.25934 24.3798 0.98416 25.9545 0.87292 27.5409C0.703133 29.9469 1.17737 32.2007 2.40686 34.3139C3.46657 36.1403 4.95366 37.5394 6.4876 38.9268C6.72764 39.1434 6.96768 39.3424 7.22529 39.5298C7.237 39.5415 7.24871 39.5473 7.26627 39.559C7.47704 39.7112 7.69367 39.8576 7.91615 39.9922C8.00983 40.0507 8.1035 40.1034 8.20303 40.1561C8.34354 40.2381 8.48991 40.3142 8.63043 40.3903C8.76509 40.4605 8.90559 40.5308 9.04611 40.5952C9.07538 40.6069 9.10465 40.6186 9.13393 40.6361C9.7838 40.923 10.4981 41.1571 11.3353 41.3679C13.9758 42.0411 17.1081 42.164 18.8703 41.6606C20.8082 41.1045 23.2204 39.6176 25.8726 37.3228C28.2847 35.2447 30.0704 32.5812 31.6219 28.7117C33.2202 24.7545 33.7647 22.4071 33.9813 18.5259C34.0984 16.3717 33.9404 11.5188 33.7179 10.2894C33.6827 10.1372 33.6476 9.98505 33.6067 9.8387C33.431 9.26501 33.0973 8.48059 32.7753 7.84251C32.6992 7.70787 32.6172 7.56738 32.5352 7.43859C32.1605 6.85905 32.1254 6.8532 31.6102 7.30395C31.5809 7.32737 31.5575 7.34493 31.5282 7.36835C31.5516 7.40932 31.5809 7.4503 31.6043 7.49713C32.4298 8.97232 32.8865 10.5704 33.0036 12.2564C33.2905 16.319 32.4006 20.1591 30.8608 23.8939C30.3924 25.0296 29.9533 26.1711 29.4498 27.2834C29.4732 27.3009 29.4966 27.3185 29.5201 27.3478C29.6723 27.5351 29.2273 28.7293 28.2496 30.7606C27.629 32.066 26.8444 33.067 26.4463 33.067C26.259 33.067 26.2414 33.0144 26.2824 32.6514C26.2824 32.6104 26.3234 32.5109 26.3761 32.3821C24.9592 34.3198 23.4019 36.1228 21.3176 37.4516C20.252 38.1365 19.1396 38.6224 18.0038 38.9209C17.6584 39.1375 17.2661 39.2195 16.8739 39.2722C16.7216 39.2546 16.5694 39.2429 16.4406 39.2019C16.1186 39.2312 15.7907 39.2546 15.4629 39.2546C11.7217 39.1434 8.43722 38.1365 5.72649 35.5432C4.38576 34.2612 3.8237 32.7099 3.61878 30.9304C3.3319 28.3898 3.449 25.8843 4.07545 23.4022C4.74874 20.7328 5.84943 18.2625 7.61756 16.1434C8.92901 14.5687 10.4337 13.1813 11.9091 11.7705C13.3493 10.3948 14.8306 9.06597 16.464 7.91861C17.9453 6.87661 19.4324 5.84047 20.9897 4.93311C22.1372 4.20138 23.5014 3.48134 24.2976 3.22962C24.4264 3.1945 24.5611 3.15938 24.684 3.13011C25.1232 2.95449 25.574 2.80229 26.0716 2.91352C26.136 2.92522 26.2238 2.91351 26.2824 2.87838C27.0377 2.43349 27.5704 2.86668 28.0329 3.36426C28.4194 3.77989 28.8292 4.18382 29.2332 4.58774C29.3269 4.44724 29.4732 4.30089 29.684 4.18381C29.8186 4.11357 29.8362 4.03161 29.7132 3.51647C29.684 3.43451 29.6664 3.34671 29.6489 3.25304C29.643 3.22377 29.6371 3.20035 29.6313 3.17108C29.5259 2.76131 29.3912 2.35154 29.2976 2.14079C29.239 2.0764 29.1746 2.01787 29.0985 1.97103C27.5529 1.04026 25.9136 0.396326 24.1103 1.06953L24.1044 1.05197ZM24.7543 34.4778C25.1993 33.9978 25.8199 34.4134 25.5037 34.9871C25.3164 35.3149 24.93 35.4203 24.6782 35.2271C24.4616 35.0398 24.485 34.7705 24.7543 34.4778Z" fill="#CFD632"/>
<path id="Vector_11" d="M8.14451 11.3784C7.21946 12.2214 6.31784 13.0995 5.46306 14.0244C4.02865 15.5698 2.84014 17.2967 1.97949 19.2051C2.55911 18.169 3.32608 16.9396 3.82373 16.284C5.0181 14.7152 6.55788 12.9765 8.14451 11.3784Z" fill="#CFD632"/>
<path id="Vector_12" d="M28.033 3.3529C27.5705 2.85532 27.0377 2.42213 26.2824 2.86702C26.2239 2.90215 26.1361 2.91385 26.0717 2.90215C25.574 2.79092 25.1232 2.94312 24.6841 3.11874C24.8246 3.08947 24.9534 3.06606 25.0237 3.06606C25.3281 3.05435 25.656 3.31777 25.5916 3.51095C25.5506 3.59876 24.8305 4.05536 23.9698 4.53538C23.1209 5.0037 21.8036 5.79398 21.0659 6.29742C20.3282 6.78915 19.6081 7.22233 19.4675 7.2516C18.6654 7.44478 18.5308 6.93549 19.2158 6.23888C19.5612 5.88179 20.2287 5.40177 20.9839 4.91589C19.4266 5.8291 17.9395 6.86524 16.4582 7.90139C14.8248 9.04875 13.3494 10.3717 11.9033 11.7533C10.422 13.1641 8.91734 14.5573 7.61174 16.1261C5.84362 18.2511 4.74294 20.7215 4.06964 23.385C3.44319 25.8671 3.3261 28.3725 3.61298 30.9131C3.81789 32.6927 4.37409 34.244 5.72067 35.526C8.4314 38.1252 11.7218 39.132 15.4571 39.2374C15.7849 39.2374 16.1128 39.214 16.4348 39.1847C16.2943 39.1379 16.1948 39.0442 16.1714 38.851C16.1362 38.5291 16.4582 38.4647 16.6983 38.4061C17.1374 38.3008 17.5823 38.2188 18.0273 38.1544C18.1795 38.131 18.3844 38.0959 18.4664 38.2773C18.5601 38.4822 18.3727 38.6052 18.2439 38.7281C18.1678 38.7984 18.0858 38.851 18.0039 38.9037C19.1397 38.6052 20.2521 38.1193 21.3176 37.4344C23.3961 36.1055 24.9593 34.3025 26.3761 32.3649C26.8094 31.3053 28.6477 27.711 28.9463 27.3598C29.1278 27.1608 29.2918 27.1374 29.4498 27.2661C29.9533 26.1539 30.3925 25.0065 30.8608 23.8767C32.4006 20.1419 33.2905 16.3018 33.0037 12.2391C32.8807 10.5532 32.4299 8.95509 31.6044 7.4799C31.581 7.43893 31.5517 7.39796 31.5283 7.35112C31.1945 7.61455 30.9369 7.60869 30.773 7.3277C30.7027 7.28087 30.6501 7.19307 30.6325 7.05843C30.6149 6.87696 30.5974 6.74232 30.5739 6.63695C30.5681 6.62524 30.5622 6.60768 30.5505 6.60768C30.2402 6.53743 30.0412 6.38523 29.8831 6.18619C29.8304 6.15692 29.7836 6.12179 29.7426 6.08082C29.6079 5.94618 29.5669 5.85252 29.5962 5.71788C29.5435 5.61836 29.4967 5.51885 29.4381 5.41933C29.3796 5.31396 29.3269 5.22615 29.2859 5.13834C29.0751 5.03882 29.0693 4.79882 29.2332 4.5588C28.8292 4.15488 28.4253 3.75097 28.033 3.33534V3.3529ZM26.259 11.0625C26.177 10.5357 26.8386 9.28877 27.307 9.07803C27.7051 8.89656 28.0623 9.11315 28.0681 9.53463C28.074 10.0439 27.1665 11.1971 26.6513 11.3493C26.382 11.4313 26.2883 11.3025 26.2532 11.0625H26.259ZM26.8445 23.7304C26.6806 23.4143 26.6805 23.0689 26.6923 22.7294C26.6923 22.384 26.6923 22.0445 26.8445 21.7283C26.9557 21.5 27.1372 21.3537 27.4007 21.3829C27.6466 21.4122 27.793 21.5761 27.8398 21.7986C27.992 22.5245 27.8222 23.1918 27.4241 23.8006C27.2367 24.0875 26.9967 24.0289 26.8445 23.7304ZM27.7461 18.9185C27.6583 19.176 27.5178 19.4453 27.1782 19.3868C26.8738 19.3341 26.7976 19.0589 26.7859 18.8072C26.7391 18.0813 26.8269 17.373 27.0143 16.6706C27.108 16.3193 27.2426 15.9739 27.6817 16.0325C28.1442 16.091 28.1794 16.4832 28.1852 16.7174C28.1325 17.5662 27.9803 18.2511 27.752 18.9185H27.7461ZM27.8515 7.93066C27.91 7.42722 28.1208 6.98818 28.6068 6.72475C28.8878 6.57255 29.1688 6.60767 29.3796 6.8711C29.5845 7.12282 29.5201 7.38624 29.3269 7.60869C29.0517 7.91895 28.7121 8.15896 28.3257 8.31702C27.9803 8.45751 27.8691 8.27018 27.8515 7.93066ZM28.9346 12.4616C28.9698 12.3621 29.0751 12.286 29.163 12.286C29.2918 12.286 29.3152 12.3738 29.2508 12.6899C29.163 13.1699 29.1103 13.2636 28.9698 13.2636C28.8585 13.2636 28.841 12.7192 28.9346 12.4616ZM30.129 22.2142C29.9826 22.1908 29.9299 22.062 29.9007 21.9391C29.8362 21.6757 29.7836 21.4122 29.7367 21.2015C29.807 20.7156 29.8245 20.2824 29.9826 19.8726C30.0704 19.6443 30.1992 19.4453 30.4861 19.4687C30.7554 19.4921 30.8374 19.7029 30.8725 19.9195C30.9955 20.6571 30.8316 21.3478 30.4686 21.9976C30.3983 22.1264 30.2929 22.2376 30.1231 22.2142H30.129ZM30.2988 17.0803C30.2168 17.2208 30.1056 17.3613 29.9182 17.332C29.7543 17.3086 29.7016 17.1506 29.6548 17.0159C29.4557 16.4715 29.4674 15.9154 29.5728 15.3593C29.643 15.0022 29.7484 14.5866 30.2285 14.6509C30.7086 14.7153 30.6325 15.1778 30.7027 15.4998C30.6208 16.05 30.5915 16.6003 30.3046 17.0803H30.2988ZM30.3046 8.63312C30.2402 9.1951 29.8772 9.69269 29.5728 10.2195C29.5494 10.2664 29.444 10.2956 29.3913 10.2839C29.3503 10.2722 29.3269 10.2488 29.3093 10.2195C29.2566 10.2195 29.1981 10.1669 29.1981 10.1083C29.1981 9.91513 29.6138 8.51019 29.7426 8.25847C29.8597 8.03603 30.0177 8.01847 30.1056 8.18238C30.1173 8.18238 30.1348 8.18238 30.1466 8.18823C30.3046 8.25262 30.3105 8.41068 30.3105 8.62727L30.3046 8.63312ZM28.6712 5.34908C28.7356 5.59494 28.5892 5.76471 28.396 5.88179C27.8925 6.17448 27.3246 6.29741 26.7684 6.43791C26.4464 6.51986 26.4581 6.29742 26.5342 6.07497C26.704 5.6008 27.6115 4.99199 28.1677 5.0037C28.3726 5.01541 28.6009 5.0798 28.677 5.34908H28.6712ZM25.0178 8.22335C25.2637 7.97749 25.5096 7.73748 25.8316 7.59699C26.101 7.47991 26.4112 7.22233 26.663 7.55601C26.8738 7.84285 26.6396 8.11799 26.4464 8.32873C25.9956 8.83216 25.4569 9.23023 24.8246 9.48195C24.5026 9.61074 24.3855 9.47023 24.4089 9.13656C24.4616 8.74435 24.7544 8.49263 25.0237 8.22335H25.0178ZM21.5694 34.0742C21.4347 33.9806 21.505 33.8459 21.5577 33.7347C21.786 33.2196 22.0788 32.7454 22.5354 32.4117C22.7696 32.242 23.0097 32.2244 23.0975 32.6166C23.0682 32.7044 23.0506 32.8157 22.9921 32.9035C22.7111 33.3484 22.3305 33.6996 21.9148 34.0157C21.8153 34.0918 21.6865 34.1621 21.5694 34.0742ZM8.17965 34.5425C7.96302 34.4664 7.72299 33.9689 7.7991 33.7698C7.89863 33.5181 8.06256 33.5415 8.20307 33.7932C8.3553 34.0977 8.34358 34.5952 8.17965 34.5425ZM6.0017 27.3949C6.07196 27.1666 6.15392 26.9149 6.44666 26.9208C6.74525 26.9208 6.80965 27.1842 6.87405 27.4125C7.09067 28.2086 6.9326 29.0399 7.08482 29.8653C6.96773 30.0877 7.17264 30.5209 6.78623 30.5736C6.47593 30.6204 6.30029 30.275 6.21247 30.0058C5.93145 29.1569 5.72067 28.2964 6.00755 27.4008L6.0017 27.3949ZM5.1996 31.8556C4.7078 31.2819 4.579 30.5736 4.49704 30.0116C4.49704 29.795 4.49118 29.7424 4.49704 29.6897C4.54387 29.4145 4.5146 29.0106 4.84832 28.9813C5.20546 28.9462 5.15862 29.356 5.21131 29.596C5.35768 30.2809 5.48648 30.9717 5.60358 31.6624C5.627 31.7912 5.73824 31.9668 5.54504 32.0429C5.3811 32.1073 5.28157 31.9493 5.19375 31.8498L5.1996 31.8556ZM24.6607 15.1017C24.4558 15.1017 24.4733 14.8968 24.7251 14.4695C24.93 14.13 25.293 14.0012 25.4335 14.2178C25.5096 14.3583 24.8598 15.0959 24.6607 15.0959V15.1017ZM24.8422 20.6278C24.8656 22.9986 24.6548 25.3226 23.8761 27.5764C23.1911 29.5609 22.0729 31.2702 20.3575 32.4761C18.1385 34.0391 15.6971 34.2499 13.1093 33.4362C9.95949 32.441 8.34359 30.2048 7.91034 27.0671C7.60589 24.8777 8.19136 22.8523 9.35059 20.9615C11.0075 18.257 13.5016 16.8111 16.4524 15.9856C17.6819 15.6403 18.9289 15.4529 20.0999 15.5583C21.1303 15.529 22.0495 15.5407 22.9628 15.7456C23.3024 15.8217 23.519 15.9856 23.6654 16.2783C24.3679 17.6482 24.8246 19.0648 24.8363 20.6336L24.8422 20.6278ZM22.2017 14.1241C21.9968 14.1241 22.149 13.7436 22.4827 13.4041C22.875 13.0119 23.0916 12.9358 23.0916 13.1875C23.0916 13.3514 22.3539 14.1241 22.2017 14.1241ZM10.1644 36.527C10.545 36.9427 10.5567 37.0597 10.2171 37.0597C9.87752 37.0597 9.39158 36.6675 9.39158 36.3982C9.39158 36.0704 9.80727 36.1465 10.1644 36.527ZM13.0098 35.1455C13.6948 35.0928 14.3798 35.046 15.0648 35.0284C15.2756 35.0226 15.5332 35.087 15.5566 35.3563C15.58 35.6197 15.3458 35.7133 15.1409 35.7836C14.7779 35.9065 14.4091 35.9826 14.0227 35.9768C13.6597 35.9768 13.3025 35.9299 12.963 35.7894C12.8049 35.725 12.6702 35.6314 12.6761 35.4382C12.6878 35.2333 12.8459 35.1572 13.0098 35.1455ZM13.4313 37.932C13.285 37.8559 13.1269 37.7739 13.1445 37.5807C13.162 37.3876 13.3318 37.329 13.4899 37.288C13.8939 37.1885 14.3096 37.1593 14.7252 37.1358C14.9243 37.1358 15.1233 37.1358 15.3165 37.1358C15.4336 37.1358 15.58 37.0656 15.6561 37.2178C15.7322 37.3758 15.6269 37.4929 15.5273 37.5983C15.1351 38.0081 13.9466 38.1954 13.4255 37.932H13.4313ZM25.0705 27.5588C25.1583 27.4183 25.3281 27.3481 25.5038 27.4242C25.7204 27.5179 25.7438 27.7227 25.7672 27.9862C25.6326 28.6067 25.4218 29.2623 24.971 29.8009C24.7309 30.0877 24.4967 30.0116 24.4675 29.6487C24.3972 28.8818 24.6724 28.1969 25.0764 27.5588H25.0705ZM24.7251 11.4137C24.7251 11.4137 24.7602 11.4079 24.7778 11.402C24.9359 11.2908 25.0237 11.2908 25.0881 11.3845C25.2286 11.402 25.3633 11.4606 25.4628 11.6069C25.6326 11.8469 25.5799 12.1045 25.4335 12.3211C25.1291 12.7777 24.7251 13.1465 24.2274 13.3748C23.841 13.5504 23.56 13.3748 23.5483 12.9826C23.5307 12.5026 24.2684 11.5074 24.7309 11.4137H24.7251ZM21.4172 12.0986C21.4523 11.6245 22.2778 10.682 22.752 10.5708C23.1443 10.4771 23.437 10.7113 23.4312 11.1093C23.4312 11.3142 23.3551 11.5074 23.2087 11.642C22.8399 11.9874 22.4476 12.3094 21.9792 12.5026C21.587 12.6665 21.3879 12.5084 21.4172 12.0986ZM20.2345 13.2753C20.5624 13.3397 20.6912 13.5446 20.5858 13.8724C20.4628 14.2529 19.7544 14.7739 19.2978 14.7739C19.0519 14.7622 18.9055 14.5866 18.9231 14.2822C18.9582 13.7846 19.7544 13.1758 20.2345 13.2753ZM17.1374 7.94822C17.2135 7.87212 17.4184 7.81943 17.6057 7.83699C17.8751 7.86041 17.9453 7.9248 17.9629 8.17652C18.0039 8.54532 17.8224 8.79703 17.5062 8.79703C17.0613 8.79703 16.8329 8.25262 17.1374 7.94822ZM7.50636 36.41C7.1785 36.41 6.66914 35.4967 6.84478 35.2275C6.99701 34.964 7.34243 35.1104 7.50636 35.4909C7.69957 35.9709 7.69957 36.4158 7.50636 36.4158V36.41ZM16.95 36.4392C17.3072 36.4568 17.6584 36.527 18.0097 36.5914C18.1502 36.6148 18.2966 36.6792 18.32 36.849C18.3493 37.0422 18.2088 37.1417 18.0683 37.2237C17.8107 37.37 17.5296 37.411 17.1081 37.3993C17.1081 37.3993 16.9852 37.3993 16.8622 37.3758C16.5812 37.3173 16.3294 37.2002 16.3587 36.8549C16.388 36.5036 16.6748 36.4334 16.95 36.4451V36.4392ZM23.238 35.4792C22.8984 36.0002 22.389 36.2929 21.8504 36.4334C21.546 36.4509 21.4347 36.369 21.5518 36.1231C21.8036 35.6138 22.1139 35.1572 22.5998 34.8411C22.8164 34.7006 23.0799 34.6069 23.2907 34.8411C23.4956 35.0577 23.3609 35.2919 23.2321 35.485L23.238 35.4792ZM24.7309 33.1318C24.5319 33.202 24.4031 33.1493 24.4382 32.9152C24.526 32.242 24.7602 31.6273 25.1525 31.077C25.293 30.8839 25.5038 30.8253 25.7321 30.9073C25.9663 30.9951 26.0482 31.1883 26.0424 31.4224C26.0424 31.8439 25.1642 32.9854 24.7309 33.1318ZM28.1442 28.1325C28.0096 28.355 27.8691 28.6945 27.5646 28.6125C27.2543 28.5247 27.3656 28.1618 27.3246 27.9101C27.3656 27.3774 27.4768 26.8681 27.6817 26.3881C27.8222 26.0544 28.0447 25.75 28.4604 25.9022C28.8527 26.0485 28.7941 26.429 28.718 26.7451C28.6009 27.2369 28.4077 27.7052 28.1442 28.1384V28.1325ZM31.2589 8.25262C31.2941 8.25262 31.3175 8.30531 31.3233 8.41653C31.6102 8.43995 31.4287 8.73849 31.5107 8.87899C31.3995 9.52292 31.417 10.161 31.2004 10.7581C31.1419 10.922 31.0716 11.1386 30.8433 11.0801C30.732 11.0508 30.7027 10.9923 30.7086 10.9279C30.6501 10.8635 30.6793 10.6176 30.7789 9.88001C30.855 9.28291 30.9721 8.6624 31.0306 8.52191C31.0833 8.36971 31.1945 8.25262 31.2589 8.25262Z" fill="#F0D632"/>
<path id="Vector_13" d="M27.6816 16.0383C27.2484 15.9797 27.1079 16.3251 27.0142 16.6763C26.8268 17.3788 26.739 18.0871 26.7858 18.813C26.8034 19.0647 26.8737 19.3399 27.1781 19.3926C27.5177 19.4511 27.6582 19.1818 27.746 18.9242C27.9744 18.2569 28.1266 17.572 28.1793 16.7232C28.1734 16.489 28.1383 16.1027 27.6758 16.0383H27.6816Z" fill="#ECB72B"/>
<path id="Vector_14" d="M6.8037 30.5791C7.19011 30.5264 6.98519 30.0932 7.10228 29.8708C6.95006 29.0454 7.10814 28.2141 6.89151 27.418C6.82711 27.1897 6.76271 26.9321 6.46412 26.9263C6.17139 26.9263 6.09528 27.178 6.01917 27.4004C5.73229 28.2961 5.94305 29.1566 6.22408 30.0054C6.31775 30.2747 6.48755 30.6201 6.79785 30.5733L6.8037 30.5791Z" fill="#ECB72B"/>
<path id="Vector_15" d="M24.2392 13.398C24.7427 13.1697 25.1408 12.801 25.4452 12.3443C25.5916 12.1277 25.6443 11.8702 25.4745 11.6302C25.3691 11.4838 25.2403 11.4253 25.0998 11.4077C25.1115 11.4311 25.1291 11.4487 25.1408 11.478C25.2403 11.7589 24.3445 12.52 24.1513 12.3268C24.0635 12.239 24.3679 11.7531 24.6724 11.5131C24.7192 11.4721 24.7543 11.4545 24.7895 11.4253C24.7719 11.4253 24.7544 11.4311 24.7368 11.437C24.2743 11.5365 23.5366 12.5258 23.5541 13.0058C23.5659 13.398 23.8527 13.5795 24.2333 13.398H24.2392Z" fill="#ECB72B"/>
<path id="Vector_16" d="M28.472 25.9138C28.0563 25.7616 27.8338 26.066 27.6933 26.3997C27.4884 26.8856 27.383 27.3949 27.3362 27.9217C27.3772 28.1734 27.2659 28.5423 27.5762 28.6242C27.8748 28.7062 28.0212 28.3666 28.1558 28.1442C28.4193 27.711 28.6125 27.2427 28.7296 26.751C28.8057 26.4348 28.8584 26.0543 28.472 25.908V25.9138Z" fill="#ECB72B"/>
<path id="Vector_17" d="M26.6571 11.349C27.1723 11.1968 28.0798 10.0436 28.0739 9.53434C28.0681 9.11286 27.7109 8.90212 27.3128 9.07773C26.8386 9.28848 26.1828 10.5354 26.2648 11.0622C26.2999 11.2964 26.3936 11.4251 26.6629 11.349H26.6571Z" fill="#ECB72B"/>
<path id="Vector_18" d="M24.8363 9.49342C25.4686 9.2417 26.0073 8.83778 26.4581 8.34019C26.6454 8.12945 26.8855 7.85432 26.6747 7.56748C26.4229 7.23381 26.1185 7.49138 25.8433 7.60846C25.5213 7.74895 25.2754 7.98896 25.0295 8.23483C24.7602 8.50411 24.4675 8.75583 24.4148 9.14804C24.3914 9.48171 24.5143 9.6222 24.8305 9.49342H24.8363Z" fill="#ECB72B"/>
<path id="Vector_19" d="M30.2344 14.6565C29.7543 14.5921 29.6489 15.0136 29.5786 15.3648C29.4733 15.9209 29.4615 16.477 29.6606 17.0215C29.7074 17.1561 29.7601 17.3142 29.9241 17.3376C30.1114 17.3668 30.2227 17.2263 30.3046 17.0858C30.5915 16.6058 30.6208 16.0556 30.7027 15.5053C30.6325 15.1833 30.7086 14.7209 30.2285 14.6565H30.2344Z" fill="#ECB72B"/>
<path id="Vector_20" d="M27.4299 23.8003C27.828 23.1973 27.9978 22.5241 27.8455 21.7983C27.7987 21.5758 27.6465 21.406 27.4064 21.3826C27.143 21.3534 26.9615 21.4997 26.8503 21.728C26.698 22.0441 26.6922 22.3895 26.698 22.729C26.6922 23.0744 26.6922 23.4139 26.8503 23.73C27.0025 24.0286 27.2425 24.0871 27.4299 23.8003Z" fill="#ECB72B"/>
<path id="Vector_21" d="M21.9968 12.5259C22.4651 12.3268 22.8574 12.0107 23.2263 11.6653C23.3726 11.5248 23.4429 11.3375 23.4487 11.1326C23.4487 10.7346 23.156 10.5004 22.7696 10.5941C22.2954 10.7053 21.4757 11.6478 21.4347 12.1219C21.4054 12.5376 21.6045 12.6956 21.9968 12.5259Z" fill="#ECB72B"/>
<path id="Vector_22" d="M30.8842 19.9252C30.8491 19.7086 30.7671 19.4979 30.4978 19.4745C30.2109 19.4511 30.0821 19.656 29.9943 19.8784C29.8362 20.2882 29.8128 20.7214 29.7484 21.2072C29.7953 21.418 29.8479 21.6814 29.9123 21.9448C29.9416 22.0678 29.9943 22.1966 30.1407 22.22C30.3046 22.2492 30.4159 22.1322 30.4861 22.0034C30.8433 21.3536 31.0072 20.6628 30.8901 19.9252H30.8842Z" fill="#ECB72B"/>
<path id="Vector_23" d="M12.9804 35.8068C13.32 35.9473 13.6771 35.9941 14.0401 35.9941C14.4265 36 14.7954 35.9239 15.1584 35.8009C15.3692 35.7307 15.5975 35.637 15.5741 35.3736C15.5506 35.1043 15.293 35.0399 15.0823 35.0458C14.3973 35.0633 13.7123 35.1101 13.0273 35.1628C12.8633 35.1745 12.6994 35.2506 12.6936 35.4555C12.6818 35.6487 12.8224 35.7424 12.9804 35.8068Z" fill="#ECB72B"/>
<path id="Vector_24" d="M24.9885 29.8183C25.4393 29.2797 25.6442 28.6241 25.7847 28.0036C25.7613 27.7401 25.7379 27.5352 25.5213 27.4416C25.3515 27.3655 25.1817 27.4357 25.088 27.5762C24.684 28.2143 24.4147 28.8992 24.4791 29.6661C24.5084 30.0232 24.7426 30.1051 24.9826 29.8183H24.9885Z" fill="#ECB72B"/>
<path id="Vector_25" d="M25.7496 30.9248C25.5213 30.837 25.3105 30.9014 25.17 31.0946C24.7719 31.6448 24.5435 32.2653 24.4557 32.9327C24.4264 33.1669 24.5494 33.2196 24.7484 33.1493C25.1758 33.003 26.054 31.8614 26.0599 31.44C26.0599 31.2058 25.9779 31.0126 25.7496 30.9248Z" fill="#ECB72B"/>
<path id="Vector_26" d="M5.62697 31.6856C5.50402 30.9949 5.38107 30.3041 5.2347 29.6192C5.18201 29.3792 5.22884 28.9635 4.8717 29.0045C4.53798 29.0397 4.56726 29.4377 4.52042 29.7128C4.51457 29.7655 4.52042 29.8182 4.52042 30.0348C4.60239 30.5968 4.73705 31.2993 5.22299 31.8788C5.31081 31.9842 5.41033 32.1422 5.57427 32.072C5.76162 31.9959 5.65624 31.8144 5.63282 31.6915L5.62697 31.6856Z" fill="#ECB72B"/>
<path id="Vector_27" d="M26.5458 6.0807C26.4697 6.2973 26.458 6.51975 26.78 6.44365C27.3362 6.30316 27.9041 6.18023 28.4076 5.88753C28.6067 5.77631 28.7531 5.60654 28.6828 5.35482C28.6125 5.08554 28.3842 5.02115 28.1734 5.00944C27.6172 4.99774 26.7098 5.60654 26.54 6.0807H26.5458Z" fill="#ECB72B"/>
<path id="Vector_28" d="M29.3327 7.60838C29.5259 7.39179 29.5903 7.12837 29.3854 6.87079C29.1746 6.60737 28.8936 6.57224 28.6126 6.72445C28.1266 6.98202 27.9158 7.42691 27.8573 7.93035C27.869 8.26988 27.9802 8.45135 28.3315 8.31671C28.7179 8.15866 29.0575 7.91864 29.3327 7.60838Z" fill="#ECB72B"/>
<path id="Vector_29" d="M22.6174 34.8585C22.1373 35.1746 21.8211 35.6312 21.5694 36.1405C21.4464 36.3864 21.5635 36.4742 21.868 36.4508C22.4066 36.3044 22.9101 36.0176 23.2556 35.4966C23.3844 35.3034 23.519 35.0692 23.3141 34.8527C23.0975 34.6244 22.834 34.718 22.6233 34.8527L22.6174 34.8585Z" fill="#ECB72B"/>
<path id="Vector_30" d="M15.6794 37.2412C15.6033 37.089 15.4628 37.1592 15.3399 37.1592C15.1408 37.1592 14.9417 37.1592 14.7485 37.1592C14.3329 37.1827 13.9172 37.2119 13.5132 37.3115C13.3551 37.3524 13.1853 37.411 13.1678 37.6042C13.1444 37.7973 13.3083 37.8793 13.4547 37.9554C13.9757 38.2188 15.1584 38.0315 15.5565 37.6217C15.656 37.5163 15.7614 37.3993 15.6853 37.2412H15.6794Z" fill="#ECB72B"/>
<path id="Vector_31" d="M19.3153 14.7913C19.772 14.7913 20.4804 14.2703 20.6034 13.8898C20.7088 13.562 20.5858 13.3571 20.2521 13.2927C19.772 13.1932 18.9758 13.8078 18.9406 14.2996C18.9231 14.604 19.0694 14.7796 19.3153 14.7913Z" fill="#ECB72B"/>
<path id="Vector_32" d="M18.4722 38.2889C18.3903 38.1074 18.1854 38.1426 18.0331 38.166C17.5882 38.2362 17.1432 38.3182 16.7041 38.4177C16.4641 38.4762 16.1479 38.5406 16.1772 38.8626C16.2006 39.0558 16.3001 39.1436 16.4407 39.1963C16.5695 39.2431 16.7275 39.2489 16.8739 39.2665C17.2662 39.2138 17.6584 39.1319 18.0039 38.9153C18.0858 38.8626 18.1678 38.8099 18.2439 38.7397C18.3727 38.6226 18.5542 38.4997 18.4664 38.2889H18.4722Z" fill="#ECB72B"/>
<path id="Vector_33" d="M16.8797 37.3875C17.0026 37.4168 17.1314 37.4109 17.1256 37.4109C17.5471 37.4227 17.8282 37.3817 18.0858 37.2353C18.2263 37.1534 18.3668 37.0539 18.3375 36.8607C18.3141 36.6909 18.1677 36.6324 18.0272 36.6031C17.6759 36.5387 17.3188 36.4685 16.9675 36.4509C16.6923 36.4392 16.4055 36.5094 16.3762 36.8607C16.3469 37.2061 16.6045 37.3173 16.8797 37.3817V37.3875Z" fill="#ECB72B"/>
<path id="Vector_34" d="M23.0096 32.9149C23.0681 32.8271 23.0798 32.7159 23.1149 32.6281C23.0271 32.2359 22.7871 32.2476 22.5529 32.4232C22.0962 32.7569 21.7976 33.2311 21.5751 33.7462C21.5283 33.8574 21.4581 33.9921 21.5869 34.0857C21.704 34.1735 21.8328 34.1033 21.9323 34.0272C22.348 33.7111 22.7285 33.3598 23.0096 32.9149Z" fill="#ECB72B"/>
<path id="Vector_35" d="M9.77206 23.9878C9.98869 25.4512 10.9664 26.2474 12.4418 26.3235C15.2521 26.4757 17.1958 24.9829 18.8996 23.016C20.3106 21.3886 21.0424 19.4744 21.2707 17.3494C21.2883 17.168 21.3117 16.9806 21.3995 16.8284C20.3106 16.7231 19.2274 16.7699 18.1502 16.9455C15.5214 17.3846 13.3727 18.6549 11.4992 20.5574C10.6678 21.4003 10.0648 22.5419 9.7428 23.7946C9.75451 23.8531 9.76621 23.9175 9.77206 23.9761V23.9878ZM12.313 22.7058C12.1374 22.7292 11.9325 22.6823 11.8446 22.6062C11.6573 22.454 11.6514 22.0501 11.8212 21.8804C11.8973 21.8043 12.0613 21.7516 12.1901 21.7516C12.758 21.7516 12.8634 22.6414 12.3072 22.7058H12.313ZM18.6068 18.5729C18.5307 18.7895 18.4019 18.8656 17.43 19.2929C17.0846 19.4451 16.3411 19.8783 15.7673 20.2822C14.6783 21.0433 14.1163 21.2364 13.8762 20.9437C13.5367 20.5398 14.0694 19.7905 15.2579 18.9885C15.6619 18.7075 16.2825 18.368 16.6397 18.2158C17.4417 17.888 18.2146 17.8587 18.478 18.1514C18.5951 18.2802 18.642 18.4441 18.6068 18.5729Z" fill="#BE8E21"/>
<path id="Vector_36" d="M24.04 22.1964C24.0693 21.9622 24.0752 21.7222 24.0927 21.4822C24.1454 20.6392 23.9815 19.8782 23.6946 19.1582C23.9112 20.1358 24.0049 21.1485 24.04 22.1964Z" fill="#CFD632"/>
<path id="Vector_37" d="M13.7065 30.7666C15.1995 30.509 16.2943 29.5899 17.3364 28.6123C17.9161 28.0738 18.3903 27.4181 18.9172 26.8269C20.7614 24.7604 21.4933 22.2608 21.786 19.5797C21.8387 19.0939 21.9207 18.6138 22.0261 18.1397C22.0905 17.8587 22.2603 17.607 22.5823 17.5718C22.5179 17.4548 22.4535 17.3377 22.3832 17.2265C22.272 17.045 22.1432 16.9338 21.9207 16.8986C21.745 16.8752 21.5694 16.8635 21.3879 16.8459C21.3059 16.9923 21.2825 17.1796 21.2591 17.3669C21.0308 19.4919 20.2989 21.4062 18.8879 23.0335C17.1842 25.0005 15.2404 26.4932 12.4302 26.341C10.9548 26.259 9.97706 25.4688 9.76044 24.0053C9.74873 23.9409 9.74288 23.8824 9.73117 23.8238C9.11057 26.2415 9.57894 29.0689 11.6983 30.9832C12.0848 31.3344 12.559 31.6271 13.0742 31.8554C12.8517 31.3227 13.0742 30.8895 13.7007 30.7841L13.7065 30.7666Z" fill="#866618"/>
<path id="Vector_38" d="M17.8926 31.8906C19.1923 31.2291 20.375 30.0993 21.3117 28.6768C20.3633 29.9178 19.2392 31.0008 17.8926 31.8906Z" fill="#866618"/>
<path id="Vector_39" d="M22.0319 18.1337C21.9265 18.6079 21.8446 19.0938 21.7919 19.5738C21.4991 22.2549 20.7673 24.7545 18.9231 26.821C18.3961 27.4181 17.9219 28.0678 17.3423 28.6064C16.2943 29.584 15.1995 30.5031 13.7124 30.7606C13.0918 30.866 12.8693 31.3051 13.0859 31.8319C13.5484 32.0427 14.0519 32.1948 14.5671 32.2944C15.0589 32.3763 15.5683 32.4056 16.1011 32.3822C16.8739 32.3412 17.1315 32.271 17.8107 31.9373C17.8399 31.9256 17.8692 31.908 17.8926 31.8904C19.2392 31.0065 20.3633 29.9177 21.3118 28.6766C22.0846 27.5117 22.6935 26.1478 23.0682 24.6843C23.5951 22.6003 23.3609 19.2343 22.5998 17.5835C22.5998 17.5835 22.594 17.5718 22.5881 17.5659C22.2661 17.601 22.0963 17.8469 22.0319 18.1337Z" fill="#866618"/>
<path id="Vector_40" opacity="0.3" d="M22.0319 18.1337C21.9265 18.6079 21.8446 19.0938 21.7919 19.5738C21.4991 22.2549 20.7673 24.7545 18.9231 26.821C18.3961 27.4181 17.9219 28.0678 17.3423 28.6064C16.2943 29.584 15.1995 30.5031 13.7124 30.7606C13.0918 30.866 12.8693 31.3051 13.0859 31.8319C13.5484 32.0427 14.0519 32.1948 14.5671 32.2944C15.0589 32.3763 15.5683 32.4056 16.1011 32.3822C16.8739 32.3412 17.1315 32.271 17.8107 31.9373C17.8399 31.9256 17.8692 31.908 17.8926 31.8904C19.2392 31.0065 20.3633 29.9177 21.3118 28.6766C22.0846 27.5117 22.6935 26.1478 23.0682 24.6843C23.5951 22.6003 23.3609 19.2343 22.5998 17.5835C22.5998 17.5835 22.594 17.5718 22.5881 17.5659C22.2661 17.601 22.0963 17.8469 22.0319 18.1337Z" fill="#3D2308"/>
<path id="Vector_41" d="M19.4734 7.25135C19.6139 7.21623 20.334 6.78305 21.0717 6.29717C21.8094 5.79959 23.1267 5.00345 23.9756 4.53514C24.8363 4.05512 25.5506 3.59851 25.5974 3.5107C25.6618 3.31752 25.3339 3.0541 25.0295 3.06581C24.9592 3.06581 24.8304 3.08922 24.6899 3.11849C24.567 3.14776 24.4265 3.18288 24.3035 3.21801C23.5131 3.46972 22.149 4.18976 20.9956 4.9215C20.2345 5.40152 19.5729 5.88739 19.2275 6.24448C18.5425 6.94109 18.6713 7.45039 19.4792 7.25721L19.4734 7.25135Z" fill="white"/>
<path id="Vector_42" d="M17.5237 8.81439C17.8399 8.81439 18.0214 8.56267 17.9804 8.19387C17.957 7.94215 17.8925 7.87776 17.6232 7.85434C17.4359 7.83093 17.231 7.88947 17.1549 7.96557C16.8504 8.26997 17.0787 8.81439 17.5237 8.81439Z" fill="white"/>
<path id="Vector_43" d="M16.6455 18.2159C16.2883 18.3681 15.6677 18.7076 15.2638 18.9886C14.0811 19.7906 13.5483 20.5458 13.8821 20.9438C14.1221 21.2365 14.6841 21.0434 15.7731 20.2824C16.3469 19.8784 17.0904 19.4452 17.4359 19.293C18.4019 18.8716 18.5366 18.7955 18.6127 18.573C18.6478 18.4442 18.601 18.2803 18.4839 18.1515C18.2204 17.8588 17.4534 17.8881 16.6455 18.2159Z" fill="white"/>
<path id="Vector_44" d="M12.196 21.7515C12.0672 21.7515 11.9032 21.8042 11.8271 21.8803C11.6515 22.0559 11.6632 22.4539 11.8505 22.6061C11.9384 22.6822 12.1433 22.7232 12.3189 22.7057C12.8751 22.6413 12.7639 21.7515 12.2018 21.7515H12.196Z" fill="white"/>
<path id="Vector_45" d="M28.9521 27.3715C28.6535 27.7227 26.8151 31.317 26.3819 32.3766C26.3292 32.5053 26.2941 32.6049 26.2882 32.6458C26.2473 33.0029 26.2648 33.0615 26.4522 33.0615C26.8561 33.0615 27.6348 32.0604 28.2554 30.755C29.2331 28.7237 29.6781 27.5237 29.5259 27.3422C29.5025 27.3129 29.479 27.3012 29.4556 27.2778C29.2975 27.149 29.1278 27.1724 28.9521 27.3715Z" fill="white"/>
<path id="Vector_46" d="M25.5037 34.9932C25.8198 34.4195 25.1992 34.0039 24.7543 34.4839C24.485 34.7766 24.4616 35.0517 24.6782 35.2332C24.9299 35.4264 25.3222 35.321 25.5037 34.9932Z" fill="white"/>
<path id="Vector_47" d="M34.8595 16.565C34.8595 15.7279 34.8595 14.9493 34.8478 14.2C34.8478 14.0185 34.842 13.837 34.8361 13.6556C34.8068 12.6428 34.7541 11.6828 34.6605 10.7228C34.4731 8.85537 33.7179 7.28066 32.2893 5.99866C31.5985 5.37814 30.8607 4.74592 30.4978 3.86783C30.3924 3.60441 30.3104 3.32342 30.287 3.00731C30.2811 2.9195 30.2636 2.8434 30.246 2.76144C30.0587 1.63749 29.3327 0.970142 28.2495 0.601346C28.1442 0.566222 28.0329 0.531103 27.9275 0.49598C27.4475 0.343778 26.9615 0.214995 26.4814 0.13304C26.4287 0.127186 26.3819 0.115473 26.3292 0.109619C26.5868 0.150597 26.8561 0.209137 27.1372 0.285238C28.9404 0.753552 29.7015 1.28626 29.9533 2.28728C30.006 2.50387 30.1406 3.00731 30.2343 3.39367C30.3982 4.0376 30.5036 4.20736 31.2472 5.02691C31.6921 5.5245 32.2249 6.05135 32.4123 6.18013C33.0856 6.63674 34.1218 8.57438 34.3912 9.86809C34.6722 11.1969 34.6605 19.3924 34.3912 21.3827C34.0984 23.4023 33.8232 24.6434 33.2612 26.382C31.4345 32.0135 29.239 35.4907 25.7145 38.3532C22.6817 40.8236 20.5038 41.9944 18.115 42.4861C16.224 42.8666 13.1444 42.5212 10.3927 41.6256C8.05663 40.8646 7.19599 40.367 5.50983 38.845C3.02158 36.5795 1.62816 34.8702 0.837769 32.915C0.995846 33.313 1.17149 33.7052 1.3764 34.0916C1.38811 34.1092 1.39982 34.1326 1.40568 34.1501C1.55204 34.4194 1.70427 34.6828 1.87406 34.9521C2.10239 35.3092 2.34829 35.6429 2.6059 35.9649C3.54265 37.1473 4.63748 38.1542 5.76159 39.1552C6.06018 39.4187 6.35877 39.6762 6.66907 39.9221C7.16672 40.3143 7.68194 40.6772 8.26741 40.9465C8.54259 41.0753 8.8236 41.1924 9.11048 41.3095C9.54373 41.4851 9.97698 41.6432 10.4161 41.7836C11.7275 42.211 13.08 42.5037 14.4617 42.7086C16.8153 43.0539 19.0284 42.7086 21.1654 41.6783C22.4475 41.0577 23.5892 40.2324 24.7309 39.4011C27.5353 37.3639 29.7835 34.8526 31.335 31.7383C33.7179 26.9498 34.9473 21.8979 34.8595 16.8928C34.8595 16.8401 34.8595 16.7874 34.8595 16.7347C34.8595 16.6879 34.8595 16.6352 34.8595 16.5884V16.565Z" fill="#6D3A25"/>
<path id="Vector_48" d="M9.13982 40.6303C9.11055 40.6186 9.08128 40.6069 9.052 40.5894C9.08128 40.6011 9.11055 40.6128 9.13982 40.6303Z" fill="#6D3A25"/>
<path id="Vector_49" d="M33.7121 10.2252C33.6887 10.114 33.6535 9.97935 33.6067 9.82715C33.6477 9.97935 33.6886 10.1257 33.7179 10.2779C33.7179 10.2603 33.7121 10.2369 33.7062 10.2194L33.7121 10.2252Z" fill="#6D3A25"/>
<path id="Vector_50" d="M7.91612 39.9923C7.69364 39.8576 7.47701 39.7113 7.26624 39.5591C7.48286 39.7171 7.69949 39.8576 7.91612 39.9923Z" fill="#6D3A25"/>
<path id="Vector_51" d="M8.6304 40.3904C8.48404 40.3143 8.34352 40.2382 8.203 40.1562C8.34352 40.2382 8.48989 40.3143 8.6304 40.3904Z" fill="#6D3A25"/>
<path id="Vector_52" d="M22.6876 1.46767C20.5565 2.54479 18.7708 3.69801 15.176 6.303C10.4922 9.70413 6.85647 13.2399 4.1633 16.9923C3.39048 18.0811 2.20782 20.1241 1.85654 20.9612C1.17154 22.6706 0.527517 27.5469 0.738287 29.584C0.943202 31.627 1.53453 33.1491 2.91039 35.2155C3.73591 36.4565 4.08719 36.837 5.89044 38.4468C6.35882 38.8683 6.79792 39.2254 7.23117 39.5415C6.97941 39.3542 6.73352 39.1552 6.49348 38.9386C4.95954 37.5512 3.47244 36.1521 2.41274 34.3257C1.18325 32.2066 0.709017 29.9587 0.878804 27.5527C0.990043 25.9663 1.26521 24.3916 1.53453 22.8228C1.82727 21.0958 2.69962 19.6324 3.63052 18.204C5.21129 15.7863 7.10237 13.6263 9.15737 11.5891C12.0203 8.75579 15.2873 6.4435 18.5776 4.16633C20.3223 2.96042 22.1139 1.8072 24.1103 1.06375C25.9136 0.390553 27.5529 1.04033 29.0985 1.96525C29.1746 2.01208 29.2449 2.07063 29.2976 2.13502C29.2742 2.08234 29.2566 2.04135 29.239 2.01208C29.0107 1.6667 27.9569 1.13985 26.9791 0.905695C25.0998 0.437381 24.6314 0.501775 22.6935 1.47353L22.6876 1.46767Z" fill="#6D3A25"/>
<path id="Vector_53" d="M29.6429 3.24146C29.6547 3.32926 29.6781 3.41707 29.7074 3.50488C29.6898 3.42878 29.6664 3.34097 29.6429 3.24146Z" fill="#6D3A25"/>
<path id="Vector_54" d="M31.5341 7.36262C31.5341 7.36262 31.5868 7.32164 31.616 7.29822C32.1254 6.84747 32.1605 6.85333 32.5411 7.43287C32.6289 7.56751 32.705 7.70214 32.7811 7.83678C32.5352 7.34505 32.301 6.94699 32.1488 6.81235C31.9322 6.61917 31.9205 6.61917 31.5516 7.01724C31.2413 7.34506 30.9486 7.45043 30.7788 7.33921C30.9427 7.62019 31.1945 7.62604 31.5341 7.36262Z" fill="#6D3A25"/>
<path id="Vector_55" d="M29.5962 5.73529C29.602 5.69432 29.6138 5.65334 29.6372 5.60651C29.7777 5.226 29.7894 5.24942 29.4498 5.20259C29.3854 5.19673 29.3327 5.17918 29.2859 5.15576C29.3269 5.23772 29.3796 5.33138 29.4381 5.43675C29.4908 5.53626 29.5435 5.63578 29.5962 5.73529Z" fill="#6D3A25"/>
<path id="Vector_56" d="M30.5563 6.61924C30.5563 6.61924 30.5739 6.63679 30.5798 6.6485C30.5212 6.36751 30.4334 6.30897 30.2343 6.30897C30.129 6.30897 30.0002 6.26214 29.8831 6.19189C30.0411 6.39093 30.2402 6.54313 30.5505 6.61338L30.5563 6.61924Z" fill="#6D3A25"/>
<path id="Vector_57" d="M8.62451 26.9323C8.63622 27.0436 8.65964 27.1548 8.6772 27.266C8.65378 27.1431 8.63622 27.0201 8.61865 26.8914C8.61865 26.9031 8.61865 26.9206 8.61865 26.9323H8.62451Z" fill="#6D3A25"/>
<path id="Vector_58" d="M23.1501 17.3904C23.0038 17.0391 22.8106 16.7757 22.5529 16.5884C23.115 17.086 23.8761 20.089 23.8761 21.8218C23.8761 23.5545 23.4429 25.8785 22.7871 27.4415C22.0377 29.2445 20.5799 30.9832 18.9289 32.0603C17.7111 32.8623 17.231 32.9969 15.621 32.9618C14.0753 32.9384 13.4489 32.7979 12.2955 32.2008C11.1948 31.6329 9.7838 30.2104 9.27444 29.1216C9.00512 28.5596 8.81192 27.9801 8.69482 27.3596C9.31542 30.9246 12.6702 33.7111 16.9207 33.1257C18.6479 32.8857 19.9066 31.7793 21.0366 30.5617C23.2321 28.1967 23.9054 25.2697 24.04 22.2198C24.04 22.2081 24.04 22.1964 24.04 22.1906C24.0049 21.1427 23.9112 20.13 23.6946 19.1524C23.5599 18.5494 23.3843 17.964 23.1501 17.3845V17.3904Z" fill="#6D3A25"/>
<path id="Vector_59" d="M21.6981 16.2783C21.6981 16.2783 21.6747 16.2783 21.6688 16.2783C21.985 16.3369 22.2426 16.413 22.4182 16.5008C22.2133 16.3837 21.9791 16.3134 21.704 16.2783H21.6981Z" fill="#6D3A25"/>
<path id="Vector_60" d="M9.95949 28.7647C10.3166 29.5023 11.2417 30.6789 11.8389 31.1355C12.6409 31.7502 13.566 32.1366 14.5672 32.3005C14.0461 32.2068 13.5484 32.0487 13.0859 31.838C12.5707 31.6038 12.1023 31.3112 11.71 30.9658C9.59064 29.0574 9.12227 26.2241 9.74287 23.8064C10.0649 22.5537 10.6679 21.4122 11.4993 20.5692C13.3728 18.6667 15.5215 17.3964 18.1502 16.9573C19.2275 16.7759 20.3165 16.7349 21.3996 16.8403C21.5753 16.8578 21.7509 16.8695 21.9324 16.893C22.1549 16.9281 22.2837 17.0452 22.3949 17.2208C22.4652 17.332 22.5296 17.4491 22.594 17.5662C22.594 17.5662 22.5998 17.5779 22.6057 17.5837C22.5823 17.5369 22.5647 17.4901 22.5413 17.4491C22.2017 16.8052 22.1724 16.7759 21.7158 16.7115C20.9137 16.6003 18.7591 16.6588 17.8985 16.811C16.4524 17.0744 14.6491 17.7886 13.5484 18.5262C12.7346 19.0823 11.3002 20.4287 10.744 21.178C9.18082 23.2562 8.85295 26.4173 9.95949 28.7647Z" fill="#6D3A25"/>
<path id="Vector_61" d="M31.3115 9.1073C31.2003 10.2722 31.0305 10.922 30.8198 10.9688C30.7788 10.9747 30.7436 10.9747 30.7261 10.9513C30.7261 11.0215 30.7495 11.0801 30.8607 11.1035C31.0891 11.162 31.1593 10.9454 31.2179 10.7815C31.4345 10.1844 31.4169 9.54634 31.5282 8.90241C31.4462 8.76191 31.6277 8.46336 31.3408 8.43994C31.3525 8.57458 31.3408 8.79118 31.3057 9.11315L31.3115 9.1073Z" fill="#6D3A25"/>
<path id="Vector_62" d="M30.1056 8.19385C30.129 8.24068 30.1466 8.29337 30.1583 8.36947C30.1992 8.65045 29.4967 10.2017 29.3152 10.2252C29.3327 10.2544 29.3562 10.2778 29.3972 10.2896C29.4557 10.3013 29.5552 10.272 29.5787 10.2252C29.8831 9.6983 30.2461 9.19487 30.3105 8.63875C30.3105 8.42216 30.2988 8.2641 30.1466 8.19971C30.129 8.19385 30.1173 8.1997 30.1056 8.19385Z" fill="#6D3A25"/>
<path id="Vector_63" d="M5.50985 38.8275C7.19601 40.3495 8.05665 40.8471 10.3927 41.6081C13.1444 42.4979 16.2181 42.8491 18.1151 42.4686C20.5096 41.9769 22.6817 40.8061 25.7145 38.3357C29.239 35.479 31.4345 31.9959 33.2612 26.3645C33.8291 24.6259 34.0984 23.3848 34.3912 21.3652C34.6605 19.3749 34.6722 11.1794 34.3912 9.85058C34.1219 8.55686 33.0856 6.61921 32.4123 6.16261C32.2249 6.03382 31.6922 5.51283 31.2472 5.00939C30.5095 4.1957 30.3983 4.02008 30.2343 3.37615C30.1348 2.98393 30.006 2.48635 29.9533 2.26976C29.7015 1.26874 28.9404 0.736032 27.1372 0.267718C26.8561 0.191617 26.5868 0.13893 26.3292 0.0920991C25.3515 -0.0718105 24.526 -0.0191235 23.8 0.267718C22.6935 0.6892 20.1993 2.00633 18.964 2.81418C17.4184 3.8269 13.2439 6.85922 11.7568 8.06513C10.6093 8.9959 9.36812 10.1433 8.15034 11.3667C6.56371 12.9649 5.02391 14.7035 3.82955 16.2723C3.3319 16.9221 2.56494 18.1573 1.98532 19.1934C1.67502 19.7495 1.41741 20.2471 1.28275 20.5691C0.480658 22.5067 -0.198493 27.5352 0.0532603 29.6778C0.199628 30.8778 0.445524 31.914 0.83779 32.8857C1.62818 34.8409 3.0216 36.5561 5.50985 38.8158V38.8275ZM29.2332 2.00633C29.2332 2.00633 29.2683 2.07657 29.2917 2.12926C29.3854 2.34 29.52 2.74978 29.6254 3.15955C29.6313 3.18882 29.6371 3.21224 29.643 3.24151C29.6664 3.34102 29.6898 3.42883 29.7074 3.50493C29.8304 4.02008 29.8186 4.10203 29.6781 4.17228C29.4732 4.28936 29.321 4.43571 29.2273 4.5762C29.0692 4.81621 29.0692 5.05622 29.28 5.15574C29.3268 5.17916 29.3795 5.19671 29.4439 5.20256C29.7835 5.24354 29.7718 5.22598 29.6313 5.60649C29.6137 5.65332 29.602 5.6943 29.5903 5.73527C29.561 5.86991 29.602 5.96357 29.7367 6.09821C29.7718 6.13334 29.8245 6.16846 29.8772 6.20359C29.9884 6.26798 30.1231 6.32066 30.2285 6.32066C30.4275 6.32066 30.5153 6.3792 30.5739 6.66019C30.5973 6.76556 30.6149 6.9002 30.6324 7.08168C30.65 7.21632 30.7027 7.29827 30.773 7.35096C30.9427 7.46218 31.2355 7.35096 31.5458 7.02899C31.9146 6.62507 31.9263 6.62507 32.143 6.8241C32.2893 6.95874 32.5294 7.35681 32.7753 7.84854C33.0914 8.48076 33.4252 9.27104 33.6067 9.84472C33.6535 9.99107 33.6886 10.1257 33.712 10.2428C33.712 10.2603 33.7179 10.2838 33.7237 10.3013C33.9462 11.5307 34.1043 16.3835 33.9872 18.5378C33.7706 22.4189 33.2261 24.7663 31.6278 28.7236C30.0704 32.593 28.2906 35.2566 25.8784 37.3347C23.2262 39.6294 20.8141 41.1163 18.8762 41.6725C17.1139 42.17 13.9816 42.053 11.3412 41.3798C10.5039 41.1632 9.78966 40.9349 9.13978 40.648C9.11051 40.6363 9.08124 40.6246 9.05197 40.607C8.91145 40.5427 8.77678 40.4724 8.63627 40.4022C8.4899 40.3261 8.3494 40.25 8.20889 40.168C8.11521 40.1153 8.02152 40.0568 7.92199 40.0041C7.70537 39.8695 7.48875 39.729 7.27213 39.5709C7.26042 39.5592 7.2487 39.5533 7.23114 39.5416C6.79789 39.2314 6.36465 38.8684 5.89041 38.447C4.08716 36.8371 3.73588 36.4566 2.91037 35.2156C1.52865 33.1492 0.943176 31.6271 0.738261 29.5841C0.533346 27.5528 1.17151 22.6707 1.85651 20.9613C2.20194 20.1242 3.39045 18.0812 4.16327 16.9923C6.8623 13.24 10.4922 9.71008 15.176 6.3031C18.7766 3.69226 20.5565 2.53904 22.6876 1.46777C24.6255 0.501877 25.088 0.437483 26.9732 0.899942C27.951 1.13995 29.0048 1.66095 29.2332 2.00633Z" fill="#6D3A25"/>
<path id="Vector_64" d="M30.1582 8.36961C30.1465 8.29351 30.1289 8.24082 30.1055 8.19399C30.0235 8.03008 29.8654 8.0535 29.7425 8.2701C29.6137 8.52182 29.198 9.9209 29.198 10.1199C29.198 10.1726 29.2507 10.2312 29.3092 10.2312C29.4907 10.2077 30.1933 8.65646 30.1523 8.37547L30.1582 8.36961Z" fill="#6D3A25"/>
<path id="Vector_65" d="M30.8023 9.90326C30.6969 10.6409 30.6735 10.8867 30.732 10.9511C30.7555 10.9745 30.7847 10.9745 30.8257 10.9687C31.0306 10.9277 31.2063 10.2721 31.3175 9.10713C31.3526 8.78517 31.3644 8.56857 31.3526 8.43393C31.3409 8.3227 31.3234 8.27002 31.2882 8.27002C31.2238 8.27002 31.1126 8.3871 31.0599 8.5393C31.0072 8.6798 30.8843 9.30031 30.8082 9.89741L30.8023 9.90326Z" fill="#6D3A25"/>
<path id="Vector_66" d="M24.1571 12.327C24.3503 12.5201 25.2461 11.7591 25.1465 11.4781C25.1348 11.4489 25.1172 11.4313 25.1055 11.4079C25.0411 11.3084 24.9533 11.3142 24.7952 11.4255C24.7601 11.4489 24.725 11.4723 24.6781 11.5133C24.3737 11.7533 24.0693 12.2392 24.1571 12.327Z" fill="#6D3A25"/>
<path id="Vector_67" d="M28.9756 13.2691C29.1161 13.2691 29.1688 13.1696 29.2566 12.6954C29.321 12.3793 29.2976 12.2915 29.1688 12.2915C29.0809 12.2915 28.9756 12.3676 28.9404 12.4671C28.8409 12.7305 28.8643 13.2691 28.9756 13.2691Z" fill="#6D3A25"/>
<path id="Vector_68" d="M22.506 13.4213C22.1665 13.7608 22.0143 14.1413 22.225 14.1413C22.3773 14.1413 23.1149 13.3686 23.1149 13.2047C23.1149 12.953 22.8983 13.0291 22.506 13.4213Z" fill="#6D3A25"/>
<path id="Vector_69" d="M24.7425 14.4868C24.4908 14.9083 24.4732 15.1191 24.6782 15.1191C24.8714 15.1191 25.5271 14.3815 25.451 14.241C25.3104 14.0244 24.9533 14.1532 24.7425 14.4927V14.4868Z" fill="#6D3A25"/>
<path id="Vector_70" d="M12.2955 32.2067C13.4489 32.8038 14.0812 32.9442 15.621 32.9677C17.231 33.0028 17.7111 32.8682 18.9289 32.0662C20.5799 30.9891 22.0378 29.2504 22.7872 27.4474C23.437 25.8844 23.8761 23.619 23.8761 21.8277C23.8761 20.0364 23.1209 17.0919 22.553 16.5943C22.5178 16.565 22.471 16.5357 22.4183 16.5065C22.2485 16.4187 21.9909 16.3426 21.6689 16.284C20.697 16.1025 19.1748 16.0616 17.8985 16.2255C16.0191 16.4655 13.8002 17.3904 12.4185 18.4968C11.025 19.6266 10.018 20.7915 9.47353 21.9096C8.84122 23.2033 8.64801 23.9526 8.58361 25.3576C8.55433 25.8961 8.57191 26.4113 8.63045 26.8972C8.64802 27.0259 8.66557 27.1489 8.68899 27.2718C8.69484 27.3069 8.70071 27.3421 8.70657 27.3772C8.82366 27.9977 9.01686 28.5772 9.28618 29.1392C9.79554 30.228 11.2124 31.6505 12.3072 32.2184L12.2955 32.2067ZM13.5484 18.5202C14.6491 17.7826 16.4523 17.0626 17.8985 16.805C18.7591 16.6528 20.9078 16.6001 21.7157 16.7055C22.1724 16.7699 22.2075 16.805 22.5412 17.4431C22.5647 17.4841 22.5822 17.5367 22.6057 17.5777C23.3726 19.2285 23.6068 22.5945 23.074 24.6785C22.6993 26.142 22.0904 27.506 21.3176 28.6709C20.375 30.0934 19.1924 31.2174 17.8985 31.8847C17.8692 31.8964 17.8399 31.914 17.8165 31.9315C17.1432 32.2711 16.8797 32.3355 16.1069 32.3764C15.58 32.4057 15.0648 32.3764 14.573 32.2886C13.566 32.1247 12.6468 31.7383 11.8447 31.1237C11.2475 30.6671 10.3225 29.4904 9.96533 28.7529C8.85879 26.4054 9.18079 23.2385 10.7499 21.1662C11.3061 20.4169 12.7405 19.0705 13.5543 18.5144L13.5484 18.5202Z" fill="#6D3A25"/>
<path id="Vector_71" d="M8.21476 33.8048C8.07425 33.5531 7.91032 33.5355 7.81079 33.7814C7.73468 33.9746 7.97473 34.478 8.19136 34.5541C8.35529 34.6068 8.36699 34.1092 8.21476 33.8048Z" fill="#6D3A25"/>
<path id="Vector_72" d="M7.52393 35.5023C7.36 35.1218 7.01458 34.9813 6.86236 35.2389C6.68671 35.5081 7.20192 36.4214 7.52393 36.4214C7.71714 36.4214 7.71714 35.9764 7.52393 35.4964V35.5023Z" fill="#6D3A25"/>
<path id="Vector_73" d="M10.2404 37.0772C10.58 37.0772 10.5683 36.9601 10.1877 36.5445C9.83061 36.164 9.41492 36.0879 9.41492 36.4157C9.41492 36.685 9.90672 37.0772 10.2404 37.0772Z" fill="#6D3A25"/>
</g>
<g id="Group_3">
<path id="Vector_74" opacity="0.21" d="M23.8936 22.1788C23.9288 24.4326 23.3082 26.5048 22.1372 28.4132C21.7801 28.9986 21.3117 29.5138 20.7848 29.9587C20.5506 30.1577 20.2579 30.3392 19.9417 30.1577C19.6314 29.9821 19.69 29.6367 19.7427 29.3674C19.8949 28.5947 20.2696 27.8981 20.6619 27.2366C21.7977 25.3165 22.4124 23.2735 22.3539 21.0373C22.3246 19.9894 22.5295 18.9416 22.3597 17.8937C22.3422 17.7708 22.3539 17.642 22.3714 17.5132C22.4124 17.2147 22.4944 16.9103 22.8515 16.881C23.2086 16.8517 23.2672 17.1737 23.3375 17.4371C23.7473 18.9884 23.8585 20.5748 23.8878 22.1729L23.8936 22.1788Z" fill="#3D2308"/>
<path id="Vector_75" opacity="0.21" d="M14.9652 12.6602C14.9652 13.3861 14.4324 14.0417 13.8528 14.03C13.3551 14.0183 12.8985 13.5558 12.8867 13.0466C12.875 12.4787 13.5366 11.6826 14.0401 11.665C14.5319 11.6475 14.9652 12.1158 14.9652 12.6602Z" fill="#3D2308"/>
<path id="Vector_76" opacity="0.21" d="M17.5999 10.1081C17.5999 10.6115 17.3071 10.9452 16.8739 10.9335C16.4816 10.9218 16.1655 10.5881 16.1713 10.19C16.1831 9.74513 16.6104 9.2417 16.9851 9.2417C17.3657 9.2417 17.5999 9.57537 17.5999 10.1081Z" fill="#3D2308"/>
</g>
</g>
</svg>
