<svg width="116" height="48" viewBox="0 0 116 48" fill="none" xmlns="http://www.w3.org/2000/svg">
<g id="Frame" clip-path="url(#clip0_0_2092)">
<path id="Vector" d="M115.908 37.7366C112.428 42.8618 106.693 46.0683 100.669 47.3496C93.6094 48.8456 86.2601 47.6228 79.5766 45.1773C73.4335 42.9269 67.2443 39.6813 62.5183 35.135C58.5899 31.3626 54.8263 25.5805 56.1446 19.9155C56.751 17.3074 58.6822 15.2651 61.5099 15.1805C64.7791 15.0765 67.877 17.2423 69.3535 20.0326C72.3921 25.7821 70.2367 32.7935 65.5437 36.9821C60.6464 41.3594 53.7519 43.0244 47.2727 42.7122C40.1475 42.3675 33.286 39.883 27.3011 36.1236C21.3162 32.3643 16.2739 27.5122 11.5809 22.361C6.88789 17.2098 2.48492 11.9545 0.705269 5.3854C0.283432 3.83093 0.0527267 2.24394 0.0197754 0.637433C-0.0065918 -0.494274 2.78812 0.0715796 2.80789 0.982149C2.9529 7.26508 6.25513 12.7805 10.1044 17.587C14.0197 22.4716 18.4358 27.1155 23.2804 31.122C28.0986 35.1155 33.576 38.4326 39.6861 40.0846C45.5919 41.6846 52.0711 41.6911 57.7331 39.213C63.0588 36.8846 67.3761 32.3447 67.9364 26.4391C68.2 23.6683 67.5541 20.4943 65.6096 18.3805C64.8582 17.5675 63.7707 16.6765 62.5908 16.722C61.411 16.7675 60.475 17.522 59.8357 18.4065C58.4515 20.3382 58.4383 23.0244 58.9722 25.2358C59.6116 27.9025 60.9364 30.3285 62.6699 32.4618C66.2556 36.8911 71.3902 39.9805 76.538 42.348C82.5163 45.0927 89.068 46.9139 95.712 46.374C101.216 45.9252 106.739 43.7139 110.714 39.883C111.722 38.9139 112.619 37.8407 113.403 36.6895C113.911 35.948 116.554 36.8326 115.934 37.7431H115.908V37.7366Z" fill="#004C3F"/>
</g>
<defs>
<clipPath id="clip0_0_2092">
<rect width="116" height="48" fill="white" transform="matrix(-1 0 0 1 116 0)"/>
</clipPath>
</defs>
</svg>
