<svg width="60" height="60" viewBox="0 0 60 60" fill="none" xmlns="http://www.w3.org/2000/svg">
<g id="003-home-delivery-1">
<path id="Vector" d="M58.8035 3.69956C58.8035 3.48159 58.7156 3.27417 58.5621 3.12065C58.4074 2.96714 58.2023 2.88276 57.9809 2.88159L26.2594 2.96714C25.8059 2.96831 25.4402 3.33628 25.4414 3.78979L25.5129 30.3105H24.7266C23.9004 30.3105 23.2289 30.982 23.2289 31.8082V32.9261L22.5129 32.4292C22.4519 32.3871 22.3863 32.3531 22.316 32.3285L19.5 31.3441L18.5156 29.0941C19.3242 28.4484 19.9605 27.5824 20.3426 26.5582C20.4902 26.1632 20.6144 25.7367 20.7129 25.2925C20.7152 25.2796 20.7187 25.2667 20.7211 25.2527C20.8945 24.2308 20.9754 23.2488 20.9695 22.2749C22.2703 22.1343 23.4199 21.9445 24.2859 21.6902C24.8062 21.5378 25.2187 21.0574 25.3125 20.4949C25.3957 19.998 25.2164 19.5386 24.8332 19.2667C23.584 18.3808 21.9598 17.9472 20.3203 17.8359C20.107 17.0871 19.8398 16.3242 19.5223 15.5624C18.4711 13.0441 14.4176 11.816 11.0168 12.9855C7.53749 14.182 6.11367 17.366 7.18476 21.5249C6.88476 21.8332 6.68203 22.2585 6.59414 22.7753C6.49453 23.3671 6.55781 24.0574 6.76406 24.6234C7.20117 25.8199 8.21132 26.0683 8.90859 26.1058C9.25781 26.8042 9.62578 27.4207 10.0055 27.9457C10.3699 28.4484 10.7906 28.8761 11.257 29.2277L10.5434 31.132L2.79726 35.8499C1.50468 36.6374 0.844917 38.1093 1.11562 39.5976L2.79492 48.798C2.86992 49.2093 3.12773 49.5503 3.50273 49.7355C3.87773 49.9207 4.30546 49.9183 4.67695 49.7273L5.76328 49.173L10.5715 53.0285C11.4375 53.7234 12.4793 54.4605 13.9066 54.4605C13.9418 54.4605 13.9781 54.4605 14.0133 54.4593L14.2125 54.4546C14.7562 54.4429 15.2695 54.4324 15.8918 54.2425C18.8883 53.3238 22.098 52.4085 25.5715 52.1003L25.5832 56.3015C25.5832 56.5195 25.6711 56.7269 25.8246 56.8804C25.9781 57.0339 26.1867 57.1195 26.4035 57.1195H26.4059L58.1273 57.0339C58.5809 57.0328 58.9465 56.6648 58.9453 56.2113L58.8035 3.69956ZM29.7726 31.9499V33.8261H24.8707V31.9499H29.7726ZM30.2719 7.77534L53.9941 7.71206L54.1137 52.2246L30.3914 52.2878L30.3902 51.7476L33.0516 51.5566C34.0488 51.4851 34.8094 50.6706 34.8187 49.6628V49.6453C34.8211 49.3675 34.7684 49.105 34.6641 48.8636H42.4629C43.2891 48.8636 43.9605 48.1921 43.9605 47.366V31.807C43.9605 30.9808 43.2891 30.3093 42.4629 30.3093H30.3328L30.2719 7.77534ZM30.6527 46.5867C30.634 46.0066 30.3703 45.491 29.9121 45.1347C29.4668 44.789 28.909 44.6601 28.3394 44.7738L24.8695 45.4605V35.4679H29.7715V37.6781C29.7715 37.9804 29.9367 38.257 30.2027 38.3999C30.3246 38.4656 30.4582 38.4984 30.5918 38.4984C30.75 38.4984 30.907 38.4527 31.043 38.3624L33.5953 36.6796L36.1465 38.3613C36.3984 38.5277 36.7207 38.5417 36.9867 38.3988C37.2527 38.2558 37.418 37.9781 37.418 37.6769V35.4667H42.3199V47.2242H30.5871C30.6363 47.039 30.6609 46.8445 30.6539 46.6441L30.6527 46.5867ZM35.7773 31.9499V36.1535L34.0465 35.0121C33.7723 34.8316 33.4172 34.8316 33.143 35.0121L31.4121 36.1535V31.9499H35.7773ZM42.3199 33.8261H37.418V31.9499H42.3199V33.8261ZM20.659 33.4874L20.2066 35.7281L19.0207 34.8093L19.4648 33.0691L20.659 33.4874ZM13.9266 21.0117C14.5945 20.5007 15.5086 20.0812 16.5961 19.7988C17.5195 19.5597 18.4851 19.4437 19.4203 19.4437C20.8758 19.4437 22.2586 19.7238 23.298 20.2546C21.0797 20.7703 17.3461 20.9496 13.9266 21.0117ZM11.5488 14.5382C14.0461 13.6792 17.3051 14.516 18.007 16.1964C18.2367 16.746 18.4371 17.2933 18.607 17.8347C17.7504 17.8874 16.9242 18.0199 16.1848 18.2109C14.0754 18.757 12.4992 19.7519 11.6824 21.0386C10.6441 21.0457 9.6832 21.0445 8.86288 21.0433H8.75507C7.64062 16.6136 10.0137 15.0667 11.5488 14.5382ZM10.1648 24.9374C10.023 24.6328 9.71015 24.4441 9.37499 24.464C8.46913 24.5144 8.38476 24.2847 8.30273 24.0621C8.19257 23.7621 8.15624 23.3648 8.20898 23.0507C8.23242 22.9148 8.27929 22.7636 8.3496 22.6839H8.85937H9.74179C12.423 22.6839 16.1332 22.6628 19.3277 22.4238C19.3254 23.2511 19.2516 24.0878 19.1051 24.9585C19.0242 25.3207 18.9234 25.6664 18.8039 25.9839C18.273 27.4042 17.1305 28.3734 15.668 28.6406C15.4277 28.6851 15.1887 28.7062 14.8406 28.7156C13.4121 28.7531 12.1676 28.1378 11.3309 26.9824C10.9301 26.4281 10.5375 25.739 10.1648 24.9374ZM14.7152 30.3585C14.7715 30.3585 14.8289 30.3574 14.8863 30.3562C15.191 30.348 15.5566 30.3304 15.9656 30.2554C16.3559 30.1839 16.732 30.0738 17.0894 29.9285L18.0269 32.0707L16.7004 37.2632L15.525 35.2171C15.4957 35.1656 15.4594 35.1164 15.4195 35.0718L12.157 31.5023L12.7137 30.0164C13.3371 30.2425 14.0098 30.3585 14.7152 30.3585ZM11.0613 32.7374L13.2445 35.1269L11.2207 36.1394L9.47226 33.7054L11.0613 32.7374ZM4.3289 48.0644L2.73046 39.3035C2.57929 38.4761 2.93203 37.6898 3.65039 37.2515L8.06718 34.5609L10.2973 37.664C10.4555 37.8843 10.7062 38.0062 10.9641 38.0062C11.0883 38.0062 11.2137 37.9781 11.3309 37.9195L14.325 36.4207L16.2844 39.832C16.432 40.0886 16.7051 40.2433 16.9957 40.2433C17.032 40.2433 17.0695 40.241 17.107 40.2363C17.4375 40.1906 17.7082 39.9503 17.7914 39.6269L18.5801 36.5414L20.2488 37.8339C20.3953 37.9464 20.5723 38.0062 20.7516 38.0062C20.8476 38.0062 20.9449 37.9898 21.0375 37.9546C21.3035 37.855 21.4992 37.6265 21.5555 37.3476L22.1906 34.1999L23.2312 34.9218V45.7839L14.7398 47.4644C14.5992 47.4925 14.4855 47.4527 14.3941 47.3414L12.3164 44.8371L10.2305 39.9117C10.0535 39.4945 9.57187 39.2999 9.15468 39.4757C8.73749 39.6527 8.54296 40.1343 8.71874 40.5515L10.5539 44.8839L4.3289 48.0644ZM15.4113 52.6734C15.007 52.7976 14.6602 52.8046 14.1785 52.814L13.9711 52.8187C13.1297 52.8398 12.4641 52.4425 11.598 51.7488L7.36523 48.355L11.393 46.2972L13.1285 48.389C13.6043 48.9621 14.325 49.2187 15.0551 49.0734L28.657 46.3828C28.7801 46.3581 28.8445 46.3839 28.9055 46.4308C28.9793 46.4882 29.0098 46.5468 29.0121 46.6406L29.0144 46.6992C29.018 46.8222 28.9617 46.9371 28.8879 46.9546L24.3949 48.0222C23.9848 48.1195 23.7152 48.5121 23.7715 48.9304C23.8277 49.3476 24.1922 49.6558 24.6129 49.6406L32.8863 49.3523C32.9766 49.3499 33.0328 49.3699 33.0949 49.4296C33.157 49.4906 33.1805 49.5445 33.1793 49.6312V49.6488C33.1781 49.7953 33.0726 49.9124 32.9355 49.9218L25.9371 50.4234C22.1051 50.6976 18.6351 51.6855 15.4113 52.6734ZM27.2215 55.4753L27.2121 51.9749L28.7508 51.8648L28.7543 53.1117C28.7555 53.564 29.1223 53.9296 29.5746 53.9296H29.5769L54.9398 53.8617C55.3934 53.8605 55.759 53.4925 55.7578 53.039L55.6336 6.88589C55.6336 6.66792 55.5457 6.4605 55.3922 6.30698C55.2387 6.15347 55.0301 6.06792 54.8133 6.06792H54.8109L29.448 6.13589C29.2301 6.13589 29.0215 6.22378 28.8691 6.37729C28.7156 6.53198 28.6301 6.74058 28.6301 6.95854L28.6934 30.3082H27.1547L27.0844 4.60542L57.1652 4.52456L57.3023 55.3956L27.2215 55.4753ZM48.6644 32.9812H48.6715C50.1293 32.9777 51.3129 31.7882 51.3082 30.3292C51.3047 28.8714 50.1164 27.6878 48.6562 27.6925C47.1984 27.696 46.0148 28.8855 46.0195 30.3445C46.0242 31.7999 47.2101 32.9812 48.6644 32.9812ZM48.6621 29.3332H48.6644C49.2164 29.3332 49.6664 29.782 49.6676 30.3339C49.6687 30.8871 49.2199 31.3394 48.6668 31.3406H48.6644C48.1125 31.3406 47.6625 30.8917 47.6613 30.3398C47.6601 29.7855 48.109 29.3343 48.6621 29.3332ZM34.984 42.5531C34.984 42.0996 35.3508 41.7328 35.8043 41.7328H40.2832C40.7367 41.7328 41.1035 42.0996 41.1035 42.5531C41.1035 43.0066 40.7367 43.3734 40.2832 43.3734H35.8043C35.3508 43.3734 34.984 43.0066 34.984 42.5531ZM33.2098 45.0738C33.2098 44.6203 33.5766 44.2535 34.0301 44.2535H40.2832C40.7367 44.2535 41.1035 44.6203 41.1035 45.0738C41.1035 45.5273 40.7367 45.8941 40.2832 45.8941H34.0301C33.5766 45.8941 33.2098 45.5261 33.2098 45.0738Z" fill="#004C3F"/>
</g>
</svg>
