<svg width="60" height="60" viewBox="0 0 60 60" fill="none" xmlns="http://www.w3.org/2000/svg">
<g id="005-organic-1" clip-path="url(#clip0_0_2043)">
<g id="Group">
<path id="Vector" d="M15.8852 22.7877C16.2364 22.4527 16.2494 21.8964 15.9144 21.545C13.2191 18.7204 11.7348 15.0853 11.7348 11.3093V6.3968C11.7348 3.83883 14.0817 1.75781 16.9664 1.75781H20.2618C24.3354 1.75781 27.9702 3.29707 30.5982 5.82188C30.6185 5.84402 30.6401 5.86559 30.6629 5.88609C30.667 5.88984 30.6716 5.89289 30.6758 5.89652C33.2947 8.45121 34.8926 11.9944 34.8926 15.967V21.6579C34.6525 21.6454 34.4082 21.7296 34.2248 21.913C33.8816 22.2564 33.8816 22.8128 34.2248 23.156L38.9123 27.8435C39.2551 28.1862 39.2551 28.7437 38.9123 29.0863C38.5698 29.4293 38.0121 29.4293 37.6695 29.0863L32.982 24.3988C32.6387 24.0557 32.0822 24.0557 31.7391 24.3988C31.3958 24.7421 31.3958 25.2986 31.7391 25.6418L32.3357 26.2384H26.6599C23.758 26.2385 20.919 25.3568 18.45 23.6885C18.0478 23.4171 17.5014 23.5226 17.2297 23.9248C16.958 24.3271 17.0637 24.8734 17.466 25.1452C20.2267 27.0104 23.406 27.9963 26.66 27.9962H34.0935L36.4266 30.3293C37.4546 31.3574 39.1273 31.3573 40.1555 30.3293C41.1834 29.3012 41.1834 27.6285 40.1555 26.6004L37.4143 23.8593C40.1493 23.527 42.7727 22.3734 44.9367 20.5274C45.306 20.2124 45.35 19.6576 45.035 19.2884C44.7202 18.9192 44.1653 18.8752 43.796 19.19C41.7502 20.9354 39.2411 21.9731 36.6505 22.1661V15.967C36.6505 15.4727 36.6273 14.9828 36.5837 14.4975L43.5677 7.51348C43.911 7.17012 43.911 6.61371 43.5677 6.27047C43.2244 5.92734 42.668 5.92734 42.3247 6.27047L36.2441 12.3512C35.6338 9.69211 34.3479 7.25051 32.4716 5.2268C34.7471 3.01336 37.8771 1.75781 41.1852 1.75781H43.9737C46.34 1.75781 48.2652 3.45809 48.2652 5.54789V9.70477C48.2653 12.2109 47.4839 14.6509 46.0054 16.7609C45.7268 17.1584 45.8232 17.7064 46.2209 17.985C46.6192 18.2639 47.1668 18.1665 47.445 17.7695C49.1317 15.3625 50.0231 12.5736 50.023 9.70477V5.54789C50.023 2.48871 47.3093 0 43.9737 0H41.1852C37.3997 0 33.8128 1.44996 31.207 4.00453C28.2189 1.41621 24.3663 0 20.2618 0H16.9664C15.1618 0 13.4443 0.628477 12.1303 1.76977C10.7418 2.97563 9.97699 4.61883 9.97699 6.3968V11.3094C9.97699 15.5395 11.6339 19.6056 14.6426 22.7586C14.9777 23.1097 15.5339 23.1229 15.8852 22.7877Z" fill="#004C3F"/>
<path id="Vector_2" d="M21.21 20.3187C21.4349 20.3187 21.6599 20.2329 21.8315 20.0613C22.1747 19.718 22.1747 19.1616 21.8315 18.8183L20.8371 17.824C20.4939 17.4809 19.9373 17.4809 19.5942 17.824C19.251 18.1674 19.251 18.7238 19.5942 19.067L20.5886 20.0613C20.7601 20.2328 20.985 20.3187 21.21 20.3187Z" fill="#004C3F"/>
<path id="Vector_3" d="M29.2242 12.3045C29.4491 12.3045 29.6741 12.2187 29.8457 12.0472C30.1889 11.7038 30.1889 11.1474 29.8457 10.8042L28.8513 9.80983C28.5081 9.46671 27.9516 9.46671 27.6084 9.80983C27.2652 10.1532 27.2652 10.7096 27.6084 11.0528L28.6028 12.0472C28.7743 12.2187 28.9992 12.3045 29.2242 12.3045Z" fill="#004C3F"/>
<path id="Vector_4" d="M23.8479 15.9231C23.3625 15.8907 22.944 16.2556 22.9109 16.7398C22.8776 17.2242 23.2432 17.6436 23.7275 17.6768C23.8044 17.6821 23.8812 17.6847 23.9577 17.6847C24.8428 17.6847 25.6946 17.3347 26.3239 16.7054C27.0077 16.0216 27.3618 15.0753 27.2955 14.109C27.2624 13.6246 26.8427 13.2599 26.3585 13.2923C25.8743 13.3256 25.5087 13.745 25.5418 14.2293C25.5734 14.6886 25.4054 15.138 25.0811 15.4622C24.7566 15.7867 24.3069 15.9549 23.8479 15.9231Z" fill="#004C3F"/>
<path id="Vector_5" d="M8.15332 43.7351V34.9084C8.15332 32.3858 5.08102 31.1353 3.31934 32.9419L0.800039 35.5259C-0.284297 36.638 -0.26168 38.425 0.85043 39.5092C1.31156 39.9588 1.90137 40.2285 2.51953 40.294V43.735C1.10555 43.8841 0 45.0837 0 46.5364C0 48.0898 1.26363 49.3534 2.81695 49.3534H7.85578C9.40898 49.3534 10.6727 48.0898 10.6727 46.5364C10.6727 45.0837 9.5673 43.8841 8.15332 43.7351ZM7.85578 47.5956H2.81695C2.23301 47.5956 1.75781 47.1204 1.75781 46.5364C1.75781 45.9525 2.23301 45.4773 2.81695 45.4773H3.39844C3.88383 45.4773 4.27734 45.0839 4.27734 44.5984V39.3416C4.27734 38.7496 3.70242 38.3259 3.1357 38.5029C2.09062 38.8303 1.29223 37.539 2.05863 36.7529L4.57805 34.1689C5.23969 33.4898 6.39562 33.9594 6.39562 34.9084V44.5984C6.39562 45.0839 6.78914 45.4773 7.27453 45.4773H7.8559C8.43984 45.4773 8.91504 45.9525 8.91504 46.5364C8.91504 47.1204 8.43984 47.5956 7.85578 47.5956Z" fill="#004C3F"/>
<path id="Vector_6" d="M54.3662 46.5368C54.3662 48.0901 55.6298 49.3538 57.183 49.3538C58.7364 49.3538 60 48.0901 60 46.5368C60 44.9836 58.7364 43.72 57.183 43.72C55.6298 43.72 54.3662 44.9836 54.3662 46.5368ZM58.2422 46.5368C58.2422 47.1208 57.767 47.5959 57.183 47.5959C56.5991 47.5959 56.124 47.1208 56.124 46.5368C56.124 45.9529 56.5991 45.4778 57.183 45.4778C57.767 45.4778 58.2422 45.9529 58.2422 46.5368Z" fill="#004C3F"/>
<path id="Vector_7" d="M42.8019 36.0157C42.8019 37.569 44.0656 38.8326 45.6189 38.8326C47.1721 38.8326 48.4357 37.569 48.4357 36.0157C48.4357 34.4624 47.1721 33.1987 45.6189 33.1987C44.0656 33.1987 42.8019 34.4624 42.8019 36.0157ZM46.6779 36.0157C46.6779 36.5996 46.2028 37.0748 45.6189 37.0748C45.0349 37.0748 44.5598 36.5996 44.5598 36.0157C44.5598 35.4317 45.0349 34.9565 45.6189 34.9565C46.2028 34.9565 46.6779 35.4317 46.6779 36.0157Z" fill="#004C3F"/>
<path id="Vector_8" d="M16.0091 38.7846V42.6607C16.0091 44.2139 17.2727 45.4775 18.826 45.4775C20.3794 45.4775 21.643 44.2139 21.643 42.6607V38.7846C21.643 37.2314 20.3794 35.9678 18.826 35.9678C17.2727 35.9678 16.0091 37.2314 16.0091 38.7846ZM19.8852 38.7846V42.6607C19.8852 43.2446 19.4101 43.7197 18.826 43.7197C18.242 43.7197 17.7669 43.2446 17.7669 42.6607V38.7846C17.7669 38.2007 18.242 37.7256 18.826 37.7256C19.4101 37.7256 19.8852 38.2007 19.8852 38.7846Z" fill="#004C3F"/>
<path id="Vector_9" d="M12.1331 38.7845V42.6606C12.1331 46.351 15.1356 49.3535 18.826 49.3535C22.5165 49.3535 25.519 46.351 25.519 42.6606V38.7845C25.519 35.094 22.5165 32.0916 18.826 32.0916C15.1356 32.0916 12.1331 35.094 12.1331 38.7845ZM23.7612 38.7845V42.6606C23.7612 45.3819 21.5473 47.5957 18.826 47.5957C16.1048 47.5957 13.8909 45.3818 13.8909 42.6606V38.7845C13.8909 36.0632 16.1048 33.8494 18.826 33.8494C21.5473 33.8494 23.7612 36.0632 23.7612 38.7845Z" fill="#004C3F"/>
<path id="Vector_10" d="M34.3302 49.3535C38.0207 49.3535 41.0231 46.351 41.0231 42.6606V38.7845C41.0231 35.094 38.0207 32.0916 34.3302 32.0916C30.6397 32.0916 27.6373 35.094 27.6373 38.7845V42.6606C27.6373 46.351 30.6397 49.3535 34.3302 49.3535ZM29.3951 38.7845C29.3951 36.0632 31.609 33.8494 34.3302 33.8494C37.0514 33.8494 39.2653 36.0633 39.2653 38.7845V42.6606C39.2653 45.3819 37.0514 47.5957 34.3302 47.5957C31.609 47.5957 29.3951 45.3818 29.3951 42.6606V38.7845Z" fill="#004C3F"/>
<path id="Vector_11" d="M34.3302 45.4775C35.8835 45.4775 37.1472 44.2139 37.1472 42.6607V38.7846C37.1472 37.2314 35.8835 35.9678 34.3302 35.9678C32.777 35.9678 31.5132 37.2314 31.5132 38.7846V42.6607C31.5134 44.2139 32.777 45.4775 34.3302 45.4775ZM33.2712 38.7846C33.2712 38.2007 33.7463 37.7256 34.3303 37.7256C34.9144 37.7256 35.3895 38.2007 35.3895 38.7846V42.6607C35.3895 43.2446 34.9143 43.7197 34.3303 43.7197C33.7464 43.7197 33.2712 43.2446 33.2712 42.6607V38.7846Z" fill="#004C3F"/>
<path id="Vector_12" d="M46.913 48.9698C48.2662 49.7595 49.9898 49.286 50.7656 47.9561L56.9027 37.4354C57.6853 36.0938 57.2304 34.3657 55.8889 33.5829C55.8888 33.5827 55.8887 33.5827 55.8886 33.5826C54.5471 32.8003 52.819 33.2552 52.0362 34.5966L45.8992 45.1174C45.1148 46.4619 45.568 48.1852 46.913 48.9698ZM47.4176 46.0032L53.5544 35.4826C53.8491 34.9777 54.4993 34.8074 55.0031 35.1013C55.5076 35.3956 55.6786 36.0454 55.3843 36.5496L49.2472 47.0703C48.9583 47.5657 48.3122 47.7513 47.7989 47.4515C47.2923 47.156 47.123 46.5079 47.4176 46.0032Z" fill="#004C3F"/>
<path id="Vector_13" d="M26.6597 54.7266H24.5882C24.1028 54.7266 23.7093 55.12 23.7093 55.6055C23.7093 56.091 24.1028 56.4844 24.5882 56.4844H25.6274C25.2646 57.4863 24.276 58.2422 23.073 58.2422C21.5798 58.2422 20.365 57.0593 20.365 55.6055C20.365 54.1516 21.5798 52.9688 23.073 52.9688H23.9506C24.436 52.9688 24.8295 52.5754 24.8295 52.0898C24.8295 51.6043 24.436 51.2109 23.9506 51.2109H23.073C20.6105 51.2109 18.6072 53.1823 18.6072 55.6055C18.6072 58.0287 20.6105 60 23.073 60C25.5362 60 27.5387 58.0396 27.5387 55.6055C27.5386 55.12 27.1451 54.7266 26.6597 54.7266Z" fill="#004C3F"/>
<path id="Vector_14" d="M32.846 51.7755C32.7158 51.4353 32.3893 51.2107 32.0251 51.2107C31.6609 51.2107 31.3344 51.4353 31.2042 51.7755L28.5141 58.8068C28.3406 59.2601 28.5675 59.7682 29.0209 59.9417C29.4743 60.1151 29.9824 59.8883 30.1559 59.4349L30.612 58.2429H33.4384L33.8945 59.4349C34.0284 59.785 34.3618 60 34.7155 60C34.8199 60 34.9261 59.9812 35.0295 59.9417C35.4829 59.7683 35.7097 59.2602 35.5363 58.8068L32.846 51.7755ZM31.2844 56.4851L32.025 54.5491L32.7656 56.4851H31.2844Z" fill="#004C3F"/>
<path id="Vector_15" d="M50.7526 52.9688C51.2381 52.9688 51.6315 52.5754 51.6315 52.0898C51.6315 51.6043 51.2381 51.2109 50.7526 51.2109H47.1656C46.6801 51.2109 46.2867 51.6043 46.2867 52.0898C46.2867 52.5754 46.6801 52.9688 47.1656 52.9688H48.0802V58.2422H47.1656C46.6801 58.2422 46.2867 58.6356 46.2867 59.1211C46.2867 59.6066 46.6801 60 47.1656 60H50.7525C51.238 60 51.6314 59.6066 51.6314 59.1211C51.6314 58.6356 51.238 58.2422 50.7525 58.2422H49.8379V52.9688H50.7526Z" fill="#004C3F"/>
<path id="Vector_16" d="M58.5078 53.7529C58.8553 54.0916 59.4119 54.0845 59.7505 53.7368C60.0893 53.3893 60.0822 52.8329 59.7345 52.4941C56.9158 49.7468 52.0847 51.7162 52.0847 55.6094C52.0847 58.0431 54.0925 60.0001 56.5705 60.0001C57.7164 60.0001 58.8623 59.5749 59.7345 58.7247C60.0822 58.3858 60.0892 57.8294 59.7505 57.4819C59.4119 57.1342 58.8553 57.1273 58.5078 57.4659C56.7852 59.1443 53.8425 57.9407 53.8425 55.6094C53.8425 53.274 56.7877 52.0763 58.5078 53.7529Z" fill="#004C3F"/>
<path id="Vector_17" d="M43.5629 51.211C43.0774 51.211 42.684 51.6044 42.684 52.0899V56.4794L39.0058 51.5634C38.779 51.2603 38.3837 51.1364 38.0246 51.256C37.6656 51.3755 37.4232 51.7115 37.4232 52.0899V59.1212C37.4232 59.6067 37.8167 60.0001 38.3021 60.0001C38.7875 60.0001 39.181 59.6067 39.181 59.1212V54.7317L42.8592 59.6477C43.0283 59.8739 43.2913 60.0001 43.563 60.0001C43.6556 60.0001 43.7491 59.9854 43.8403 59.9551C44.1995 59.8355 44.4418 59.4996 44.4418 59.1212V52.0899C44.4418 51.6044 44.0484 51.211 43.5629 51.211Z" fill="#004C3F"/>
<path id="Vector_18" d="M4.46578 51.2109C2.00332 51.2109 0 53.1823 0 55.6055C0 58.0287 2.00332 60 4.46578 60C6.92824 60 8.93156 58.0287 8.93156 55.6055C8.93156 53.1823 6.92824 51.2109 4.46578 51.2109ZM4.46578 58.2422C2.97258 58.2422 1.75781 57.0593 1.75781 55.6055C1.75781 54.1516 2.97258 52.9688 4.46578 52.9688C5.95898 52.9688 7.17375 54.1516 7.17375 55.6055C7.17375 57.0593 5.95898 58.2422 4.46578 58.2422Z" fill="#004C3F"/>
<path id="Vector_19" d="M16.9132 54.2871C16.9132 52.5908 15.5183 51.2109 13.8038 51.2109H11.6105C11.1251 51.2109 10.7316 51.6043 10.7316 52.0898V59.1211C10.7316 59.6066 11.1251 60 11.6105 60C12.0959 60 12.4894 59.6066 12.4894 59.1211V57.3633H12.9852L15.4191 59.7487C15.5902 59.9164 15.8122 60 16.0343 60C16.2621 60 16.4899 59.9119 16.6621 59.7363C17.0018 59.3897 16.9963 58.8332 16.6497 58.4934L15.1744 57.0475C16.2033 56.5454 16.9132 55.497 16.9132 54.2871ZM13.8038 55.6055H12.4894V52.9688H13.8038C14.5491 52.9688 15.1554 53.5602 15.1554 54.2871C15.1554 55.014 14.5491 55.6055 13.8038 55.6055Z" fill="#004C3F"/>
</g>
</g>
<defs>
<clipPath id="clip0_0_2043">
<rect width="60" height="60" fill="white"/>
</clipPath>
</defs>
</svg>
