<svg width="40" height="42" viewBox="0 0 40 42" fill="none" xmlns="http://www.w3.org/2000/svg">
<g id="Group">
<g id="Group_2">
<path id="Vector" d="M21.5722 5.36452C21.4478 5.33208 21.3234 5.30506 21.2098 5.27802C20.523 5.11581 19.8254 5.02928 19.1386 4.95898C19.3009 4.99143 19.4685 5.02388 19.6362 5.05633C20.7177 5.27802 21.1882 5.36452 21.5722 5.36452Z" fill="#CE3D95"/>
<path id="Vector_2" d="M25.5361 22.6457C25.5361 22.6457 25.5632 22.6403 25.574 22.6349C26.8773 22.3753 27.3748 21.5481 27.4127 20.2882C27.4343 19.5907 27.5857 18.8932 27.7101 18.201C27.7426 18.0064 27.8021 17.7306 28.0887 17.7739C28.3158 17.8063 28.3212 18.0442 28.3645 18.2335C28.543 19.0337 28.4835 19.8502 28.4835 20.6559C28.4835 21.0614 28.6295 21.1047 28.9323 20.8884C29.6462 20.3747 30.2951 19.7907 30.8521 19.1149C30.8088 18.904 30.7764 18.7093 30.771 18.5741C30.7493 18.2335 30.9927 18.3633 31.1604 18.7255C31.1766 18.7039 31.1982 18.6823 31.2144 18.6607C31.4037 18.4011 31.4253 18.1037 31.3875 17.8009C31.1063 15.6164 30.4519 13.5563 29.246 11.6963C29.1486 11.5449 29.0891 11.215 28.7971 11.3826C28.5429 11.5232 28.716 11.7557 28.7701 11.9558C29.1378 13.2913 29.5704 14.6107 29.6353 16.0111C29.6462 16.2274 29.7489 16.5627 29.4731 16.6276C29.1703 16.6979 29.1648 16.3356 29.0837 16.1409C28.6024 14.9568 28.1374 13.7618 27.6561 12.5776C27.4884 12.1721 26.3636 11.9828 26.0932 12.3181C25.9796 12.4587 26.0932 12.6046 26.1472 12.7344C26.7097 14.1727 26.8449 15.6705 26.8232 17.1953C26.8232 17.5251 26.8286 17.8658 26.3906 17.9199C25.9796 17.9685 25.9904 17.5954 25.9093 17.3629C25.8228 17.098 25.7417 16.833 25.6551 16.5681C26.0121 18.6552 25.9796 20.5585 25.5416 22.6511L25.5361 22.6457Z" fill="#CE3D95"/>
<path id="Vector_3" d="M30.1653 10.804C31.3659 12.145 31.9067 13.8158 32.415 15.4974C32.4799 15.7191 32.5394 15.9408 32.6367 16.2977C33.0099 15.8435 33.1451 15.4433 33.2857 15.0432C33.3938 14.7404 33.4371 14.3944 33.6155 14.1456C33.8535 13.8266 33.9076 13.5238 33.8697 13.2156C33.0802 12.145 32.0797 11.1987 30.8413 10.3985C30.5709 10.2255 30.3492 10.0146 30.1383 9.78748C30.1221 9.81451 30.1058 9.84696 30.0842 9.87399C29.7651 10.2255 29.8733 10.4742 30.1653 10.7986V10.804Z" fill="#CE3D95"/>
<path id="Vector_4" d="M2.50399 16.487C2.42828 17.3576 2.34176 18.2281 2.27145 19.0987C2.1687 20.4072 2.1633 21.7103 2.5094 23.008C2.53103 22.9053 2.54725 22.808 2.56888 22.7052C2.35256 22.7052 2.28766 22.0131 2.35255 20.3477C2.41745 18.8608 2.46613 18.5147 2.87713 17.2981C3.6072 15.119 4.46704 13.6104 5.87309 11.9829C7.06282 10.5986 8.39315 9.74431 11.0971 8.6034C11.7352 8.33304 12.3031 8.12757 12.3625 8.14379C12.7195 8.25734 12.4761 8.48985 11.7082 8.80887C10.221 9.42529 8.8258 10.1552 8.00921 10.7284C6.33277 11.918 4.71579 14.0808 3.76941 16.4383C3.09343 18.1146 2.87171 19.0879 2.75814 21.1263C2.73651 21.5157 2.70408 21.8671 2.67163 22.1429C2.7203 21.8941 2.76357 21.6454 2.81224 21.3967C3.08804 19.9692 3.63423 18.6607 4.52653 17.509C4.66173 17.3359 4.78609 17.0115 5.04567 17.1575C5.28361 17.2927 5.12138 17.5847 5.04567 17.8009C4.7266 18.7742 4.46162 19.7637 4.3102 20.7803C4.27776 20.9858 4.09389 21.3102 4.41837 21.3697C4.70498 21.4237 4.71579 21.0615 4.78069 20.8506C4.99159 20.1368 5.17006 19.4069 5.39719 18.6985C5.61892 18.001 5.97583 17.3684 6.44091 16.8006C6.68967 16.4978 6.92764 15.9733 7.37108 16.2221C7.87402 16.5032 7.49006 16.9953 7.33864 17.3576C6.94386 18.3038 6.4896 19.223 6.08942 20.1639C5.73791 20.9912 5.79197 20.883 6.61938 21.0506C6.91681 21.1101 7.1764 21.1263 7.40353 21.1047C7.91728 19.6232 8.97182 17.4819 9.94524 15.9896C11.3134 13.8916 13.6064 11.7882 15.2341 11.161C15.5532 11.0312 15.8344 10.9285 15.8506 10.9177C15.8615 10.9177 15.8993 10.9663 15.9534 11.0312C15.9912 11.1069 15.6613 11.3232 15.2233 11.5449C13.5739 12.3397 11.3026 14.6432 9.94524 16.9358C9.13947 18.293 8.55 19.5258 8.11737 20.8344C8.42562 20.6073 8.66355 20.2504 8.86904 19.7583C9.24219 18.8608 9.89656 18.0929 10.5401 17.3467C10.6753 17.1899 10.8267 16.9574 11.0593 17.1196C11.2648 17.2656 11.0917 17.4765 11.0214 17.6387C10.5347 18.6823 10.0534 19.7313 9.54503 20.7641C9.33953 21.1858 9.4531 21.3588 9.89114 21.4886C10.7726 21.7482 10.778 21.7752 11.1782 20.9533C11.8758 19.5258 12.8276 18.266 13.7416 16.9791C13.8497 16.8331 13.9687 16.5897 14.185 16.7357C14.3797 16.8655 14.2445 17.0872 14.1634 17.2548C13.4874 18.6553 12.7141 20.0125 12.0922 21.44C11.865 21.959 11.8867 22.2294 12.4977 22.4078C13.4441 22.6836 13.4495 22.7268 13.8605 21.8239C14.4825 20.4558 15.2017 19.1527 16.2292 18.0443C16.359 17.9037 16.4996 17.7739 16.651 17.655C16.7051 17.6117 16.8186 17.6009 16.8835 17.6279C16.9971 17.6766 17.0133 17.7901 16.9647 17.8983C16.8835 18.0713 16.8078 18.2497 16.7051 18.4119C15.9101 19.7043 15.3044 21.0939 14.6609 22.4673C14.477 22.862 14.5419 23.0405 14.9854 23.1216C16.9917 23.5001 16.678 23.5487 17.3594 21.959C18.0949 20.2396 18.9872 18.5904 19.6794 16.8547C19.4685 17.0439 19.555 16.0112 19.9173 14.9189C19.9444 14.8432 20.0471 14.7675 20.1229 14.7675C20.2364 14.7675 20.2418 15.1082 20.1607 15.5354C20.1715 15.5083 20.1823 15.4813 20.1877 15.4542C20.2472 15.2704 20.3283 15.0325 20.5609 15.1082C20.8097 15.1893 20.7556 15.4542 20.7339 15.6651C20.5609 17.3089 20.0093 18.8662 19.5659 20.445C19.3171 21.3264 19.0359 22.2024 18.6627 23.0405C18.5005 23.4081 18.5275 23.5758 18.9818 23.6082C19.501 23.6407 19.7713 23.6353 19.9606 23.473C19.9768 23.4352 19.9931 23.4027 20.0093 23.3649C20.0634 23.2351 20.1175 23.0513 20.2364 22.9756C20.2635 22.8999 20.2905 22.8188 20.3176 22.7214C20.788 21.1263 21.2099 19.515 21.6641 17.9199C21.7236 17.7144 21.6857 17.3467 21.9886 17.3792C22.2968 17.4116 22.2752 17.7739 22.259 18.0118C22.1724 19.6069 22.0264 21.1966 21.6263 22.7593C21.5614 23.0134 21.2153 23.3757 21.6912 23.5758C22.1184 23.7542 22.5456 23.473 22.6808 22.9539C22.9242 22.0239 23.1297 21.0831 23.1567 20.1206C23.2 18.6282 23.227 17.1359 23.2594 15.6489C23.2594 15.4975 23.2594 15.3461 23.2865 15.2001C23.3189 15.0379 23.346 14.8324 23.5569 14.8162C23.7732 14.8 23.8327 14.9946 23.8651 15.1569C23.9787 15.7625 24.1247 16.3681 24.1734 16.9845C24.3248 18.877 24.487 20.7749 24.0436 22.6511C23.9408 23.0945 24.0922 23.1432 24.4546 23.008C24.6276 22.9431 24.8007 22.8674 24.9737 22.8025C25.0494 22.4997 25.1143 22.2132 25.163 21.9374C25.4983 20.1855 25.3577 16.9574 24.844 14.9622C24.5357 13.7726 24.4329 13.2427 24.46 12.9832C24.4384 12.9183 24.4167 12.8534 24.3951 12.7831C24.2274 12.2478 23.9787 11.8639 23.3622 11.8152C23.2 11.8044 23.0431 11.7017 22.8755 11.6584C22.3725 11.5287 22.3401 11.2853 22.6267 10.8798C23.6596 9.40906 24.5627 7.86261 25.4334 6.29454C25.1792 6.36483 25.4226 5.84034 26.0445 4.99683C26.2229 4.7535 26.4014 4.48855 26.5528 4.25064C26.7097 3.96406 26.8719 3.68289 27.0287 3.39631C27.0287 3.39631 27.0287 3.39631 27.0287 3.3909C27.0774 3.30439 27.1261 3.21788 27.1748 3.13137C27.3262 2.75828 27.5154 2.40141 27.748 2.06616C27.364 2.14186 27.0287 2.33651 26.8016 2.69879C26.277 3.53149 25.5848 4.23442 24.9143 4.94816C23.8381 6.09988 22.432 6.40269 20.9935 6.23507C18.6627 5.96471 16.3482 5.5105 13.9957 5.68894C11.1404 5.91063 8.55539 6.79741 6.44091 8.85753C4.34806 10.896 3.05017 13.3401 2.18491 15.9896C2.21736 15.9842 2.25522 15.9733 2.29849 15.9896C2.54184 16.0544 2.48777 16.2924 2.47154 16.4762L2.50399 16.487ZM23.7245 7.1651C24.0057 6.84607 24.3518 6.57572 24.4924 6.57572C24.6222 6.57572 24.7358 6.60275 24.7358 6.6406C24.7358 6.67845 24.3789 7.1651 23.9408 7.70581C23.492 8.24112 23.0431 8.83049 22.9295 9.01433C22.816 9.19817 22.6754 9.29551 22.6213 9.24685C22.4699 9.10626 23.1459 7.82477 23.7245 7.17051V7.1651ZM20.5068 12.4533C19.263 13.7348 18.0192 15.0163 16.7754 16.2978C16.6888 16.3897 16.5969 16.4762 16.4942 16.5573C16.3806 16.6492 16.2454 16.7628 16.1048 16.6222C15.9858 16.5086 16.0832 16.3735 16.1481 16.2761C16.4293 15.849 16.6943 15.411 17.0133 15.0163C17.8407 13.9997 18.5654 12.8804 19.6632 12.1072C19.8903 11.9504 20.1175 11.7882 20.4095 11.772C20.5934 11.7612 20.7556 11.799 20.7664 12.0315C20.7502 12.2208 20.6204 12.3343 20.5014 12.4533H20.5068ZM20.2905 7.62471C21.994 6.92178 22.1725 6.86769 22.1725 7.13805C22.1725 7.40841 21.7236 7.65173 20.6096 8.01942C18.268 8.81427 18.0462 8.55473 20.2905 7.62471ZM18.9061 11.0961C19.1062 11.3773 18.7871 11.5503 18.5979 11.7017C16.9593 12.994 15.2882 14.2484 13.7848 15.7084C13.7091 15.7787 13.6172 15.8327 13.5361 15.8922C13.2224 15.7895 13.3414 15.5948 13.4225 15.4326C13.6767 14.9352 14.0012 14.4864 14.3689 14.07C15.4667 12.8318 16.6618 11.7179 18.2572 11.1339C18.4735 11.0528 18.7492 10.8744 18.9061 11.0961ZM15.1963 7.22457C16.1589 7.08398 17.1323 7.11101 17.0782 7.27323C17.0512 7.33811 16.4779 7.4679 15.7965 7.55441C15.1043 7.64633 14.3364 7.74906 14.0823 7.78691C13.7902 7.83558 13.5956 7.82476 13.5956 7.74906C13.5956 7.58144 14.2499 7.36515 15.1963 7.22457ZM13.1034 11.0096C13.1683 11.2042 13.0385 11.334 12.9088 11.4475C12.0759 12.1721 11.2377 12.8967 10.3995 13.6212C9.9993 13.9673 9.59371 14.3133 9.18271 14.6486C9.08537 14.7297 8.96098 14.8054 8.8366 14.7027C8.7014 14.5945 8.78254 14.4647 8.85284 14.362C9.76136 13.0643 10.8051 11.8963 12.1408 11.0204C12.3139 10.9068 12.5356 10.8744 12.6762 10.8203C12.9088 10.7987 13.0493 10.8419 13.1034 11.0096Z" fill="#CE3D95"/>
<path id="Vector_5" d="M2.19032 28.0907C1.88748 27.6906 1.62249 27.2797 1.37914 26.8579C1.59004 27.3013 1.85503 27.7176 2.19032 28.0907Z" fill="#A9026E"/>
<path id="Vector_6" d="M25.0062 22.8079C24.8331 22.8728 24.6601 22.9485 24.487 23.0134C24.1247 23.1486 23.9733 23.0999 24.076 22.6565C24.5141 20.7803 24.3518 18.8824 24.2058 16.9899C24.1572 16.3788 24.0111 15.7733 23.8976 15.1623C23.8651 14.9946 23.8056 14.8 23.5893 14.8216C23.3784 14.8378 23.3514 15.0433 23.3189 15.2055C23.2919 15.3515 23.2973 15.5029 23.2919 15.6543C23.2595 17.1467 23.2324 18.639 23.1892 20.126C23.1621 21.0885 22.9566 22.0293 22.7133 22.9593C22.5781 23.4784 22.1454 23.7596 21.7236 23.5812C21.2423 23.3811 21.5938 23.0188 21.6587 22.7647C22.0535 21.2074 22.2049 19.6177 22.2914 18.0172C22.3022 17.7793 22.3293 17.417 22.021 17.3846C21.7182 17.3521 21.7561 17.7198 21.6966 17.9253C21.2423 19.5258 20.8151 21.1317 20.35 22.7268C20.323 22.8242 20.2959 22.8999 20.2689 22.981C20.3284 22.9431 20.4041 22.9323 20.5122 22.9702C20.7826 23.0783 20.6204 23.3378 20.588 23.5325C20.2581 25.5494 19.1927 27.2202 18.0841 28.8748C17.9543 29.0694 17.5271 29.3236 17.8353 29.529C18.1111 29.7183 18.5924 29.7021 18.8736 29.3344C19.0305 29.1343 19.1657 28.9126 19.2955 28.6963C19.9282 27.6582 20.523 26.5984 21.0692 25.5115C21.1666 25.3169 21.2477 24.9546 21.5073 25.0519C21.8642 25.1817 21.5776 25.5007 21.5235 25.7116C21.2315 26.8309 20.7448 27.8744 20.1986 28.891C20.1175 29.0478 19.9174 29.2208 20.085 29.4047C20.204 29.5398 20.4095 29.4533 20.5771 29.4317C21.1666 29.3506 21.7561 29.2533 22.3401 29.1505C22.4158 29.0532 22.4861 28.9613 22.5456 28.8748C23.3892 27.6906 24.4816 24.987 25.0224 22.8025L25.0062 22.8079Z" fill="#A9026E"/>
<path id="Vector_7" d="M28.8187 9.42527C27.5425 8.36547 26.8449 7.00286 26.7529 5.48345C26.7583 5.24554 26.78 5.01845 26.807 4.79675C26.3528 5.42398 25.666 6.22964 25.4929 6.29453C25.4821 6.29453 25.4821 6.29453 25.4713 6.29453C24.6006 7.8626 23.6975 9.40905 22.6646 10.8798C22.3834 11.2799 22.4104 11.5286 22.9133 11.6584C23.0756 11.7017 23.2324 11.8044 23.4 11.8152C24.0165 11.8585 24.2653 12.2478 24.433 12.7831C24.4546 12.848 24.4762 12.9129 24.4979 12.9832C24.5087 12.8967 24.5357 12.8372 24.5736 12.7993C24.7034 12.6858 24.752 12.848 25.2387 14.6432C25.4172 15.3082 25.547 15.9409 25.6497 16.5627C25.7363 16.8277 25.8174 17.0926 25.9039 17.3576C25.9796 17.5955 25.9742 17.9632 26.3852 17.9145C26.8286 17.8604 26.8178 17.5198 26.8178 17.1899C26.8395 15.6651 26.7043 14.1673 26.1418 12.729C26.0878 12.5939 25.9742 12.4533 26.0878 12.3127C26.3528 11.9828 27.483 12.1667 27.6507 12.5722C28.132 13.7564 28.597 14.9514 29.0783 16.1355C29.1594 16.3356 29.1649 16.6979 29.4677 16.6222C29.7435 16.5573 29.6407 16.2166 29.6299 16.0058C29.565 14.6107 29.1324 13.286 28.7647 11.9504C28.7106 11.7503 28.5375 11.5178 28.7917 11.3773C29.0837 11.2096 29.1432 11.5395 29.2406 11.6909C30.4411 13.5509 31.0955 15.611 31.3821 17.7955C31.4199 18.0929 31.3983 18.3903 31.209 18.6553C31.1928 18.6769 31.1712 18.6985 31.155 18.7201C31.1766 18.7688 31.1982 18.8175 31.2144 18.8715C31.2901 19.1149 31.3929 19.6123 31.447 19.9854C31.5119 20.5207 31.4957 20.6613 31.3713 20.6235C31.2577 20.5856 30.9873 19.7475 30.8521 19.1041C30.2951 19.7799 29.6462 20.3639 28.9323 20.8776C28.6295 21.0939 28.4835 21.056 28.4835 20.6451C28.4835 19.834 28.543 19.0229 28.3645 18.2227C28.3212 18.0334 28.3158 17.8009 28.0887 17.7631C27.8021 17.7198 27.7426 17.9956 27.7101 18.1902C27.5912 18.8824 27.4343 19.5799 27.4127 20.2774C27.3749 21.5427 26.8773 22.37 25.574 22.6241C25.5632 22.6241 25.547 22.6295 25.5362 22.6349C25.4064 23.2676 25.2496 23.9056 25.0441 24.5869C24.46 26.5335 23.9246 27.8096 23.1134 28.9991C24.195 28.7829 25.2658 28.5341 26.3311 28.2475C26.8287 28.1124 27.1369 27.869 27.3262 27.3716C27.9751 25.6791 28.8512 24.0786 29.2568 22.2943C29.3 22.0996 29.3487 21.8239 29.6245 21.8509C29.8949 21.8779 29.8787 22.1483 29.9166 22.3538C30.1761 23.6947 29.7273 24.9221 29.2946 26.155C29.1757 26.4902 28.9648 26.793 28.9269 27.2634C29.3812 27.1391 29.7976 26.966 30.1978 26.7822C30.7818 25.5764 31.1387 24.4085 31.1387 23.5487C31.1387 22.8188 31.2793 22.6403 31.5227 23.0729C31.739 23.4838 31.6741 24.2625 31.3172 25.4683C31.2307 25.7765 31.1117 26.0955 30.9873 26.4199C30.9927 26.4199 30.9981 26.4145 31.0089 26.4091C32.2582 25.863 32.972 25.0249 33.1559 23.5974C33.3506 22.0942 33.5398 20.5964 33.6696 19.0932C33.6913 18.8499 33.6696 18.5093 33.9887 18.4768C34.3077 18.4444 34.2753 18.8013 34.3456 19.0013C34.762 20.2017 35 21.4291 34.7674 22.7106C34.7512 22.808 34.7674 22.9161 34.7674 23.1107C35.2704 22.7485 35.7733 22.543 35.9463 21.9428C36.0004 21.7536 36.0653 21.494 36.233 21.3751C36.2816 20.3747 36.2221 19.3852 36.0275 18.3903C35.876 17.6117 35.6976 16.9034 35.4759 16.2437C35.0865 15.146 34.5619 14.1349 33.8805 13.2157C33.9184 13.5185 33.8643 13.8267 33.6264 14.1457C33.4425 14.389 33.3992 14.7405 33.2965 15.0433C33.1559 15.4434 33.0207 15.8435 32.6475 16.2977C32.5502 15.9409 32.4907 15.7138 32.4258 15.4975C31.9229 13.8159 31.3767 12.1451 30.1761 10.8041C29.8841 10.4797 29.7759 10.2309 30.095 9.87947C30.1166 9.85243 30.1383 9.82539 30.1491 9.79295C30.1167 9.76051 30.0842 9.73348 30.0571 9.70104C29.6299 9.96058 29.1703 9.70644 28.8296 9.42527H28.8187ZM25.1306 10.3661C25.0278 10.3012 25.0819 9.94436 25.3252 8.77642C25.428 8.30059 25.6335 8.45739 25.6335 9.00892C25.6335 9.5983 25.3144 10.4688 25.136 10.3661H25.1306ZM28.1373 11.5287C27.8561 11.8098 27.4181 10.4526 27.4181 9.29009C27.4181 8.12755 27.7101 8.27896 27.8129 9.46853C27.8616 9.95518 27.9643 10.6094 28.0563 10.9176C28.132 11.2096 28.1698 11.4962 28.1319 11.5341L28.1373 11.5287ZM27.7047 24.1489C27.5803 25.0519 27.1748 25.8468 26.7421 26.6308C26.6935 26.7227 26.5907 26.8038 26.4771 26.7335C26.3473 26.6578 26.3798 26.5119 26.3636 26.3496C26.4934 25.5386 26.7637 24.7329 27.1585 23.9705C27.2288 23.8353 27.3424 23.7164 27.5155 23.7758C27.6831 23.8353 27.7209 23.9921 27.6993 24.1489H27.7047ZM29.9598 11.0799C30.5979 11.7612 30.4357 11.9125 29.7056 11.3124C29.2189 10.9014 28.451 9.84162 28.451 9.56045C28.451 9.25224 28.6673 9.39283 29.0297 9.93354C29.2243 10.2255 29.6462 10.7554 29.9652 11.0853L29.9598 11.0799Z" fill="#A9026E"/>
<path id="Vector_8" d="M18.998 23.6136C18.5438 23.5811 18.5167 23.4135 18.679 23.0458C19.0521 22.2077 19.3387 21.3318 19.5821 20.4504C20.0255 18.8715 20.5771 17.3197 20.7502 15.6705C20.7718 15.4596 20.8259 15.1947 20.5771 15.1136C20.3446 15.0379 20.2635 15.2758 20.204 15.4596C20.1932 15.4867 20.1824 15.5137 20.177 15.5407C20.1229 15.8273 20.0363 16.1463 19.9173 16.4383C19.82 16.6816 19.7443 16.8114 19.6902 16.8655C18.9926 18.6012 18.1057 20.2504 17.3703 21.9698C16.6889 23.5649 16.9971 23.5109 14.9962 23.1324C14.5527 23.0512 14.4879 22.8728 14.6717 22.4781C15.3153 21.1101 15.9209 19.715 16.7159 18.4227C16.8132 18.2605 16.8944 18.0821 16.9755 17.9091C17.0242 17.8009 17.0133 17.6874 16.8944 17.6387C16.8295 17.6117 16.7159 17.6225 16.6618 17.6657C16.5104 17.7793 16.3698 17.9145 16.24 18.055C15.2125 19.1635 14.4932 20.4666 13.8713 21.8346C13.4603 22.743 13.4604 22.6998 12.5086 22.4186C11.8975 22.2402 11.8759 21.9698 12.103 21.4507C12.7249 20.0232 13.4982 18.6661 14.1742 17.2656C14.2553 17.098 14.3905 16.8763 14.1958 16.7465C13.9795 16.6005 13.8551 16.8438 13.7524 16.9898C12.8384 18.2767 11.8867 19.5366 11.1891 20.9641C10.7889 21.786 10.7835 21.7589 9.90197 21.4994C9.46934 21.3696 9.35036 21.202 9.55586 20.7748C10.0642 19.7421 10.5455 18.6985 11.0322 17.6495C11.1079 17.4873 11.2756 17.2764 11.0701 17.1304C10.8321 16.9628 10.6807 17.2007 10.5509 17.3575C9.91279 18.1037 9.25842 18.8715 8.87987 19.7691C8.67437 20.2612 8.43642 20.618 8.12817 20.8451C7.57657 22.5051 7.27913 24.2787 7.1169 26.5767C7.08986 27.112 7.02499 27.5662 6.97091 27.7446C7.4468 28.1772 8.07952 28.3881 8.7555 28.5719C9.15028 28.6801 9.16109 28.3719 9.22057 28.1286C9.49097 26.9606 9.86411 25.8305 10.4698 24.7869C10.5347 24.6788 10.5942 24.5652 10.6699 24.4625C10.7943 24.2949 10.9078 24.0408 11.162 24.1597C11.427 24.2841 11.2864 24.5274 11.2215 24.7221C10.8484 25.8143 10.6266 26.9444 10.459 28.0853C10.34 28.9018 10.8646 29.3884 11.6541 29.1775C11.9299 29.1018 11.9624 28.8477 12.0543 28.6368C12.6492 27.258 13.363 25.9549 14.3202 24.7869C14.4284 24.6572 14.5419 24.5274 14.6663 24.4138C14.8123 24.2841 14.98 24.1543 15.1747 24.3111C15.3369 24.4463 15.2558 24.6247 15.1909 24.7815C14.7258 25.9278 14.2715 27.0796 13.7902 28.2205C13.5253 28.8585 13.4009 29.1235 13.5198 29.2695C13.7145 28.9234 14.039 28.3989 14.5473 27.5932C15.6235 25.863 15.8777 25.3655 17.3 22.2672C17.8786 21.0019 18.414 19.8881 18.4897 19.7853C19.117 19.0283 17.9273 22.1807 16.4672 25.1492C15.7641 26.5875 14.5582 28.5287 13.8605 29.4155C14.0336 29.4479 14.2715 29.4803 14.5852 29.5344C15.8182 29.7345 16.4131 29.2424 17.0296 28.2854C18.0462 26.7065 19.2035 25.2195 19.9769 23.4892C19.7876 23.6514 19.5172 23.6568 18.998 23.6244V23.6136Z" fill="#A9026E"/>
<path id="Vector_9" d="M27.0612 3.4071C26.9043 3.69368 26.7421 3.97486 26.5853 4.26144C26.7691 3.97486 26.9152 3.72073 26.9692 3.58555C26.9963 3.52066 27.0287 3.46118 27.0558 3.4071H27.0612Z" fill="#A9026E"/>
<path id="Vector_10" d="M27.2072 3.14209C27.1585 3.2286 27.1098 3.31512 27.0612 3.40164C27.099 3.33675 27.1315 3.28267 27.1639 3.23941C27.1747 3.20697 27.191 3.17453 27.2018 3.14209H27.2072Z" fill="#A9026E"/>
<path id="Vector_11" d="M4.33184 26.3171C4.39133 25.4952 4.31559 24.7653 4.51028 24.0569C4.57517 23.8298 4.64008 23.6081 4.72661 23.3865C4.81313 23.1702 4.91589 22.916 5.2025 22.9323C5.49994 22.9485 5.5378 23.2242 5.58106 23.4513C5.79197 24.5165 5.97042 25.5818 6.28408 26.6307C6.39765 27.0092 6.57068 27.3012 6.77618 27.5391C6.58691 26.5388 6.81404 23.1269 7.25208 21.6021C7.29534 21.4507 7.35482 21.2831 7.41431 21.11C7.18718 21.1317 6.92763 21.1155 6.63019 21.056C5.79738 20.8884 5.74868 20.9965 6.1002 20.1692C6.50038 19.2284 6.95464 18.3091 7.34942 17.3629C7.50084 17.0006 7.87939 16.5086 7.38186 16.2274C6.93842 15.9787 6.70049 16.5031 6.45172 16.8059C5.98665 17.3737 5.63514 18.0063 5.40801 18.7039C5.18087 19.4122 5.00241 20.1422 4.7915 20.8559C4.7266 21.0722 4.7158 21.4291 4.42918 21.375C4.10471 21.3155 4.29398 20.9857 4.32102 20.7856C4.47244 19.7691 4.73741 18.785 5.05648 17.8063C5.12678 17.59 5.29443 17.298 5.05648 17.1628C4.79149 17.0168 4.67254 17.3413 4.53734 17.5143C3.63964 18.666 3.09882 19.9745 2.82302 21.402C2.77435 21.6508 2.72567 21.8995 2.68241 22.1482C2.64456 22.4835 2.60673 22.6997 2.57428 22.7051C2.55265 22.8079 2.5364 22.9052 2.51477 23.0079C2.16866 21.7102 2.17407 20.4071 2.27682 19.0986C2.34171 18.228 2.43368 17.3575 2.50939 16.4869C2.52561 16.2977 2.57428 16.0652 2.33633 16.0003C2.29307 15.9895 2.2552 16.0003 2.22275 16.0003C1.93073 16.8817 1.69278 17.7846 1.48188 18.7039C1.0871 20.445 0.978946 22.1915 1.38454 23.8839C1.86043 24.1488 2.28766 24.4895 2.67703 24.8788C3.16915 25.3709 3.63961 25.8954 4.34263 26.3117L4.33184 26.3171Z" fill="#A9026E"/>
<path id="Vector_12" d="M14.3743 14.0754C14.0065 14.4863 13.682 14.9405 13.4279 15.438C13.3468 15.6002 13.2224 15.7895 13.5415 15.8976C13.6226 15.8381 13.7145 15.7895 13.7902 15.7138C15.2936 14.2538 16.9646 13.0048 18.6032 11.7071C18.7925 11.5611 19.1062 11.388 18.9115 11.1015C18.7547 10.8798 18.4843 11.0582 18.2625 11.1393C16.6672 11.7233 15.4721 12.8372 14.3743 14.0754Z" fill="#A9026E"/>
<path id="Vector_13" d="M20.4095 11.7719C20.1175 11.7827 19.8903 11.9449 19.6632 12.1071C18.5654 12.8804 17.8407 13.9996 17.0133 15.0162C16.6942 15.4109 16.4293 15.8489 16.1481 16.2761C16.0832 16.3734 15.9858 16.5086 16.1048 16.6221C16.2454 16.7627 16.3806 16.6492 16.4942 16.5572C16.5915 16.4761 16.6834 16.3896 16.7754 16.2977C18.0192 15.0162 19.263 13.7347 20.5068 12.4532C20.6258 12.3343 20.7556 12.2153 20.7718 12.0315C20.7556 11.7989 20.5988 11.7611 20.4149 11.7719H20.4095Z" fill="#A9026E"/>
<path id="Vector_14" d="M8.85825 14.3728C8.78795 14.4755 8.70681 14.5999 8.84201 14.7134C8.96639 14.8161 9.09078 14.7404 9.18812 14.6593C9.59912 14.3187 10.0047 13.978 10.4049 13.632C11.2431 12.9074 12.0759 12.1829 12.9142 11.4583C13.044 11.3448 13.1737 11.215 13.1088 11.0203C13.0548 10.8527 12.9142 10.8095 12.6816 10.8311C12.5464 10.8798 12.3193 10.9176 12.1462 11.0311C10.8105 11.9071 9.76678 13.075 8.85825 14.3728Z" fill="#A9026E"/>
<path id="Vector_15" d="M11.0809 35.85C11.6974 36.2177 12.3626 36.5042 13.0764 36.6989C13.1467 36.7205 13.2278 36.7259 13.3035 36.7313C13.0656 36.6827 12.7519 36.5745 12.2868 36.4069C11.8704 36.2555 11.4648 36.0609 11.0809 35.85Z" fill="#6D3A25"/>
<path id="Vector_16" d="M36.2221 21.3805C36.2221 21.3805 36.2654 21.3426 36.2924 21.3318C36.3195 20.6235 36.2924 19.9043 36.1843 19.1852C36.0329 18.1524 35.7949 17.1737 35.465 16.2545C35.6813 16.9142 35.8652 17.6225 36.0166 18.4012C36.2113 19.3961 36.2762 20.3856 36.2221 21.3859V21.3805Z" fill="#6D3A25"/>
<path id="Vector_17" d="M14.1742 36.5421C14.1742 36.5421 14.1688 36.5205 14.1688 36.5096L14.1201 36.5475C13.9741 36.6665 13.8551 36.7368 13.7037 36.7584C13.747 36.7584 13.7902 36.7584 13.8335 36.7584C13.9795 36.7584 14.158 36.7097 14.1742 36.5367V36.5421Z" fill="#6D3A25"/>
<path id="Vector_18" d="M4.33723 9.32245C7.32779 5.59693 11.162 4.09915 15.71 4.4398C13.9903 4.283 12.6708 4.36952 11.4053 4.69935C9.81542 5.11029 8.43644 5.67263 7.40894 6.31067C6.47338 6.91086 4.45081 8.93315 3.56932 10.1768C2.36337 11.88 0.892416 15.4758 0.31918 18.1415C0.221838 18.5903 0.162359 19.0769 0.124504 19.715C0.156951 19.4987 0.1894 19.2824 0.227255 19.0661C0.892425 15.5353 2.03888 12.1828 4.33723 9.32245Z" fill="#6D3A25"/>
<path id="Vector_19" d="M0.378695 24.5058C0.400327 24.5707 0.427336 24.6301 0.448968 24.6896C0.319178 24.2516 0.211044 23.8028 0.135334 23.3486C0.178597 23.7812 0.248906 24.084 0.378695 24.5058Z" fill="#6D3A25"/>
<path id="Vector_20" d="M24.6493 4.15869C25.4983 3.24488 26.2392 2.28241 26.8557 1.20098C27.4451 0.168215 28.3266 -0.156209 29.4082 0.124963C28.9972 0.000598309 28.4943 -0.0426668 28.0887 0.0492547C27.51 0.179026 26.9855 0.703512 26.4231 1.71465C25.9363 2.5852 24.3248 4.43985 23.7083 4.82376C23.5136 4.95353 22.9404 5.13196 22.4266 5.24551C22.0643 5.32121 21.8372 5.35907 21.5722 5.35907C21.1882 5.35907 20.7177 5.27256 19.6362 5.05086C19.4631 5.01842 19.3009 4.98598 19.1386 4.95354C18.7331 4.87243 18.3437 4.80754 17.9759 4.74265C18.8791 4.91027 19.7714 5.11574 20.6745 5.28337C22.1725 5.55913 23.5244 5.36988 24.6493 4.15328V4.15869Z" fill="#6D3A25"/>
<path id="Vector_21" d="M8.36612 33.5411C8.39316 33.4329 8.38775 33.3464 8.36071 33.2761C8.34989 33.3302 8.33368 33.3843 8.30664 33.4546C8.21471 33.7087 8.24716 33.9953 8.37695 34.2927C8.31746 34.0656 8.30123 33.8168 8.37153 33.5411H8.36612Z" fill="#6D3A25"/>
<path id="Vector_22" d="M26.807 4.79676C26.8719 4.23983 26.9855 3.72074 27.1694 3.2395C27.1369 3.28276 27.1045 3.33684 27.0666 3.40173C27.0666 3.40173 27.0666 3.40171 27.0666 3.40712C27.0342 3.46119 27.0071 3.52068 26.9801 3.58557C26.926 3.72075 26.78 3.96947 26.5961 4.26146C26.4447 4.49937 26.2662 4.76433 26.0878 5.00765C25.4659 5.85116 25.2225 6.37565 25.4767 6.30536C25.4875 6.30536 25.4875 6.30536 25.4983 6.30536C25.6714 6.24047 26.3636 5.42939 26.8124 4.80757L26.807 4.79676Z" fill="#6D3A25"/>
<path id="Vector_23" d="M22.9295 9.01429C23.0431 8.83586 23.492 8.24649 23.9408 7.70577C24.3789 7.17047 24.7358 6.68382 24.7358 6.64057C24.7358 6.59731 24.6222 6.57568 24.4924 6.57568C24.3518 6.57568 24.0057 6.84604 23.7245 7.16506C23.1459 7.81932 22.4699 9.10082 22.6213 9.2414C22.67 9.29007 22.816 9.19274 22.9295 9.0089V9.01429Z" fill="#6D3A25"/>
<path id="Vector_24" d="M20.6096 8.0248C21.7236 7.65171 22.1725 7.39757 22.1725 7.14344C22.1725 6.87308 21.994 6.92715 20.2905 7.63008C18.0516 8.56551 18.268 8.81965 20.6096 8.0248Z" fill="#6D3A25"/>
<path id="Vector_25" d="M14.0822 7.79769C14.3364 7.75984 15.1043 7.65711 15.7965 7.56519C16.4725 7.47327 17.0512 7.34891 17.0782 7.28402C17.1269 7.1164 16.1589 7.08937 15.1963 7.23536C14.2499 7.37595 13.5956 7.59223 13.5956 7.75985C13.5956 7.83555 13.7902 7.85176 14.0822 7.79769Z" fill="#6D3A25"/>
<path id="Vector_26" d="M3.77483 16.4491C4.72121 14.0916 6.33819 11.9288 8.01463 10.7392C8.83663 10.1606 10.2318 9.43608 11.7136 8.81967C12.4815 8.50065 12.7249 8.26813 12.368 8.15458C12.3031 8.14377 11.7406 8.34924 11.1025 8.61419C8.39857 9.7551 7.06824 10.6094 5.87851 11.9937C4.47246 13.6212 3.61258 15.1298 2.88252 17.3089C2.47152 18.5255 2.42287 18.8715 2.35797 20.3585C2.29308 22.0239 2.35798 22.716 2.5743 22.716C2.60134 22.716 2.64458 22.4943 2.68243 22.1591C2.71488 21.8833 2.74734 21.5319 2.76898 21.1426C2.88254 19.1095 3.10426 18.1362 3.78025 16.4546L3.77483 16.4491Z" fill="#6D3A25"/>
<path id="Vector_27" d="M25.3252 8.78179C25.0819 9.94432 25.0332 10.3066 25.1306 10.3715C25.309 10.4742 25.6281 9.60367 25.6281 9.01429C25.6281 8.46276 25.4226 8.31136 25.3199 8.78179H25.3252Z" fill="#6D3A25"/>
<path id="Vector_28" d="M27.8183 9.47392C27.7155 8.28434 27.4235 8.15458 27.4235 9.29549C27.4235 10.4364 27.8615 11.8152 28.1428 11.534C28.1806 11.4962 28.1427 11.215 28.067 10.9176C27.9751 10.6094 27.8724 9.95516 27.8237 9.46852L27.8183 9.47392Z" fill="#6D3A25"/>
<path id="Vector_29" d="M28.4456 9.56045C28.4456 9.84162 29.2135 10.9068 29.7002 11.3124C30.4303 11.9126 30.5979 11.7612 29.9544 11.0799C29.6353 10.7446 29.2135 10.2201 29.0188 9.92813C28.6619 9.39282 28.4402 9.25224 28.4402 9.55504L28.4456 9.56045Z" fill="#6D3A25"/>
<path id="Vector_30" d="M8.12818 20.8452C8.56081 19.542 9.15027 18.3038 9.95604 16.9466C11.3134 14.654 13.5793 12.3505 15.2341 11.5557C15.6722 11.3394 16.0021 11.1231 15.9642 11.042C15.9155 10.9771 15.8723 10.9285 15.8614 10.9285C15.8506 10.9393 15.5694 11.042 15.245 11.1718C13.6172 11.799 11.3242 13.897 9.95604 16.0004C8.98262 17.4927 7.92808 19.634 7.41433 21.1155C7.35484 21.2886 7.30077 21.4562 7.2521 21.6076C6.81947 23.1324 6.58693 26.5443 6.77621 27.5446C6.83569 27.6149 6.8952 27.6852 6.9655 27.7447C7.01958 27.5663 7.07904 27.112 7.11149 26.5767C7.27373 24.2841 7.57657 22.5052 8.12276 20.8452H8.12818Z" fill="#6D3A25"/>
<path id="Vector_31" d="M25.5361 22.6457C25.9742 20.5586 26.0066 18.6499 25.6497 16.5627C25.5416 15.9409 25.4118 15.3082 25.2387 14.6432C24.752 12.8534 24.7033 12.6858 24.5736 12.7993C24.5357 12.8426 24.5087 12.8967 24.4978 12.9832C24.4654 13.2427 24.5736 13.7726 24.8818 14.9622C25.3956 16.9574 25.5361 20.1855 25.2009 21.9374C25.1522 22.2132 25.0873 22.5051 25.0116 22.8025C24.4708 24.987 23.3838 27.6906 22.5348 28.8748C22.4753 28.9613 22.405 29.0532 22.3293 29.1505C22.5888 29.1019 22.8538 29.0532 23.1134 28.9991C23.9246 27.8096 24.46 26.5335 25.044 24.5869C25.2495 23.911 25.4064 23.2676 25.5361 22.6349V22.6457Z" fill="#6D3A25"/>
<path id="Vector_32" d="M20.1769 15.5408C20.2581 15.1136 20.2527 14.7729 20.1391 14.7729C20.0634 14.7729 19.9606 14.8486 19.9336 14.9243C19.5713 16.0166 19.4847 17.0493 19.6956 16.8601C19.7497 16.8114 19.8254 16.6763 19.9228 16.4329C20.0417 16.1409 20.1283 15.8219 20.1824 15.5354L20.1769 15.5408Z" fill="#6D3A25"/>
<path id="Vector_33" d="M30.7656 18.5742C30.771 18.7093 30.8034 18.904 30.8467 19.1149C30.9819 19.7637 31.2523 20.5964 31.3659 20.6343C31.4957 20.6721 31.5065 20.5316 31.4416 19.9962C31.3929 19.6232 31.2901 19.1257 31.209 18.8824C31.1928 18.8283 31.1712 18.7742 31.1495 18.731C30.9873 18.3687 30.7386 18.2389 30.7602 18.5796L30.7656 18.5742Z" fill="#6D3A25"/>
<path id="Vector_34" d="M18.5005 19.7799C18.4248 19.8826 17.884 20.9965 17.3108 22.2618C15.8885 25.3601 15.6343 25.8575 14.5581 27.5878C14.0498 28.3935 13.7253 28.9234 13.5306 29.264C13.5847 29.3289 13.6983 29.3722 13.8713 29.4046C14.569 28.5232 15.7803 26.5767 16.4779 25.1384C17.9381 22.1698 19.1278 19.0175 18.5005 19.7745V19.7799Z" fill="#6D3A25"/>
<path id="Vector_35" d="M31.5227 23.0837C31.2793 22.6457 31.1387 22.8295 31.1387 23.5595C31.1387 24.4192 30.7764 25.5872 30.1977 26.793C30.4627 26.674 30.7223 26.5496 30.9873 26.4361C31.1171 26.1117 31.2306 25.7926 31.3172 25.4844C31.6741 24.2786 31.739 23.5 31.5227 23.0891V23.0837Z" fill="#6D3A25"/>
<path id="Vector_36" d="M11.4053 34.9577C10.7564 34.5684 10.0804 34.1737 9.33415 33.7357C9.9182 34.2332 10.5942 34.6171 11.3297 34.9307C11.3513 34.9415 11.3783 34.9469 11.3999 34.9577H11.4053Z" fill="#890151"/>
<path id="Vector_37" d="M18.4573 36.9043C18.0625 36.8881 17.6677 36.8611 17.2783 36.8286C17.5595 37.0016 17.9056 37.0125 18.4573 36.9043Z" fill="#890151"/>
<path id="Vector_38" d="M36.2924 21.3317C36.2654 21.3425 36.2492 21.3642 36.2221 21.3804C36.0545 21.4994 35.995 21.7589 35.9355 21.9482C35.7625 22.5483 35.2595 22.7538 34.7566 23.1161C34.7566 22.9214 34.7404 22.8133 34.7566 22.716C34.9891 21.4399 34.7566 20.2125 34.3348 19.0067C34.2645 18.8066 34.2969 18.4497 33.9778 18.4822C33.6534 18.5146 33.6804 18.8553 33.6588 19.0986C33.5236 20.6072 33.3343 22.105 33.145 23.6027C32.9612 25.0248 32.2474 25.8683 30.9981 26.4145C30.9927 26.4145 30.9873 26.4199 30.9765 26.4253C30.7115 26.5388 30.4519 26.6632 30.1869 26.7821C29.7814 26.966 29.3703 27.139 28.9161 27.2634C28.9539 26.7929 29.1648 26.4902 29.2838 26.1549C29.7218 24.9275 30.1653 23.7001 29.9057 22.3537C29.8679 22.1482 29.8841 21.8779 29.6137 21.8508C29.3325 21.8238 29.2892 22.0996 29.2459 22.2942C28.8404 24.0786 27.9643 25.6791 27.3154 27.3715C27.1261 27.8636 26.8178 28.1123 26.3203 28.2475C25.2549 28.534 24.1842 28.7828 23.1026 28.9991C22.843 29.0531 22.578 29.1018 22.3185 29.1505C21.7344 29.2532 21.145 29.3505 20.5555 29.4316C20.3879 29.4533 20.1878 29.5398 20.0634 29.4046C19.8957 29.2208 20.0958 29.0477 20.177 28.8909C20.7231 27.8744 21.2099 26.8308 21.5019 25.7115C21.556 25.506 21.8426 25.187 21.4856 25.0518C21.2207 24.9545 21.145 25.3168 21.0476 25.5115C20.5014 26.5983 19.9066 27.6581 19.2738 28.6963C19.1386 28.9126 19.0088 29.1342 18.852 29.3343C18.5654 29.702 18.0895 29.7182 17.8137 29.529C17.5109 29.3235 17.9327 29.0694 18.0624 28.8747C19.1711 27.2201 20.2364 25.5493 20.5663 23.5324C20.5987 23.3324 20.761 23.0728 20.4906 22.9701C20.3825 22.9269 20.3067 22.9431 20.2473 22.9809C20.1283 23.0566 20.0742 23.2405 20.0201 23.3702C20.0039 23.4081 19.9877 23.4405 19.9714 23.4784C19.1981 25.2087 18.0408 26.6956 17.0241 28.2745C16.4131 29.2316 15.8182 29.7236 14.5798 29.5236C14.2661 29.4695 14.0282 29.4425 13.8551 29.4046C13.6821 29.3722 13.5739 29.3289 13.5144 29.264C13.3955 29.1234 13.5144 28.8531 13.7848 28.215C14.2607 27.0741 14.7204 25.9224 15.1854 24.7761C15.2503 24.6193 15.3315 24.4354 15.1692 24.3057C14.9746 24.1489 14.8069 24.2786 14.6609 24.4084C14.5365 24.5219 14.4229 24.6517 14.3148 24.7815C13.3576 25.944 12.6438 27.2526 12.0489 28.6314C11.957 28.8423 11.9245 29.0964 11.6487 29.1721C10.8592 29.3884 10.34 28.9017 10.4536 28.0799C10.6158 26.9389 10.8429 25.8089 11.2161 24.7166C11.281 24.522 11.4162 24.2786 11.1566 24.1543C10.9078 24.0353 10.7888 24.2895 10.6645 24.4571C10.5888 24.5598 10.5293 24.6733 10.4644 24.7815C9.8587 25.8251 9.48014 26.9552 9.21516 28.1231C9.16108 28.3664 9.14486 28.6746 8.75009 28.5665C8.0741 28.3826 7.44139 28.1718 6.96549 27.7392C6.9006 27.6797 6.83568 27.6094 6.7762 27.5391C6.5707 27.3012 6.39766 27.0092 6.28409 26.6307C5.97044 25.5818 5.79198 24.5165 5.58108 23.4513C5.53781 23.2242 5.49995 22.9485 5.20252 22.9323C4.9159 22.916 4.81855 23.1648 4.72662 23.3865C4.64009 23.6027 4.56978 23.8298 4.51029 24.0569C4.3102 24.7599 4.39134 25.4952 4.33186 26.3171C3.62883 25.9008 3.15834 25.3763 2.66622 24.8842C2.27685 24.4949 1.84962 24.1543 1.37373 23.8893C1.55759 24.6625 1.84964 25.4249 2.27145 26.1711C3.3314 28.0528 4.83478 29.529 6.59235 30.7348C8.71765 32.1947 10.897 33.5843 13.0548 35.001C13.5469 35.32 14.0877 35.5471 14.6609 35.5904C15.1152 35.6228 15.564 35.6553 16.0183 35.6823C16.094 35.6823 16.1697 35.6823 16.24 35.6931C19.0791 35.8661 21.9183 35.9148 24.7412 35.4606C26.6664 35.1524 28.4943 34.5738 30.0842 33.3248C33.0207 31.0105 34.8215 27.9879 35.8003 24.4408C36.0815 23.4189 36.2546 22.3861 36.2979 21.3371L36.2924 21.3317Z" fill="#890151"/>
<path id="Vector_39" d="M27.1693 3.23947C26.9855 3.72071 26.8665 4.23979 26.807 4.79673C26.78 5.01842 26.7637 5.24552 26.7529 5.48343C26.8449 7.00284 27.5425 8.37085 28.8187 9.42524C29.1594 9.70642 29.6191 9.96056 30.0463 9.70101C29.6353 9.24141 29.3271 8.69528 29.1432 8.07346C28.835 7.04069 28.7106 5.9809 28.8999 4.91569C29.0837 3.87211 29.3054 2.82853 29.5326 1.68762C28.9323 1.87146 28.4186 1.98501 27.8886 2.0553C27.8507 2.0553 27.8237 2.07153 27.7858 2.07694C27.5533 2.41218 27.364 2.76905 27.2126 3.14215C27.2018 3.17459 27.1856 3.20703 27.1748 3.23947H27.1693Z" fill="#890151"/>
<path id="Vector_40" d="M27.5209 23.7812C27.3478 23.7217 27.2342 23.846 27.1639 23.9758C26.7691 24.7382 26.4988 25.5439 26.369 26.355C26.3852 26.5172 26.3527 26.6632 26.4825 26.7389C26.5961 26.8091 26.6988 26.7281 26.7475 26.6361C27.1801 25.8521 27.5857 25.0572 27.7101 24.1542C27.7318 24.0028 27.6885 23.8406 27.5262 23.7812H27.5209Z" fill="#890151"/>
<path id="Vector_41" d="M31.5551 9.58746C30.771 9.09001 30.3059 8.36543 30.0842 7.49488C29.8625 6.62433 29.8084 5.72675 29.949 4.82917C30.1112 3.77477 30.2897 2.72579 30.4519 1.6714C30.5817 0.844103 30.2681 0.368282 29.4677 0.141182C29.4515 0.141182 29.4298 0.135764 29.4136 0.130357C28.3266 -0.156221 27.4505 0.173626 26.8611 1.20639C26.2392 2.28782 25.4983 3.25027 24.6547 4.16408C23.5298 5.37528 22.1779 5.56995 20.6799 5.29419C19.7768 5.12657 18.8845 4.9211 17.9813 4.75347C17.5866 4.67777 17.1864 4.60747 16.7862 4.5534C16.4239 4.50473 16.067 4.4723 15.7154 4.44526C11.1674 4.10461 7.33321 5.59699 4.34265 9.32791C2.0497 12.1883 0.903246 15.5353 0.232668 19.0716C0.189405 19.2879 0.156956 19.5042 0.129917 19.7204C-0.0485435 20.9911 -0.0431527 22.2023 0.146123 23.354C0.221834 23.8082 0.324593 24.257 0.45979 24.695C0.686921 25.4466 0.995188 26.1658 1.38996 26.8633C1.62791 27.285 1.8983 27.696 2.20115 28.0961C2.69326 28.7558 3.2665 29.3884 3.92626 29.994C5.15926 31.1241 6.52205 32.0704 7.94973 32.9301C8.11197 33.0274 8.30663 33.1031 8.37153 33.2816C8.39857 33.3518 8.40398 33.433 8.37694 33.5465C8.31205 33.8223 8.32287 34.071 8.38235 34.2981C8.49592 34.7199 8.78794 35.0767 9.11782 35.4066C10.313 36.5907 11.8164 37.1585 13.4171 37.537C14.1363 37.7046 14.742 37.4829 15.2233 36.9963C15.4721 36.7475 15.71 36.6827 16.0129 36.7205C16.4347 36.7692 16.8565 36.807 17.2783 36.8395C17.6731 36.8719 18.0679 36.8935 18.4572 36.9152C19.2576 36.953 20.058 36.9638 20.8583 36.953C21.967 36.9476 23.0756 36.9963 24.1788 36.8286C26.3852 36.488 28.57 36.0284 30.4141 34.6874C34.8594 31.4431 37.1793 26.9119 37.4768 21.5481C37.7526 16.6005 35.9463 12.383 31.5551 9.59827V9.58746ZM30.0788 33.3194C28.4889 34.5685 26.661 35.147 24.7358 35.4552C21.9129 35.9094 19.0737 35.8608 16.2346 35.6877C16.1643 35.6715 16.0886 35.6715 16.0129 35.6769C15.5586 35.6499 15.1097 35.6174 14.6555 35.585C14.0768 35.5417 13.5361 35.3201 13.0494 34.9956C10.8916 33.579 8.71223 32.1947 6.58693 30.7294C4.83478 29.5236 3.32598 28.0474 2.26604 26.1658C1.84422 25.4196 1.55218 24.6572 1.36831 23.8839C0.962719 22.1969 1.07087 20.4504 1.46565 18.7039C1.67656 17.7847 1.91991 16.8817 2.20653 16.0003C3.0772 13.3562 4.36971 10.9122 6.46256 8.8683C8.57704 6.80818 11.162 5.92142 14.0174 5.69973C16.3698 5.51588 18.6844 5.97548 21.0152 6.24584C22.4537 6.41346 23.8597 6.11065 24.9359 4.95893C25.6065 4.23978 26.2987 3.54228 26.8232 2.70958C27.0504 2.3473 27.3856 2.14723 27.7696 2.07693C27.8021 2.07153 27.8345 2.06071 27.8724 2.0553C28.4023 1.98501 28.9161 1.87687 29.5163 1.68762C29.2892 2.82852 29.0621 3.8667 28.8836 4.91568C28.6998 5.9863 28.8242 7.04069 29.127 8.07345C29.3109 8.69527 29.6191 9.2414 30.0301 9.70101C30.0571 9.73345 30.095 9.76589 30.1221 9.79292C30.333 10.02 30.5547 10.2309 30.8251 10.4039C32.0635 11.2042 33.0639 12.1504 33.8535 13.221C34.5349 14.1403 35.0594 15.1514 35.4488 16.2491C35.7787 17.1683 36.0166 18.147 36.1681 19.1797C36.2762 19.9043 36.3032 20.618 36.2762 21.3264C36.2329 22.3754 36.0599 23.4081 35.7787 24.4301C34.7999 27.9771 32.999 30.9997 30.0625 33.314L30.0788 33.3194ZM13.3035 36.7367C13.2278 36.7259 13.1521 36.7205 13.0764 36.7043C12.3626 36.5096 11.6974 36.223 11.0809 35.8554C10.5455 35.5363 10.0426 35.147 9.5883 34.6928C9.34495 34.4495 9.1773 34.1737 9.11241 33.6114C9.18812 33.6547 9.25844 33.6979 9.33415 33.7412C10.075 34.1791 10.7564 34.5739 11.4053 34.9632C11.6054 35.0821 11.8001 35.2011 11.9948 35.3255C12.6059 35.7094 13.2062 36.1095 13.8984 36.3366C14.0012 36.369 14.1526 36.3961 14.1688 36.515C14.1688 36.5258 14.1796 36.5313 14.1742 36.5475C14.158 36.7205 13.9795 36.7692 13.8335 36.7692C13.7902 36.7692 13.747 36.7692 13.7037 36.7692C13.5685 36.7692 13.4387 36.7583 13.3089 36.7421L13.3035 36.7367Z" fill="#6D3A25"/>
</g>
<g id="Group_3">
<path id="Vector_42" opacity="0.4" d="M4.32101 22.4295C4.28315 22.6079 4.27232 22.7972 4.20743 22.9702C4.14254 23.1432 4.22368 23.4893 3.92624 23.4352C3.70452 23.3973 3.74237 23.0891 3.74777 22.8837C3.80726 21.0128 4.20204 19.2014 4.66171 17.3954C5.1376 15.5299 5.80276 13.7564 7.15473 12.3235C7.50084 11.9612 7.89562 11.6422 8.27958 11.3178C8.40937 11.2096 8.58781 11.1177 8.73383 11.2691C8.89066 11.4259 8.76089 11.5827 8.65814 11.7125C8.39856 12.0153 8.12815 12.3073 7.86316 12.6047C6.68965 13.9132 6.05153 15.4867 5.57564 17.1413C7.17097 14.1241 9.68562 11.9883 12.4274 10.0741C13.1737 9.54966 14.0227 9.22522 14.8826 8.93865C15.0394 8.88457 15.272 8.72236 15.3585 9.00894C15.4342 9.25226 15.1963 9.32255 15.0286 9.38743C11.8271 10.6906 9.49637 13.0373 7.51167 15.7192C5.41882 18.5471 4.84015 21.8022 5.25656 25.2466C5.40798 26.4902 5.60267 27.7285 5.93255 28.9397C5.9704 29.0857 6.10019 29.2965 5.86224 29.3668C5.64593 29.4317 5.59186 29.1992 5.53778 29.0586C5.12678 28.0691 4.91047 27.0201 4.73201 25.9711C4.53192 24.7978 4.32101 23.6245 4.32642 22.4295H4.32101Z" fill="white"/>
<path id="Vector_43" opacity="0.4" d="M6.08399 24.6301C6.11103 22.7268 6.51661 21.1371 7.08985 19.5744C8.11734 16.7789 9.65859 14.3187 11.8488 12.2748C13.6929 10.5499 15.8669 9.55502 18.3923 9.3171C19.144 9.24681 19.9011 9.14407 20.6474 9.0197C22.0697 8.78719 23.2648 8.13293 24.2436 7.07854C24.3788 6.93795 24.5411 6.67301 24.7574 6.84604C25.0007 7.03529 24.7249 7.21372 24.6168 7.36512C23.4703 9.0197 21.7236 9.56042 19.8579 9.89026C18.2679 10.1714 16.6402 10.3012 15.1476 11.0204C13.1791 11.9666 11.627 13.4211 10.3886 15.1514C8.27416 18.1091 6.7924 21.3372 6.77618 25.0681C6.76536 27.231 7.32779 29.2803 8.10112 31.2809C8.1552 31.4161 8.23091 31.5459 8.26876 31.6865C8.28499 31.7513 8.25795 31.8757 8.20928 31.9027C8.16061 31.9298 8.0254 31.9027 7.98754 31.8541C7.85775 31.6919 7.72799 31.5188 7.64687 31.3296C6.67346 29.1235 6.21918 26.7984 6.07858 24.6355L6.08399 24.6301Z" fill="white"/>
<path id="Vector_44" opacity="0.4" d="M20.9232 12.2803C19.6848 13.551 18.6086 14.9622 17.5216 16.3627C17.3594 16.5682 17.235 17.0494 16.9214 16.8493C16.6456 16.6763 16.9754 16.3248 17.1161 16.0977C18.3707 14.0052 19.9011 12.1235 21.5559 10.3337C21.6371 10.2418 21.7831 10.0958 21.8479 10.1174C22.4861 10.3337 22.6321 9.79841 22.9187 9.46316C23.0864 9.26851 23.2378 8.89542 23.5406 9.09548C23.8164 9.27392 23.6326 9.60374 23.4811 9.82543C22.6862 11.0042 21.875 12.1721 21.0692 13.3509C19.3549 15.8598 17.8191 18.4715 16.5266 21.2237C16.4725 21.3373 16.4347 21.4562 16.3698 21.5644C16.2778 21.7212 16.1967 21.9645 15.9642 21.8509C15.7803 21.759 15.8885 21.5535 15.9371 21.3967C16.6348 19.1852 17.6839 17.1467 19.0413 15.265C19.7281 14.3134 20.3338 13.3131 20.9286 12.2857L20.9232 12.2803Z" fill="white"/>
<path id="Vector_45" opacity="0.4" d="M13.2927 21.613C12.6545 23.154 12.0164 24.7005 11.3783 26.2415C11.308 26.4145 11.2485 26.5984 11.1728 26.766C11.1079 26.9066 11.07 27.1337 10.8375 27.0418C10.6482 26.9661 10.751 26.7822 10.778 26.6525C10.9565 25.836 11.2431 25.0519 11.5297 24.2679C12.8438 20.6776 14.4932 17.2602 16.8078 14.189C16.8943 14.07 16.9808 13.9511 17.0782 13.8429C17.1485 13.7618 17.2458 13.7023 17.354 13.7726C17.4567 13.8375 17.473 13.9565 17.4297 14.0484C17.3378 14.2593 17.2351 14.4648 17.1107 14.654C16.3211 15.8652 15.6181 17.1197 14.9475 18.4282C15.1746 18.4174 15.2666 18.0551 15.4883 18.2443C15.6343 18.3687 15.5262 18.5525 15.445 18.7039C14.066 21.2345 13.244 23.9867 12.2273 26.6579C12.0218 27.204 11.8109 27.7501 11.5892 28.2908C11.5297 28.4314 11.454 28.6585 11.2485 28.5612C11.1079 28.4963 11.1566 28.2962 11.2052 28.1556C11.4594 27.3824 11.7082 26.6092 11.9732 25.836C12.4491 24.4355 12.9304 23.0351 13.4117 21.64C13.3738 21.6292 13.3359 21.6184 13.2981 21.613H13.2927Z" fill="white"/>
<path id="Vector_46" opacity="0.4" d="M8.12273 27.3661C8.43638 23.7595 9.18268 20.207 11.5135 17.1682C11.9245 16.6329 12.3193 16.0922 12.8763 15.6921C13.0385 15.5785 13.2278 15.346 13.4171 15.5569C13.6063 15.7623 13.363 15.9354 13.2386 16.0868C11.6162 18.0766 10.4103 20.2935 9.65317 22.7376C9.14482 24.3759 8.86363 26.0684 8.58783 27.7608C8.55538 27.9555 8.69597 28.3177 8.33905 28.2799C8.05244 28.2528 8.14976 27.9122 8.12273 27.6959C8.11191 27.6148 8.12273 27.5283 8.12273 27.3607V27.3661Z" fill="white"/>
<path id="Vector_47" opacity="0.4" d="M23.546 13.0047C23.227 13.9402 23.0756 14.9027 22.8863 15.8651C22.8484 16.0706 22.8484 16.3788 22.6213 16.368C22.2914 16.3518 22.4158 16.0111 22.4212 15.8111C22.4861 13.8753 22.8809 11.999 23.492 10.166C23.6001 9.85238 23.7515 9.54418 24.0273 9.32789C24.1679 9.21434 24.3248 9.14405 24.4924 9.24137C24.6817 9.35493 24.6276 9.52255 24.5519 9.68476C24.4437 9.90646 24.4005 10.0849 24.6763 10.2579C24.8493 10.3661 24.7412 10.604 24.7033 10.7878C24.3356 12.4802 24.076 14.1943 23.8921 15.9192C23.8759 16.0868 23.8813 16.3031 23.6542 16.2815C23.4541 16.2652 23.4379 16.049 23.4324 15.8813C23.3946 14.9243 23.4433 13.9672 23.546 13.0102V13.0047Z" fill="white"/>
<path id="Vector_48" opacity="0.4" d="M32.8097 18.9148C32.8368 17.974 32.6962 17.2386 32.6042 16.4978C32.5772 16.2599 32.4258 15.9301 32.7773 15.8706C33.0693 15.8219 33.0747 16.168 33.1288 16.3735C33.5993 18.1795 33.5615 20.0125 33.3343 21.8455C33.2316 22.6512 33.1126 23.4568 32.972 24.2571C32.9449 24.4085 32.9341 24.7005 32.6691 24.641C32.469 24.5977 32.5448 24.3544 32.5502 24.203C32.5718 23.8516 32.615 23.4947 32.6691 23.1486C32.9071 21.6941 32.1878 20.3693 32.0959 18.9527C32.0364 18.0172 31.7877 17.1034 31.5389 16.195C31.4794 15.9679 31.3442 15.6327 31.6633 15.5408C31.9715 15.4488 32.0472 15.8003 32.1446 16.0166C32.5448 16.8817 32.6313 17.8226 32.8097 18.9256V18.9148Z" fill="white"/>
<path id="Vector_49" opacity="0.4" d="M2.03349 20.5153C2.33633 17.7523 2.68242 15 4.07766 12.5073C4.42917 11.8855 4.80231 11.2799 5.32688 10.7825C5.50534 10.6148 5.67838 10.2309 5.965 10.4634C6.19754 10.6581 5.91094 10.9176 5.78115 11.1123C5.17547 11.9991 4.66712 12.9345 4.28316 13.9348C3.33137 16.4059 2.69864 18.9472 2.62293 21.6021C2.62293 21.7427 2.65539 21.932 2.46612 21.9644C2.24439 22.0023 2.22274 21.7968 2.17407 21.6346C2.0605 21.2723 2.03887 20.8938 2.03887 20.5153H2.03349Z" fill="white"/>
<path id="Vector_50" opacity="0.4" d="M21.08 19.6934C20.7448 20.9371 20.204 22.0455 19.6794 23.1648C18.3383 26.0414 16.5915 28.6747 14.6609 31.1944C14.477 31.4377 14.2553 31.9298 13.947 31.7135C13.6766 31.5242 14.1039 31.1728 14.2661 30.9457C16.7159 27.5284 18.8141 23.9164 20.3608 20.0016C20.4203 19.8448 20.5068 19.6988 20.5879 19.5528C20.6637 19.4177 20.7664 19.3041 20.9394 19.369C21.1287 19.4393 21.0854 19.5961 21.0692 19.6934H21.08Z" fill="white"/>
<path id="Vector_51" opacity="0.4" d="M35.0648 19.4501C34.7782 19.8827 34.5889 19.8178 34.5078 19.4015C34.2266 18.001 33.7615 16.6655 33.2045 15.3569C33.1288 15.1785 33.0152 14.9027 33.2694 14.8054C33.529 14.7027 33.5993 14.9947 33.702 15.1623C34.0536 15.7354 34.2861 16.3627 34.5294 16.9845C34.4213 16.1896 34.113 15.4543 33.848 14.7027C33.7777 14.508 33.7129 14.3079 33.6696 14.1025C33.6426 13.9619 33.648 13.7943 33.8264 13.7402C33.9616 13.6969 34.0698 13.7834 34.1509 13.8808C34.4537 14.2376 34.6809 14.6432 34.8323 15.0758C35.4163 16.7682 35.6867 18.5093 35.6489 20.2991C35.6489 20.4018 35.6327 20.5099 35.5948 20.6019C35.5407 20.7208 35.5299 20.9263 35.3244 20.8884C35.1676 20.856 35.2054 20.6938 35.1892 20.5748C35.1459 20.2234 35.1081 19.8719 35.054 19.4447L35.0648 19.4501Z" fill="white"/>
<path id="Vector_52" opacity="0.4" d="M17.9597 20.4343C17.9272 20.5316 17.9002 20.6559 17.8461 20.7695C16.2995 24.2463 14.6771 27.6852 12.3625 30.7457C12.2111 30.9457 12.0597 31.1458 11.8975 31.3405C11.7947 31.4594 11.6541 31.5405 11.5135 31.4162C11.3945 31.308 11.4919 31.1837 11.5513 31.0809C11.7352 30.7511 11.9137 30.4212 12.1138 30.1022C13.8821 27.3554 15.445 24.495 16.8565 21.5535C17.062 21.1209 17.3215 20.7154 17.5595 20.2991C17.6136 20.2072 17.6947 20.1315 17.8137 20.1639C17.9381 20.1963 17.9381 20.3153 17.9543 20.4396L17.9597 20.4343Z" fill="white"/>
<path id="Vector_53" opacity="0.4" d="M27.7912 21.229C27.7426 22.2996 27.5911 23.2891 27.2937 24.2516C26.7042 26.1387 25.8336 27.896 24.7682 29.5668C24.6546 29.7453 24.5248 30.0589 24.2545 29.875C24.0381 29.7236 24.2815 29.4965 24.368 29.3235C25.4118 27.1985 26.4717 25.0843 26.9043 22.7268C27.0449 21.9428 27.1044 21.1533 27.1206 20.3585C27.1206 20.1314 27.1044 19.7691 27.4505 19.7907C27.7426 19.8069 27.6722 20.1422 27.6993 20.3585C27.7317 20.6721 27.7642 20.9803 27.7912 21.229Z" fill="white"/>
<path id="Vector_54" opacity="0.4" d="M30.7223 20.0286C30.6412 22.0239 30.0625 23.9218 29.538 25.8251C29.4893 25.9981 29.446 26.3117 29.1648 26.2144C28.9269 26.1333 29.0945 25.8738 29.127 25.7115C29.2946 24.8085 29.4569 23.9056 29.6786 23.0188C30.0085 21.694 30.0734 20.3423 30.1328 18.9905C30.1545 18.5309 30.1328 18.0713 30.1437 17.6117C30.1437 17.4278 30.1437 17.1845 30.387 17.1737C30.625 17.1629 30.6358 17.417 30.6845 17.59C30.7115 17.6873 30.7223 17.7955 30.7223 17.8982C30.7223 18.6066 30.7223 19.3095 30.7223 20.0178V20.0286Z" fill="white"/>
<path id="Vector_55" opacity="0.4" d="M25.7957 20.5207C25.6767 21.5805 25.3739 22.7052 25.0386 23.8245C24.6222 25.2303 24.0976 26.5929 23.4324 27.9015C23.3567 28.0475 23.2702 28.1989 23.1675 28.3232C23.0701 28.4476 22.9566 28.6531 22.7727 28.5449C22.578 28.426 22.7348 28.2475 22.7997 28.1015C23.9246 25.5926 24.7466 22.9918 25.3036 20.3044C25.3144 20.245 25.3144 20.1801 25.3306 20.1206C25.3847 19.9476 25.3955 19.6826 25.6172 19.6988C25.8768 19.7205 25.7741 19.9854 25.7903 20.1584C25.7957 20.2395 25.7903 20.3261 25.7903 20.5207H25.7957Z" fill="white"/>
<path id="Vector_56" opacity="0.4" d="M26.7205 9.57666C26.6988 9.05217 26.7205 8.5385 26.8395 8.02482C26.8881 7.81935 26.9098 7.56521 27.1802 7.58143C27.4776 7.59765 27.4343 7.87341 27.4289 8.06807C27.3856 9.86865 27.6506 11.6368 27.9318 13.4049C27.9859 13.7564 28.0454 14.1024 28.1049 14.4485C28.1319 14.5891 28.2239 14.7567 28.0454 14.8324C27.8399 14.9135 27.748 14.7243 27.6777 14.5783C27.3424 13.8753 27.1693 13.1238 27.0341 12.3668C26.8665 11.4475 26.6556 10.5283 26.7151 9.58208L26.7205 9.57666Z" fill="white"/>
<path id="Vector_57" opacity="0.4" d="M25.1576 19.0986C25.0657 20.9478 24.6006 22.7214 23.9949 24.457C23.9408 24.6193 23.8759 24.8842 23.638 24.8193C23.3568 24.7436 23.5298 24.4949 23.5731 24.3435C24.0598 22.3807 24.6222 20.4287 24.5952 18.374C24.5952 18.1685 24.579 17.8225 24.8818 17.8441C25.1414 17.8603 25.1414 18.1794 25.1576 18.4065C25.1684 18.6336 25.1576 18.8661 25.1576 19.0986Z" fill="white"/>
<path id="Vector_58" opacity="0.4" d="M26.7421 20.4504C26.6448 21.986 26.3527 23.3757 26.0283 24.7599C26.0121 24.841 25.9742 24.9167 25.9471 24.9978C25.8931 25.1492 25.866 25.3655 25.6335 25.3006C25.4009 25.2357 25.4929 25.0303 25.5145 24.8734C25.6822 23.6731 25.8606 22.4781 26.0175 21.2723C26.0769 20.7965 26.0661 20.3152 26.1094 19.834C26.131 19.6177 26.1148 19.2987 26.4068 19.2879C26.7475 19.277 26.6556 19.6015 26.6826 19.8124C26.7151 20.0611 26.7313 20.3098 26.7475 20.445L26.7421 20.4504Z" fill="white"/>
<path id="Vector_59" opacity="0.4" d="M23.3946 21.0289C23.373 21.667 23.2053 22.2726 23.0053 22.862C22.6429 23.9272 22.2644 24.987 21.875 26.0468C21.7885 26.2847 21.6857 26.7064 21.4045 26.5875C21.1017 26.4631 21.3937 26.1063 21.4586 25.8683C21.9291 24.2246 22.5402 22.6241 22.8484 20.9316C22.8863 20.7099 22.7835 20.2557 23.1837 20.3206C23.519 20.3747 23.3297 20.7802 23.3892 21.0235L23.3946 21.0289Z" fill="white"/>
<path id="Vector_60" opacity="0.4" d="M26.2067 8.73307C26.4771 8.77092 26.423 8.99802 26.4176 9.16564C26.4014 10.4796 26.5907 11.7773 26.807 13.0696C26.8449 13.3129 26.9097 13.5562 26.953 13.805C26.9801 13.9888 27.1855 14.2538 26.8827 14.3241C26.6339 14.3835 26.5745 14.0807 26.5096 13.8969C26.2284 13.1561 26.077 12.3775 25.9634 11.5935C25.8444 10.7662 25.7417 9.94428 25.9309 9.11158C25.9688 8.95477 25.9796 8.77092 26.2067 8.72766V8.73307Z" fill="white"/>
<path id="Vector_61" opacity="0.4" d="M19.7389 20.0611C19.6956 20.2287 19.6524 20.5207 19.5388 20.7911C19.0791 21.9103 18.6032 23.0242 18.1165 24.1327C18.0246 24.349 17.9272 24.7166 17.6406 24.6031C17.3756 24.495 17.619 24.1976 17.6893 24.0083C18.1922 22.6133 18.7168 21.229 19.236 19.8394C19.3008 19.6664 19.3495 19.4176 19.5767 19.4609C19.8092 19.5096 19.7389 19.7583 19.7335 20.0611H19.7389Z" fill="white"/>
<path id="Vector_62" opacity="0.4" d="M29.2838 19.8178C29.2838 19.2338 29.2838 18.6498 29.2838 18.0605C29.2838 17.8388 29.2622 17.5468 29.5704 17.5143C29.857 17.4873 29.8841 17.7793 29.9003 17.9631C30.0355 19.2176 30.0139 20.4612 29.7002 21.6941C29.6623 21.8346 29.5974 22.0023 29.419 21.9806C29.2189 21.959 29.2513 21.7643 29.2513 21.6292C29.2459 21.0236 29.2513 20.418 29.2513 19.8124H29.2838V19.8178Z" fill="white"/>
<path id="Vector_63" opacity="0.4" d="M22.5023 21.1479C22.2968 22.0563 22.0805 23.035 21.7182 23.9704C21.6695 24.1056 21.5722 24.2624 21.3937 24.1813C21.2639 24.1218 21.2801 23.9704 21.3072 23.8461C21.5127 22.889 21.6803 21.9211 21.9994 20.9911C22.0481 20.8397 22.0967 20.6342 22.3293 20.7045C22.5023 20.7532 22.4861 20.9316 22.4969 21.1479H22.5023Z" fill="white"/>
</g>
<path id="Vector_64" opacity="0.3" d="M39.9806 28.7071C40.0185 30.1184 39.8022 31.3134 39.5426 32.503C39.0937 34.5739 37.7147 35.9798 36.1248 37.218C33.3073 39.4079 30.187 40.9003 26.5961 41.2409C24.7574 41.4139 22.935 41.2139 21.1395 40.7975C17.4081 39.9324 13.9146 38.4995 10.6807 36.4394C10.1183 36.0825 9.62077 35.6499 9.12866 35.2065C8.90153 35.0011 8.73927 34.7523 8.66897 34.4549C8.52295 33.8602 8.91232 33.4222 9.5126 33.5357C9.84248 33.6006 10.1616 33.7358 10.4698 33.8764C12.1949 34.6658 13.92 35.4607 15.6343 36.2663C16.067 36.4664 16.4509 36.5637 16.8781 36.2393C17.2188 35.9798 17.6353 36.0176 18.0463 36.1041C20.7664 36.6935 23.4758 36.4069 26.1635 35.8986C27.1369 35.7148 27.9589 35.1146 28.7755 34.5793C30.3816 33.5303 31.9175 32.3786 33.4317 31.1944C33.6426 31.0322 33.7724 30.8159 33.8968 30.5888C34.5998 29.2749 35.3028 27.9556 36.0058 26.6416C36.2924 26.1009 36.3411 25.5007 36.4817 24.9221C36.5628 24.5923 36.6277 24.2571 36.7251 23.9272C36.8386 23.5379 37.0604 23.2297 37.5038 23.1756C37.9256 23.1216 38.1528 23.3865 38.3853 23.6893C39.575 25.2249 40.0942 26.9606 39.986 28.7017L39.9806 28.7071Z" fill="#3D2308"/>
<path id="Vector_65" d="M26.0499 18.001C25.9093 16.3518 25.3739 14.7999 25.0062 13.2048C24.9791 13.075 24.9197 12.9399 24.7682 12.9507C24.6114 12.9615 24.5736 13.1075 24.579 13.2373C24.5952 13.4914 24.6006 13.751 24.6655 13.9943C25.163 15.8111 25.5091 17.6441 25.4658 19.5744C25.5632 21.3372 25.0981 23.0458 24.5519 24.7275C23.1675 28.9937 20.7393 32.3191 16.3049 33.8169C16.0453 33.9034 15.8019 34.0494 15.5586 34.1791C15.445 34.2386 15.3315 34.3251 15.3693 34.4765C15.418 34.6766 15.5965 34.6388 15.7371 34.6279C15.8398 34.6225 15.9426 34.5793 16.0453 34.5522C19.4198 33.6871 21.9237 31.6107 23.6001 28.6584C25.4605 25.3817 26.3798 21.813 26.0499 17.9901V18.001Z" fill="#6D3A25"/>
<path id="Vector_66" d="M16.1048 11.1772C16.0183 10.9988 15.8398 11.0853 15.71 11.134C15.4126 11.2421 15.1098 11.3557 14.8231 11.4963C13.6442 12.0856 12.6222 12.9129 11.7623 13.8862C8.45808 17.6388 6.50582 21.9266 6.77621 27.0472C6.79243 27.3608 6.79245 27.6744 7.05743 27.9556C7.24671 27.7772 7.21968 27.6258 7.2359 27.4798C7.32784 26.3984 7.32242 25.2953 7.53333 24.2355C8.6095 18.877 10.8213 14.2485 15.8993 11.5125C16.0291 11.4422 16.1968 11.3611 16.1102 11.1826L16.1048 11.1772Z" fill="#6D3A25"/>
<path id="Vector_67" d="M9.86951 9.92276C10.6807 9.54967 11.4973 9.18198 12.3139 8.80889C12.4869 8.73319 12.7357 8.68452 12.6545 8.4358C12.5626 8.16544 12.3139 8.22491 12.1084 8.31143C11.3999 8.60882 10.6861 8.8954 9.99388 9.21443C5.0024 11.5016 2.86628 15.6489 2.41202 20.883C2.41202 21.2886 2.4012 21.6941 2.41202 22.0996C2.42283 22.3538 2.33092 22.7593 2.70406 22.7485C2.97446 22.7431 2.86089 22.3592 2.86629 22.1483C2.9366 20.0233 3.24484 17.9524 4.17499 16.0058C5.42962 13.3779 7.14393 11.1772 9.8641 9.91735L9.86951 9.92276Z" fill="#6D3A25"/>
<path id="Vector_68" d="M31.4199 23.0025C31.1928 23.0296 31.2307 23.2567 31.2361 23.4189C31.2577 23.9163 31.2036 24.3976 31.0468 24.868C29.7975 28.5773 27.7804 31.6486 24.0436 33.2923C23.7299 33.4275 23.4271 33.5843 23.1242 33.7411C23.0053 33.806 22.7998 33.8547 22.8755 34.0439C22.9404 34.2169 23.1242 34.1629 23.2702 34.1521C23.3568 34.1467 23.4433 34.1466 23.5244 34.1142C25.2063 33.487 26.8611 32.7895 28.1103 31.4269C29.2838 30.1454 30.2518 28.7179 30.9819 27.139C31.4415 26.1495 31.7552 25.1113 31.8309 24.0461C31.8147 23.7974 31.8201 23.5811 31.7714 23.3756C31.7336 23.1918 31.6579 22.9647 31.4145 22.9917L31.4199 23.0025Z" fill="#6D3A25"/>
<path id="Vector_69" d="M18.8412 19.8069C18.6249 19.7042 18.5437 19.9205 18.468 20.0611C18.2842 20.3963 18.1111 20.7424 17.9543 21.0938C16.7646 23.765 15.5586 26.4253 13.8984 28.8477C13.7091 29.1288 13.5631 29.4425 13.4117 29.7453C13.336 29.8967 13.3468 30.0426 13.5739 30.0535C13.7794 29.994 13.8659 29.8101 13.9849 29.6641C16.2454 26.8362 17.5595 23.527 18.8574 20.207C18.9061 20.0773 19.0196 19.8934 18.8358 19.8069H18.8412Z" fill="#6D3A25"/>
<path id="Vector_70" d="M32.2149 28.9667C32.3663 29.0856 32.5448 28.9667 32.6691 28.8423C33.8859 27.6419 34.4213 26.1171 34.7674 24.5274C34.7296 24.349 34.7674 24.1651 34.5781 24.1165C34.3294 24.057 34.3186 24.2624 34.2753 24.4247C33.8968 25.9332 33.1937 27.2796 32.2906 28.5341C32.1987 28.6639 32.0094 28.8153 32.2095 28.9667H32.2149Z" fill="#6D3A25"/>
<path id="Vector_71" d="M27.5857 7.51115C27.9373 7.55441 27.8183 7.19213 27.8507 6.98666C28.013 5.95389 28.2076 4.93195 28.5808 3.94785C28.6998 3.62883 28.7701 3.29359 28.835 2.95835C28.8674 2.80154 28.7917 2.65014 28.6186 2.61769C28.4456 2.58525 28.332 2.6934 28.2996 2.85561C28.0184 4.2074 27.4613 5.4997 27.3965 6.99207C27.4127 7.12184 27.3045 7.46791 27.5857 7.50576V7.51115Z" fill="#6D3A25"/>
<path id="Vector_72" d="M25.9147 6.26205C26.2987 5.80785 26.6934 5.35907 27.0504 4.88865C27.3208 4.53178 27.5046 4.12623 27.602 3.74773C27.6452 3.53685 27.6669 3.36924 27.4992 3.29895C27.2829 3.20703 27.191 3.39086 27.1261 3.54226C26.78 4.3317 26.2338 4.98057 25.72 5.66187C25.6443 5.7646 25.5849 5.87814 25.5254 5.99169C25.4551 6.12687 25.401 6.29991 25.5362 6.40264C25.693 6.52701 25.8174 6.37561 25.9093 6.26746L25.9147 6.26205Z" fill="#6D3A25"/>
<path id="Vector_73" d="M19.3117 8.65203C20.1878 8.38708 21.145 8.18701 21.9994 7.70037C22.1833 7.59763 22.3888 7.43542 22.259 7.19751C22.14 6.97581 21.9183 7.10019 21.7506 7.17048C20.8854 7.51654 20.0255 7.86799 19.1657 8.22486C19.0413 8.27893 18.8574 8.33842 18.9223 8.53307C18.971 8.67907 19.1278 8.65203 19.3117 8.65203Z" fill="#6D3A25"/>
<path id="Vector_74" d="M22.7781 9.34959C22.9404 9.4361 23.0485 9.27928 23.1296 9.15492C23.5785 8.45199 24.1301 7.83017 24.6817 7.21376C24.7628 7.12184 24.8169 7.00288 24.8926 6.87311C24.8385 6.80281 24.8007 6.7109 24.7412 6.67846C24.5411 6.58113 24.3626 6.67845 24.2166 6.80822C23.5677 7.41382 23.1026 8.14379 22.7565 8.95486C22.697 9.09004 22.6105 9.26307 22.7781 9.34959Z" fill="#6D3A25"/>
<path id="Vector_75" d="M14.0011 7.99777C15.0773 7.868 16.0291 7.74903 16.9755 7.63007C17.1107 7.61385 17.2513 7.55978 17.2459 7.41379C17.2351 7.22994 17.0674 7.19751 16.916 7.1867C15.9263 7.14885 14.9637 7.32186 14.0173 7.59763C13.8984 7.63007 13.7523 7.70577 13.7686 7.85176C13.7956 8.06264 13.9903 7.99777 13.9957 7.99777H14.0011Z" fill="#6D3A25"/>
<g id="Group_4">
<path id="Vector_76" d="M8.94475 9.1118C8.6365 9.44704 8.66354 10.2365 8.97179 10.4203C9.32871 10.5988 9.4585 10.5879 9.75052 10.2906C10.0966 9.9445 10.0966 9.20372 9.76135 9.00906C9.40443 8.81441 9.17188 8.85766 8.93934 9.1118H8.94475Z" fill="white"/>
<path id="Vector_77" d="M7.07904 12.01C6.9871 12.1128 6.93845 12.3561 6.96549 12.5616C7.0412 13.2158 8.09031 13.086 8.09031 12.421C8.09031 11.8857 7.41433 11.6153 7.07904 12.01Z" fill="white"/>
<path id="Vector_78" d="M15.3856 12.4317C14.4392 12.967 12.6221 14.7243 11.8758 15.822C11.2755 16.7033 10.8916 17.7794 11.0322 18.1525C11.0809 18.3039 11.2647 18.4336 11.454 18.4607C11.9137 18.5093 12.6059 17.8605 13.9362 16.0653C14.5527 15.2434 15.4721 14.1458 15.9966 13.5942C16.7159 12.8534 16.9322 12.5452 16.8944 12.3127C16.8295 11.8531 16.3319 11.891 15.3856 12.4263V12.4317Z" fill="white"/>
<path id="Vector_79" d="M9.7289 20.0991C9.45851 20.6776 9.99929 21.213 10.5725 20.9426C10.9294 20.775 11.0322 20.2018 10.751 19.9207C10.4698 19.6395 9.89114 19.7422 9.7289 20.0991Z" fill="white"/>
<path id="Vector_80" d="M20.8421 26.7174C20.3554 27.0635 20.8691 27.934 21.3775 27.6258C21.6857 27.4203 21.7344 26.9229 21.4532 26.7174C21.3234 26.6255 21.1828 26.5498 21.1449 26.5498C21.1071 26.5498 20.9665 26.6255 20.8367 26.7174H20.8421Z" fill="white"/>
<path id="Vector_81" d="M25.8606 26.8202C25.5794 26.9716 25.5686 27.4853 25.8336 27.7016C26.1148 27.9449 26.7042 27.7124 26.7529 27.3447C26.8286 26.7932 26.3581 26.5228 25.8552 26.8202H25.8606Z" fill="white"/>
<path id="Vector_82" d="M21.583 29.421C21.4694 29.713 21.5722 30.0374 21.8263 30.1888C22.1616 30.3943 22.6213 29.8428 22.4266 29.4859C22.2589 29.2047 21.6857 29.1507 21.583 29.421Z" fill="white"/>
<path id="Vector_83" d="M18.7168 29.7508C18.5762 29.8914 18.4626 30.0969 18.4626 30.1996C18.4626 30.443 18.9115 30.9026 19.1548 30.9026C19.7173 30.9026 19.9336 30.032 19.4631 29.6968C19.0899 29.4426 19.0251 29.4426 18.7222 29.7454L18.7168 29.7508Z" fill="white"/>
</g>
</g>
</svg>
