<svg width="12" height="12" viewBox="0 0 12 12" fill="none" xmlns="http://www.w3.org/2000/svg">
<g id="002-right-arrow-1">
<g id="Group">
<g id="Group_2">
<g id="Group_3">
<g id="Group_4">
<path id="Vector" d="M11.7231 6.24471H0.276923C0.140769 6.24471 0.0307693 6.13467 0.0307693 5.99846C0.0307693 5.86225 0.140769 5.75221 0.276923 5.75221H11.1285L9.63462 4.25776C9.53846 4.16157 9.53846 4.00535 9.63462 3.90916C9.73077 3.81297 9.88692 3.81297 9.98308 3.90916L11.8977 5.82455C11.9685 5.89534 11.9892 6.00077 11.9508 6.09311C11.9123 6.18469 11.8223 6.24471 11.7231 6.24471Z" fill="black"/>
</g>
<g id="Group_5">
<path id="Vector_2" d="M9.80616 8.16241C9.74308 8.16241 9.68 8.13856 9.63231 8.09008C9.53616 7.99388 9.53616 7.83767 9.63231 7.74147L11.5492 5.82378C11.6454 5.72758 11.8015 5.72758 11.8977 5.82378C11.9938 5.91997 11.9938 6.07619 11.8977 6.17238L9.98077 8.09008C9.93231 8.13856 9.86924 8.16241 9.80616 8.16241Z" fill="black"/>
</g>
</g>
</g>
</g>
</g>
</svg>
