<svg width="20" height="20" viewBox="0 0 20 20" fill="none" xmlns="http://www.w3.org/2000/svg">
<g id="009-search-2">
<g id="12">
<path id="Vector" d="M18.0917 16.9085L15.7333 14.5585C17.0118 12.979 17.6355 10.9692 17.4758 8.94349C17.316 6.91774 16.385 5.03052 14.8748 3.67097C13.3646 2.31143 11.3902 1.58323 9.3589 1.63652C7.32757 1.68982 5.39412 2.52055 3.95726 3.95741C2.52039 5.39428 1.68966 7.32772 1.63637 9.35906C1.58307 11.3904 2.31128 13.3647 3.67082 14.875C5.03037 16.3852 6.91759 17.3162 8.94333 17.4759C10.9691 17.6356 12.9789 17.012 14.5583 15.7335L16.9083 18.0918C16.9858 18.1699 17.078 18.2319 17.1795 18.2742C17.2811 18.3165 17.39 18.3383 17.5 18.3383C17.61 18.3383 17.7189 18.3165 17.8205 18.2742C17.922 18.2319 18.0142 18.1699 18.0917 18.0918C18.1698 18.0144 18.2318 17.9222 18.2741 17.8206C18.3164 17.7191 18.3382 17.6102 18.3382 17.5002C18.3382 17.3901 18.3164 17.2812 18.2741 17.1797C18.2318 17.0781 18.1698 16.986 18.0917 16.9085ZM3.33334 9.58349C3.33334 8.34736 3.69989 7.13898 4.38665 6.11118C5.07341 5.08337 6.04953 4.28229 7.19157 3.80924C8.3336 3.3362 9.59027 3.21242 10.8027 3.45358C12.015 3.69474 13.1287 4.28999 14.0028 5.16407C14.8768 6.03815 15.4721 7.15179 15.7132 8.36418C15.9544 9.57656 15.8306 10.8332 15.3576 11.9753C14.8845 13.1173 14.0835 14.0934 13.0557 14.7802C12.0278 15.4669 10.8195 15.8335 9.58334 15.8335C7.92573 15.8335 6.33602 15.175 5.16392 14.0029C3.99182 12.8308 3.33334 11.2411 3.33334 9.58349Z" fill="#004C3F"/>
</g>
</g>
</svg>
