<svg width="26" height="26" viewBox="0 0 26 26" fill="none" xmlns="http://www.w3.org/2000/svg">
<g id="001-shopping-cart" clip-path="url(#clip0_0_2176)">
<path id="Vector" d="M25.614 9.39764C25.2707 8.96691 24.7556 8.71981 24.2008 8.71981H19.1935L16.4783 2.50251C16.31 2.11703 15.861 1.94087 15.4754 2.10931C15.0899 2.27765 14.9138 2.72671 15.0822 3.11224L17.5312 8.71986H8.46884L10.9178 3.11224C11.0861 2.72671 10.9101 2.2777 10.5246 2.10931C10.1391 1.94087 9.69003 2.11693 9.52169 2.50251L6.80647 8.71986H1.79923C1.2444 8.71986 0.729324 8.96691 0.385991 9.39769C0.0489563 9.82059 -0.075407 10.3643 0.0447923 10.8894L2.71878 22.5691C2.9055 23.3847 3.62695 23.9542 4.47322 23.9542H21.5268C22.3731 23.9542 23.0945 23.3847 23.2812 22.5691L25.9552 10.8894C26.0754 10.3642 25.9511 9.82054 25.614 9.39764ZM21.5268 22.4307H4.47322C4.34388 22.4307 4.23059 22.3459 4.20383 22.229L1.52984 10.5495C1.50887 10.4578 1.54406 10.3888 1.57737 10.3471C1.60825 10.3083 1.67817 10.2433 1.79923 10.2433H6.14118L5.94166 10.7002C5.77332 11.0857 5.94933 11.5347 6.33486 11.7031C6.43409 11.7465 6.53748 11.767 6.6393 11.767C6.93291 11.767 7.21272 11.5962 7.33774 11.31L7.80356 10.2434H18.1966L18.6624 11.31C18.7874 11.5963 19.0672 11.767 19.3608 11.767C19.4626 11.767 19.566 11.7465 19.6652 11.7031C20.0508 11.5348 20.2268 11.0857 20.0584 10.7002L19.8589 10.2433H24.2009C24.3219 10.2433 24.3919 10.3083 24.4227 10.3471C24.456 10.3889 24.4912 10.4578 24.4703 10.5494L21.7963 22.2291C21.7695 22.3459 21.6561 22.4307 21.5268 22.4307Z" fill="#232424"/>
<path id="Vector_2" d="M8.42969 13.5444C8.00902 13.5444 7.66797 13.8855 7.66797 14.3062V19.8921C7.66797 20.3128 8.00902 20.6538 8.42969 20.6538C8.85036 20.6538 9.19141 20.3128 9.19141 19.8921V14.3062C9.19141 13.8855 8.85041 13.5444 8.42969 13.5444Z" fill="#232424"/>
<path id="Vector_3" d="M13 13.5444C12.5793 13.5444 12.2383 13.8855 12.2383 14.3062V19.8921C12.2383 20.3128 12.5793 20.6538 13 20.6538C13.4207 20.6538 13.7617 20.3128 13.7617 19.8921V14.3062C13.7617 13.8855 13.4207 13.5444 13 13.5444Z" fill="#232424"/>
<path id="Vector_4" d="M17.5703 13.5444C17.1496 13.5444 16.8086 13.8855 16.8086 14.3062V19.8921C16.8086 20.3128 17.1496 20.6538 17.5703 20.6538C17.991 20.6538 18.332 20.3128 18.332 19.8921V14.3062C18.332 13.8855 17.991 13.5444 17.5703 13.5444Z" fill="#232424"/>
</g>
<defs>
<clipPath id="clip0_0_2176">
<rect width="26" height="26" fill="white"/>
</clipPath>
</defs>
</svg>
