<svg width="18" height="18" viewBox="0 0 18 18" fill="none" xmlns="http://www.w3.org/2000/svg">
<g id="001-shopping-cart" clip-path="url(#clip0_0_1436)">
<path id="Vector" d="M17.7328 6.5062C17.4951 6.20801 17.1385 6.03694 16.7544 6.03694H13.2878L11.4081 1.73265C11.2915 1.46578 10.9807 1.34382 10.7138 1.46044C10.4469 1.57698 10.325 1.88787 10.4416 2.15477L12.137 6.03697H5.86305L7.55846 2.15477C7.675 1.88787 7.55315 1.57701 7.28624 1.46044C7.01937 1.34382 6.70848 1.46571 6.59194 1.73265L4.71217 6.03697H1.24562C0.861506 6.03697 0.504916 6.20801 0.267225 6.50624C0.0338928 6.79902 -0.0522048 7.1754 0.03101 7.53899L1.88223 15.6249C2.0115 16.1895 2.51097 16.5838 3.09685 16.5838H14.9032C15.489 16.5838 15.9885 16.1895 16.1178 15.6249L17.969 7.53895C18.0522 7.17537 17.9661 6.79898 17.7328 6.5062ZM14.9032 15.5291H3.09685C3.0073 15.5291 2.92887 15.4704 2.91034 15.3895L1.05912 7.30362C1.0446 7.24016 1.06896 7.19242 1.09203 7.16355C1.1134 7.13669 1.16181 7.09166 1.24562 7.09166H4.25159L4.11346 7.40796C3.99692 7.67487 4.11877 7.98572 4.38567 8.1023C4.45437 8.13232 4.52595 8.14652 4.59644 8.14652C4.79971 8.14652 4.99342 8.02829 5.07998 7.83012L5.40246 7.09173H12.5976L12.9201 7.83012C13.0067 8.02833 13.2004 8.14652 13.4036 8.14652C13.4741 8.14652 13.5457 8.13232 13.6144 8.1023C13.8813 7.98575 14.0032 7.67487 13.8866 7.40796L13.7485 7.09166H16.7545C16.8383 7.09166 16.8867 7.13669 16.9081 7.16355C16.9311 7.19245 16.9555 7.24019 16.941 7.30358L15.0897 15.3895C15.0712 15.4704 14.9927 15.5291 14.9032 15.5291Z" fill="#004C3F"/>
<path id="Vector_2" d="M5.83594 9.37677C5.5447 9.37677 5.30859 9.61288 5.30859 9.90411V13.7713C5.30859 14.0625 5.5447 14.2986 5.83594 14.2986C6.12717 14.2986 6.36328 14.0625 6.36328 13.7713V9.90411C6.36328 9.61288 6.12721 9.37677 5.83594 9.37677Z" fill="#004C3F"/>
<path id="Vector_3" d="M9 9.37677C8.70877 9.37677 8.47266 9.61288 8.47266 9.90411V13.7713C8.47266 14.0625 8.70877 14.2986 9 14.2986C9.29123 14.2986 9.52734 14.0625 9.52734 13.7713V9.90411C9.52734 9.61288 9.29123 9.37677 9 9.37677Z" fill="#004C3F"/>
<path id="Vector_4" d="M12.1641 9.37677C11.8728 9.37677 11.6367 9.61288 11.6367 9.90411V13.7713C11.6367 14.0625 11.8728 14.2986 12.1641 14.2986C12.4553 14.2986 12.6914 14.0625 12.6914 13.7713V9.90411C12.6914 9.61288 12.4553 9.37677 12.1641 9.37677Z" fill="#004C3F"/>
</g>
<defs>
<clipPath id="clip0_0_1436">
<rect width="18" height="18" fill="white"/>
</clipPath>
</defs>
</svg>
