<svg width="24" height="24" viewBox="0 0 24 24" fill="none" xmlns="http://www.w3.org/2000/svg">
<g id="002-verified" clip-path="url(#clip0_0_1770)">
<g id="g4152">
<path id="path4137" fill-rule="evenodd" clip-rule="evenodd" d="M12 0C5.37867 0 -3.8147e-05 5.3787 -3.8147e-05 12C-3.8147e-05 18.6213 5.37867 24 12 24C18.6213 24 24 18.6213 24 12C24 5.3787 18.6213 0 12 0Z" fill="#004C3F"/>
<path id="path4140" fill-rule="evenodd" clip-rule="evenodd" d="M12 0C11.8271 0 11.6555 0.00582832 11.4844 0.013092C17.8668 0.283954 22.9687 5.55164 22.9687 12C22.9687 18.4484 17.8668 23.716 11.4844 23.9869C11.6555 23.9942 11.8271 24 12 24C18.6213 24 24 18.6213 24 12C24 5.37871 18.6213 4.6875e-09 12 0Z" fill="#004C3F"/>
<path id="path4143" d="M18.8933 5.90625C18.452 5.9063 18.0282 6.08213 17.7162 6.39441L9.70209 14.4158L6.28361 10.9942C6.28358 10.9942 6.28355 10.9941 6.28351 10.9941C5.63791 10.3481 4.57503 10.3481 3.92942 10.9941C3.92939 10.9941 3.92936 10.9942 3.92933 10.9942C3.28386 11.6404 3.28386 12.7029 3.92933 13.3491C3.92936 13.3491 3.92939 13.3491 3.92942 13.3491L7.9506 17.374C8.90944 18.3336 10.4948 18.3337 11.4537 17.374L20.0705 8.74933C20.716 8.10314 20.716 7.0406 20.0705 6.39441C19.7586 6.08213 19.3349 5.90632 18.8935 5.90625C18.8935 5.90625 18.8934 5.90625 18.8933 5.90625Z" fill="white"/>
<path id="path4146" d="M18.8934 5.90625C18.7165 5.90627 18.543 5.93573 18.3778 5.98965C18.6248 6.07032 18.8523 6.20725 19.0393 6.39441C19.6847 7.0406 19.6847 8.10314 19.0393 8.74933L10.4224 17.374C10.0735 17.7233 9.64113 17.9438 9.18657 18.0388C9.9809 18.2049 10.8439 17.9844 11.4537 17.374L20.0705 8.74933C20.716 8.10314 20.716 7.0406 20.0705 6.39441C19.7586 6.08213 19.3349 5.90632 18.8935 5.90625H18.8934Z" fill="white"/>
</g>
</g>
<defs>
<clipPath id="clip0_0_1770">
<rect width="24" height="24" fill="white"/>
</clipPath>
</defs>
</svg>
