<svg width="60" height="60" viewBox="0 0 60 60" fill="none" xmlns="http://www.w3.org/2000/svg">
<g id="006-package">
<g id="Layer 32">
<path id="Vector" d="M50.1563 34.3594V16.8751C50.1569 16.7099 50.1139 16.5474 50.0316 16.4042C49.9493 16.261 49.8306 16.142 49.6875 16.0594L26.9531 2.93444C26.8106 2.85216 26.6489 2.80884 26.4844 2.80884C26.3198 2.80884 26.1581 2.85216 26.0156 2.93444L3.28126 16.0594C3.13819 16.142 3.01949 16.261 2.93717 16.4042C2.85486 16.5474 2.81185 16.7099 2.81251 16.8751V43.1251C2.81185 43.2903 2.85486 43.4527 2.93717 43.5959C3.01949 43.7392 3.13819 43.8581 3.28126 43.9407L26.0156 57.0657C26.1581 57.148 26.3198 57.1913 26.4844 57.1913C26.6489 57.1913 26.8106 57.148 26.9531 57.0657L35.4938 52.1344C36.5583 53.6259 37.9518 54.8525 39.5663 55.7192C41.1808 56.5858 42.9731 57.0694 44.8044 57.1324C46.6358 57.1955 48.4571 56.8363 50.1273 56.0827C51.7976 55.329 53.2721 54.2012 54.4367 52.7864C55.6013 51.3717 56.4247 49.7079 56.8433 47.9239C57.2618 46.1399 57.2643 44.2836 56.8505 42.4985C56.4366 40.7134 55.6176 39.0475 54.4568 37.6296C53.296 36.2117 51.8245 35.08 50.1563 34.3219V34.3594ZM26.4844 4.82819L47.3438 16.8751L36.8813 22.9126L17.5125 10.0126L26.4844 4.82819ZM26.4844 28.9219L5.62501 16.8751L15.7031 11.0532L35.0625 23.9626L26.4844 28.9219ZM4.68751 18.4969L25.5469 30.5438V54.6282L4.68751 42.5813V18.4969ZM27.4219 54.6282V30.5438L35.8594 25.6407V32.9438C35.8594 33.1925 35.9582 33.4309 36.134 33.6067C36.3098 33.7825 36.5482 33.8813 36.7969 33.8813C37.0455 33.8813 37.284 33.7825 37.4598 33.6067C37.6356 33.4309 37.7344 33.1925 37.7344 32.9438V24.5626L48.2344 18.4969V33.6938C47.2414 33.4225 46.2169 33.2837 45.1875 33.2813C43.1587 33.2865 41.1648 33.8088 39.3939 34.7988C37.6231 35.7889 36.1339 37.214 35.0671 38.9396C34.0002 40.6652 33.3908 42.6343 33.2965 44.6609C33.2022 46.6875 33.6261 48.7047 34.5281 50.5219L27.4219 54.6282ZM45.2344 55.3126C43.2411 55.3126 41.2926 54.7215 39.6353 53.6141C37.9779 52.5067 36.6862 50.9327 35.9234 49.0912C35.1606 47.2496 34.961 45.2233 35.3499 43.2683C35.7388 41.3133 36.6986 39.5176 38.1081 38.1081C39.5175 36.6987 41.3133 35.7388 43.2682 35.35C45.2232 34.9611 47.2496 35.1607 49.0911 35.9235C50.9326 36.6863 52.5066 37.978 53.614 39.6353C54.7214 41.2927 55.3125 43.2412 55.3125 45.2344C55.31 47.9066 54.2474 50.4685 52.3579 52.358C50.4685 54.2475 47.9065 55.3101 45.2344 55.3126Z" fill="#004C3F"/>
<path id="Vector_2" d="M49.6875 40.3688L43.875 48.0375L40.8281 44.4563C40.6678 44.2636 40.4374 44.1425 40.1878 44.1196C39.9381 44.0968 39.6896 44.174 39.4969 44.3344C39.3042 44.4948 39.1831 44.7251 39.1603 44.9748C39.1374 45.2244 39.2147 45.473 39.375 45.6657L43.125 50.1469C43.213 50.2498 43.3223 50.3324 43.4453 50.3891C43.5683 50.4457 43.7021 50.475 43.8375 50.475C43.9783 50.4708 44.1163 50.4348 44.2413 50.3699C44.3662 50.305 44.475 50.2127 44.5594 50.1L51.075 41.5032C51.1971 41.4219 51.2985 41.3131 51.3709 41.1855C51.4434 41.058 51.4848 40.9152 51.492 40.7687C51.4992 40.6222 51.472 40.476 51.4124 40.342C51.3528 40.2079 51.2626 40.0897 51.1491 39.9969C51.0355 39.904 50.9017 39.8391 50.7585 39.8074C50.6153 39.7756 50.4666 39.7779 50.3245 39.8141C50.1823 39.8503 50.0506 39.9193 49.94 40.0157C49.8294 40.112 49.7429 40.2329 49.6875 40.3688Z" fill="#004C3F"/>
</g>
</g>
</svg>
