<svg width="60" height="60" viewBox="0 0 60 60" fill="none" xmlns="http://www.w3.org/2000/svg">
<g id="003-credit-card">
<g id="Group 13">
<path id="Vector" d="M39.2969 44.2188H5.9375C4.48763 44.217 3.09764 43.6403 2.07243 42.6151C1.04721 41.5899 0.470487 40.1999 0.46875 38.75V12.5C0.470487 11.0501 1.04721 9.66014 2.07243 8.63493C3.09764 7.60971 4.48763 7.03299 5.9375 7.03125H47.5C48.9499 7.03299 50.3399 7.60971 51.3651 8.63493C52.3903 9.66014 52.967 11.0501 52.9688 12.5V31.1594C52.9688 31.4495 52.8535 31.7277 52.6484 31.9328C52.4433 32.1379 52.1651 32.2531 51.875 32.2531C51.5849 32.2531 51.3067 32.1379 51.1016 31.9328C50.8965 31.7277 50.7812 31.4495 50.7812 31.1594V12.5C50.7812 11.6298 50.4355 10.7952 49.8202 10.1798C49.2048 9.56445 48.3702 9.21875 47.5 9.21875H5.9375C5.06726 9.21875 4.23266 9.56445 3.61731 10.1798C3.00195 10.7952 2.65625 11.6298 2.65625 12.5V38.75C2.65625 39.6202 3.00195 40.4548 3.61731 41.0702C4.23266 41.6855 5.06726 42.0312 5.9375 42.0312H39.2969C39.587 42.0312 39.8652 42.1465 40.0703 42.3516C40.2754 42.5567 40.3906 42.8349 40.3906 43.125C40.3906 43.4151 40.2754 43.6933 40.0703 43.8984C39.8652 44.1035 39.587 44.2188 39.2969 44.2188Z" fill="#004C3F"/>
<path id="Vector_2" d="M51.875 25.625H1.5625C1.27242 25.625 0.99422 25.5098 0.789102 25.3046C0.583984 25.0995 0.46875 24.8213 0.46875 24.5312V17.9688C0.46875 17.6787 0.583984 17.4005 0.789102 17.1954C0.99422 16.9902 1.27242 16.875 1.5625 16.875H51.875C52.1651 16.875 52.4433 16.9902 52.6484 17.1954C52.8535 17.4005 52.9688 17.6787 52.9688 17.9688V24.5312C52.9688 24.8213 52.8535 25.0995 52.6484 25.3046C52.4433 25.5098 52.1651 25.625 51.875 25.625ZM2.65625 23.4375H50.7812V19.0625H2.65625V23.4375Z" fill="#004C3F"/>
<path id="Vector_3" d="M38.75 32.1875H34.375C34.0849 32.1875 33.8067 32.0723 33.6016 31.8671C33.3965 31.662 33.2812 31.3838 33.2812 31.0938C33.2812 30.8037 33.3965 30.5255 33.6016 30.3204C33.8067 30.1152 34.0849 30 34.375 30H38.75C39.0401 30 39.3183 30.1152 39.5234 30.3204C39.7285 30.5255 39.8438 30.8037 39.8438 31.0938C39.8438 31.3838 39.7285 31.662 39.5234 31.8671C39.3183 32.0723 39.0401 32.1875 38.75 32.1875Z" fill="#004C3F"/>
<path id="Vector_4" d="M30 32.1875H25.625C25.3349 32.1875 25.0567 32.0723 24.8516 31.8671C24.6465 31.662 24.5312 31.3838 24.5312 31.0938C24.5312 30.8037 24.6465 30.5255 24.8516 30.3204C25.0567 30.1152 25.3349 30 25.625 30H30C30.2901 30 30.5683 30.1152 30.7734 30.3204C30.9785 30.5255 31.0938 30.8037 31.0938 31.0938C31.0938 31.3838 30.9785 31.662 30.7734 31.8671C30.5683 32.0723 30.2901 32.1875 30 32.1875Z" fill="#004C3F"/>
<path id="Vector_5" d="M21.25 38.75H8.125C7.83492 38.75 7.55672 38.6348 7.3516 38.4296C7.14648 38.2245 7.03125 37.9463 7.03125 37.6562V31.0938C7.03125 30.8037 7.14648 30.5255 7.3516 30.3204C7.55672 30.1152 7.83492 30 8.125 30H21.25C21.5401 30 21.8183 30.1152 22.0234 30.3204C22.2285 30.5255 22.3438 30.8037 22.3438 31.0938V37.6562C22.3438 37.9463 22.2285 38.2245 22.0234 38.4296C21.8183 38.6348 21.5401 38.75 21.25 38.75ZM9.21875 36.5625H20.1562V32.1875H9.21875V36.5625Z" fill="#004C3F"/>
<path id="Vector_6" d="M48.5938 52.9687C48.5076 52.9687 48.4217 52.9588 48.3378 52.9392C45.3175 52.1997 42.6288 50.4769 40.6951 48.0417C38.7613 45.6066 37.6923 42.5976 37.6563 39.4882V32.1087C37.6562 31.8233 37.7676 31.5492 37.9669 31.3448C38.1661 31.1405 38.4373 31.0221 38.7227 31.015C41.9575 30.8723 45.1459 30.1907 48.1562 28.9981C48.2944 28.9383 48.4433 28.9075 48.5938 28.9075C48.7442 28.9075 48.8931 28.9383 49.0313 28.9981C52.0009 30.2907 55.199 30.9764 58.4375 31.015C58.7276 31.015 59.0058 31.1302 59.2109 31.3353C59.416 31.5404 59.5312 31.8186 59.5312 32.1087V39.4882C59.4957 42.5979 58.4269 45.6075 56.4931 48.0431C54.5593 50.4786 51.8704 52.2018 48.8497 52.9414C48.7657 52.9603 48.6798 52.9695 48.5938 52.9687ZM39.8438 33.1412V39.485C39.8764 42.0587 40.7488 44.5513 42.3282 46.5837C43.9077 48.6161 46.1078 50.0769 48.5938 50.744C51.0797 50.0769 53.2798 48.6161 54.8593 46.5837C56.4387 44.5513 57.3111 42.0587 57.3438 39.485V33.1718C54.3365 33.0067 51.3784 32.3363 48.5938 31.1889C45.7888 32.2658 42.8405 32.9236 39.8438 33.1412Z" fill="#004C3F"/>
<path id="Vector_7" d="M47.5 44.219C47.2839 44.219 47.0727 44.1551 46.893 44.0352L43.6117 41.8477C43.3704 41.6867 43.2029 41.4365 43.146 41.152C43.0892 40.8675 43.1478 40.572 43.3087 40.3307C43.4697 40.0894 43.72 39.9218 44.0045 39.865C44.289 39.8082 44.5844 39.8667 44.8258 40.0277L47.3611 41.7176L52.7423 36.3363C52.9486 36.1371 53.2249 36.0268 53.5117 36.0293C53.7985 36.0318 54.0728 36.1469 54.2756 36.3496C54.4784 36.5524 54.5934 36.8268 54.5959 37.1135C54.5984 37.4003 54.4881 37.6766 54.2889 37.8829L48.2733 43.8985C48.0682 44.1036 47.7901 44.2189 47.5 44.219Z" fill="#004C3F"/>
</g>
</g>
</svg>
