<svg width="60" height="60" viewBox="0 0 60 60" fill="none" xmlns="http://www.w3.org/2000/svg">
<g id="002-money" clip-path="url(#clip0_0_436)">
<g id="Group">
<path id="Vector" d="M42.8398 41.6874H25.6148C25.1292 41.6874 24.7357 42.0809 24.7357 42.5666C24.7357 43.0522 25.1292 43.4457 25.6148 43.4457H42.8398C46.2329 43.4457 48.9935 40.6851 48.9935 37.292V24.0914C48.9935 20.6982 46.2329 17.9376 42.8398 17.9376H37.848L26.5043 12.147C25.3726 11.5695 23.9822 12.0205 23.4047 13.1517L20.9617 17.9376H17.7068C16.5757 17.9376 15.6555 18.8578 15.6555 19.9889V41.3943C15.6555 42.5254 16.5757 43.4456 17.7068 43.4456H21.748C22.2336 43.4456 22.6272 43.0521 22.6272 42.5664C22.6272 42.0808 22.2336 41.6873 21.748 41.6873H17.7068C17.5452 41.6873 17.4137 41.5559 17.4137 41.3942V19.9888C17.4137 19.8272 17.5451 19.6957 17.7068 19.6957H42.8397C45.2634 19.6957 47.2352 21.6675 47.2352 24.0913V26.9497H40.2328C37.9903 26.9497 36.1659 28.7741 36.1659 31.0166V32.1883C36.1659 34.4308 37.9903 36.2552 40.2328 36.2552H47.2352V37.2915C47.2354 39.7155 45.2636 41.6874 42.8398 41.6874ZM24.9708 13.9511C25.1077 13.683 25.437 13.5764 25.7051 13.713L33.981 17.9376H22.9358L24.9708 13.9511ZM40.2328 34.4973C38.9598 34.4973 37.9241 33.4616 37.9241 32.1886V31.0168C37.9241 29.7438 38.9598 28.7081 40.2328 28.7081H47.2352V34.4973H40.2328Z" fill="#004C3F"/>
<path id="Vector_2" d="M57.8839 19.2991C56.4797 15.8918 54.448 12.8355 51.8451 10.215C51.206 9.57155 50.5301 8.95269 49.8358 8.37554C49.4627 8.06558 48.9083 8.1162 48.5978 8.48956C48.2875 8.86292 48.3385 9.41722 48.7118 9.72765C49.3632 10.2692 49.9977 10.85 50.5977 11.4541C55.5271 16.4171 58.2417 23.0036 58.2417 30.0001C58.2417 37.0305 55.504 43.64 50.5328 48.611C45.5617 53.5823 38.9522 56.32 31.9217 56.32C26.3681 56.32 21.0784 54.6204 16.5962 51.4007L17.6347 50.0502C21.8164 53.0397 26.7472 54.6175 31.9217 54.6175C38.4988 54.6175 44.6857 52.0462 49.343 47.3774C53.9999 42.7088 56.5555 36.5153 56.5391 29.9377C56.5053 16.4317 45.4902 5.41644 31.9842 5.38269C31.9628 5.38269 31.9417 5.38257 31.9201 5.38257C27.9932 5.38257 24.2373 6.28456 20.756 8.0637C17.4196 9.76878 14.465 12.26 12.2116 15.2678C11.9205 15.6564 11.9996 16.2074 12.3881 16.4985C12.7766 16.7894 13.3277 16.7104 13.6188 16.322C17.9279 10.5699 24.767 7.14062 31.9237 7.14062C31.9421 7.14062 31.9612 7.14073 31.9798 7.14073C44.5209 7.17214 54.7495 17.4006 54.7808 29.9418C54.796 36.049 52.4228 41.8001 48.0981 46.1356C43.7732 50.4713 38.0282 52.8591 31.9216 52.8591C26.9876 52.8591 22.2932 51.3148 18.3457 48.3932C17.7641 47.9626 16.9311 48.0805 16.4887 48.6558L14.9415 50.6678C14.7207 50.9548 14.6266 51.3103 14.6766 51.6689C14.7267 52.0289 14.9154 52.3467 15.2075 52.5635C20.0665 56.1712 25.846 58.078 31.9216 58.078C39.4216 58.078 46.4727 55.1574 51.776 49.8542C57.0793 44.5511 60 37.5 60 30.0001C60 26.3064 59.288 22.706 57.8839 19.2991Z" fill="#004C3F"/>
<path id="Vector_3" d="M11.5039 25.7513C11.3372 25.4695 11.0706 25.2697 10.7535 25.1886C10.4364 25.1073 10.1067 25.1548 9.82511 25.3215L9.50671 25.5104C9.90972 23.4914 10.5848 21.542 11.522 19.6943C11.7416 19.2614 11.5687 18.7323 11.1356 18.5127C10.7032 18.2932 10.1737 18.4658 9.95402 18.8991C8.64503 21.4793 7.81078 24.2442 7.47398 27.1173C7.43507 27.4493 7.58789 27.7747 7.8682 27.9568C8.14851 28.1389 8.50793 28.1463 8.79539 27.9759L10.2629 27.1059L11.1309 28.5707L6.11203 31.5454L1.97824 27.795L3.12199 26.5342L4.30171 27.6042C4.54652 27.8262 4.89468 27.8921 5.20359 27.7753C5.51238 27.6584 5.72976 27.3782 5.76609 27.0499C6.42773 21.0788 9.03656 15.6632 13.3106 11.3891C18.258 6.44168 24.8351 3.70395 31.83 3.68027C31.8601 3.68016 31.8901 3.68016 31.9202 3.68016C36.7325 3.68016 41.4246 4.97848 45.4948 7.43719C45.9103 7.68809 46.4508 7.55496 46.7018 7.13918C46.9528 6.72363 46.8194 6.18328 46.4038 5.93215C42.0591 3.3075 37.0533 1.92188 31.9201 1.92188C31.8882 1.92188 31.8558 1.92187 31.8239 1.92199C28.1306 1.93441 24.5327 2.6591 21.1304 4.07531C17.7285 5.49152 14.6791 7.53387 12.0671 10.1457C7.90921 14.3038 5.22843 19.4752 4.25308 25.1864L3.90855 24.8739C3.66621 24.6539 3.35378 24.543 3.02566 24.5572C2.69871 24.5733 2.39753 24.7154 2.17781 24.9579L0.318042 27.0083C0.0980813 27.2507 -0.0144187 27.5643 0.0015188 27.8912C0.0174563 28.2182 0.159722 28.5193 0.402183 28.7391L5.15929 33.0548C5.41359 33.2855 5.73445 33.4039 6.05859 33.4039C6.2932 33.4039 6.52968 33.3418 6.74332 33.215L12.4861 29.8113C13.0671 29.467 13.2598 28.7141 12.9155 28.1327L11.5039 25.7513Z" fill="#004C3F"/>
<g id="Group_2">
<path id="Vector_4" d="M40.8388 33.0742C41.6578 33.0742 42.3218 32.4102 42.3218 31.5912C42.3218 30.7721 41.6578 30.1082 40.8388 30.1082C40.0197 30.1082 39.3558 30.7721 39.3558 31.5912C39.3558 32.4102 40.0197 33.0742 40.8388 33.0742Z" fill="#004C3F"/>
</g>
</g>
</g>
<defs>
<clipPath id="clip0_0_436">
<rect width="60" height="60" fill="white"/>
</clipPath>
</defs>
</svg>
