<svg width="60" height="60" viewBox="0 0 60 60" fill="none" xmlns="http://www.w3.org/2000/svg">
<g id="001-organic-food-1" clip-path="url(#clip0_0_1787)">
<g id="Group">
<g id="Group_2">
<g id="Group_3">
<path id="Vector" d="M40.9435 36.1732C44.7395 34.8557 46.7489 30.7109 45.4316 26.9157C44.1143 23.1205 39.9692 21.112 36.1732 22.4295C32.3772 23.7471 30.3678 27.8918 31.6851 31.687C33.0024 35.4822 37.1475 37.4908 40.9435 36.1732Z" fill="#82B339"/>
<g id="Group_4">
<path id="Vector_2" d="M37.7473 27.1359C41.703 27.1359 44.9098 23.9299 44.9098 19.975C44.9098 16.0201 41.703 12.8141 37.7473 12.8141C33.7916 12.8141 30.5849 16.0201 30.5849 19.975C30.5849 23.9299 33.7916 27.1359 37.7473 27.1359Z" fill="#FC435F"/>
<path id="Vector_3" d="M44.8535 19.0797C44.359 15.1559 40.7764 12.3758 36.8518 12.8703C36.3484 12.9337 35.8642 13.0487 35.4029 13.2079C37.8953 14.0726 39.814 16.2856 40.1661 19.0797C40.5973 22.5002 38.5391 25.6601 35.4042 26.7421C36.4119 27.0916 37.5128 27.2221 38.6427 27.0797C42.5675 26.5853 45.3482 23.0035 44.8535 19.0797Z" fill="#EB2F4B"/>
<path id="Vector_4" d="M34.4394 14.6291L32.5313 11.5125L35.8407 12.7589L39.5524 11.3907L37.8174 14.2035L39.5712 16.341L36.2679 16.148L33.3921 18.3423L34.4394 14.6291Z" fill="#AAD667"/>
</g>
<g id="Group_5">
<path id="Vector_5" d="M17.5438 6.76621C15.2193 7.22182 13.4406 8.88831 12.7279 10.9838C11.2767 9.31252 9.00061 8.4409 6.67602 8.89651C3.21473 9.57501 0.959862 12.9366 1.63977 16.4048C2.31956 19.873 5.67666 22.1345 9.13795 21.456C11.4624 21.0004 13.2412 19.3339 13.9539 17.2384C15.405 18.9097 17.6812 19.7815 20.0058 19.3257C23.4671 18.6472 25.7218 15.2857 25.042 11.8175C24.3622 8.34926 21.0051 6.08783 17.5438 6.76621Z" fill="#82B339"/>
<path id="Vector_6" d="M20.1026 12.2522C19.7217 12.3268 19.3562 12.435 19.0062 12.5699C17.5737 10.4856 14.9981 9.33558 12.3625 9.85225C9.73044 10.3682 7.78154 12.4008 7.23885 14.8672C6.88086 14.877 6.51911 14.9149 6.15607 14.9861C2.61439 15.6803 0.307143 19.12 1.00287 22.6687C1.69496 26.1992 5.09812 28.5064 8.62035 27.8467L9.9259 34.5073C10.6853 38.3813 14.4352 40.9075 18.3014 40.1497C22.1677 39.3918 24.6864 35.6369 23.927 31.7629L22.6217 25.1036C26.1634 24.4094 28.4706 20.9697 27.7749 17.421C27.0793 13.872 23.6443 11.558 20.1026 12.2522Z" fill="#AAD667"/>
<g id="Group_6">
<path id="Vector_7" d="M27.7749 17.4209C27.0793 13.8721 23.6443 11.558 20.1026 12.2523C19.7247 12.3264 19.362 12.4336 19.0143 12.5671C21.0425 13.35 22.6378 15.1268 23.0875 17.421C23.7831 20.9698 21.476 24.4094 17.9343 25.1036L19.2396 31.7629C19.9331 35.3008 17.892 38.738 14.5879 39.8853C15.7425 40.2888 17.0151 40.4019 18.3013 40.1498C22.1676 39.392 24.6863 35.637 23.9269 31.763L22.6216 25.1038C26.1634 24.4093 28.4705 20.9696 27.7749 17.4209Z" fill="#99C94F"/>
<path id="Vector_8" d="M14.3188 12.5699C14.6688 12.435 15.0343 12.3268 15.4152 12.2522C16.6618 12.0079 17.8947 12.1375 19.0001 12.5612C17.5665 10.4823 14.9945 9.33616 12.3626 9.85213C11.9846 9.92619 11.6212 10.0326 11.2735 10.1659C12.499 10.6393 13.5666 11.4755 14.3188 12.5699Z" fill="#99C94F"/>
</g>
</g>
<g id="Group_7">
<path id="Vector_9" d="M57.6647 5.96309C57.3775 5.85153 57.0815 5.80232 56.7915 5.80841C56.8054 5.7756 56.8198 5.74302 56.8328 5.70951C57.5423 3.88506 56.6381 1.83104 54.8133 1.12184C53.5319 0.623804 52.138 0.922039 51.1753 1.77514C50.9319 1.46753 50.6064 1.21828 50.2143 1.06594C49.0401 0.609625 47.7182 1.19133 47.2617 2.36517C46.996 3.04836 47.0825 3.78123 47.4323 4.36481C46.5477 4.71543 45.8056 5.41842 45.4337 6.37511C44.7243 8.19956 45.6285 10.2535 47.4533 10.9628C48.0834 11.2077 48.7408 11.2601 49.3608 11.1488L47.1332 22.1208L50.2165 22.7185L52.2874 12.5544C52.5134 12.7956 52.7956 12.9912 53.1244 13.119C54.2986 13.5753 55.6205 12.9936 56.077 11.8196C56.281 11.2951 56.2772 10.7413 56.1063 10.2482C57.256 10.6386 58.5201 10.0574 58.9643 8.91486C59.4208 7.74102 58.8389 6.41941 57.6647 5.96309Z" fill="#AAD667"/>
<g id="Group_8">
<path id="Vector_10" d="M50.1259 1.12188C50.4983 1.2666 50.8317 1.46816 51.1215 1.71156C50.8846 1.43348 50.5786 1.20754 50.2143 1.06598C49.915 0.94961 49.6062 0.901563 49.3044 0.912696C49.5799 0.949141 49.8554 1.01676 50.1259 1.12188Z" fill="#AAD667" stroke="#99C94F" stroke-width="0.999977" stroke-miterlimit="10"/>
<path id="Vector_11" d="M57.6647 5.96309C57.3775 5.85142 57.0815 5.80232 56.7915 5.80841C56.8054 5.7756 56.8198 5.74302 56.8328 5.70951C57.5423 3.88506 56.6381 1.83116 54.8133 1.12184C53.5367 0.625679 52.1486 0.920282 51.1864 1.766C52.2697 2.72106 52.6994 4.28524 52.1455 5.70951C52.1324 5.74302 52.118 5.77548 52.1041 5.80841C52.3941 5.80232 52.6901 5.85153 52.9774 5.96309C54.1515 6.41941 54.7334 7.74102 54.2768 8.91498C53.8326 10.0575 52.5685 10.6386 51.4188 10.2483C51.5896 10.7414 51.5934 11.2952 51.3895 11.8198C50.9967 12.8299 49.9632 13.3994 48.9345 13.2486L47.1332 22.1208L50.2165 22.7185L52.2874 12.5544C52.5134 12.7956 52.7957 12.9912 53.1244 13.119C54.2986 13.5753 55.6205 12.9936 56.077 11.8198C56.2809 11.2952 56.2772 10.7414 56.1063 10.2483C57.256 10.6388 58.5201 10.0575 58.9643 8.91498C59.4208 7.74102 58.8389 6.41941 57.6647 5.96309Z" fill="#99C94F"/>
</g>
<g id="Group_9">
<path id="Vector_12" d="M53.801 24.841C54.0087 30.2059 47.4432 44.7349 44.4724 44.1589C41.5017 43.583 40.7524 27.6359 43.0429 22.7554C44.0905 20.5231 46.3013 18.8393 49.2722 19.4152C52.2431 19.991 53.7058 22.3771 53.801 24.841Z" fill="#FD9E35"/>
<path id="Vector_13" d="M53.801 24.841C53.7057 22.3771 52.243 19.9911 49.2722 19.4151C47.9788 19.1644 46.8296 19.3422 45.8576 19.807C47.9759 20.7325 49.033 22.7589 49.1137 24.841C49.2646 28.7393 45.8394 37.4748 42.8156 41.7392C43.2495 43.1217 43.8046 44.0294 44.4724 44.1589C47.4433 44.7349 54.0088 30.206 53.801 24.841Z" fill="#FD8500"/>
<path id="Vector_14" d="M41.7632 32.6246L45.2634 33.3033L41.7632 32.6246Z" fill="#FD9E35"/>
</g>
</g>
<g id="Group_10">
<path id="Vector_15" d="M30.3937 36.1739C34.1897 34.8564 36.1991 30.7117 34.8818 26.9165C33.5646 23.1213 29.4194 21.1127 25.6234 22.4303C21.8274 23.7478 19.818 27.8925 21.1353 31.6878C22.4526 35.483 26.5977 37.4915 30.3937 36.1739Z" fill="#FC435F"/>
<path id="Vector_16" d="M29.2886 22.1386C28.029 21.9117 26.7873 22.025 25.6561 22.411C29.0089 23.5478 31.1156 26.9955 30.4685 30.5847C29.9829 33.2778 28.0716 35.3543 25.6527 36.1796C25.9922 36.2947 26.3442 36.3866 26.7076 36.4521C30.6607 37.1642 34.4432 34.5372 35.1559 30.5847C35.8686 26.6321 33.2417 22.8507 29.2886 22.1386Z" fill="#EB2F4B"/>
<path id="Vector_17" d="M26.8773 22.8806L25.9603 19.2224L28.8346 21.4708L32.9122 21.2683L30.3351 23.5034L31.4025 26.1496L28.2089 24.9404L24.6995 26.2145L26.8773 22.8806Z" fill="#AAD667"/>
</g>
<g id="Group_11">
<path id="Vector_18" d="M0.879004 27.3212H10.5463V59.1211H0.879004V27.3212Z" fill="#8F5A46"/>
<path id="Vector_19" d="M49.4526 27.3212H59.1198V59.1211H49.4526V27.3212Z" fill="#8F5A46"/>
<g id="Group_12">
<path id="Vector_20" d="M0.879004 31.9362H59.1198V39.7258H0.879004V31.9362Z" fill="#E8B266"/>
<path id="Vector_21" d="M54.4324 31.9362H59.1198V39.7258H54.4324V31.9362Z" fill="#D9A359"/>
<path id="Vector_22" d="M0.879004 39.7294H59.1198V47.519H0.879004V39.7294Z" fill="#FFDEB0"/>
<path id="Vector_23" d="M54.4324 39.7294H59.1198V47.519H54.4324V39.7294Z" fill="#F7C783"/>
<path id="Vector_24" d="M0.879004 47.519H59.1198V55.3087H0.879004V47.519Z" fill="#E8B266"/>
<path id="Vector_25" d="M54.4324 47.519H59.1198V55.3087H54.4324V47.519Z" fill="#D9A359"/>
</g>
</g>
</g>
</g>
<g id="Group_13">
<path id="Vector_26" d="M59.1198 26.4421H54.5922C54.6677 25.8328 54.6977 25.2842 54.6792 24.807C54.5903 22.5075 53.5073 20.5947 51.7735 19.4776L52.8956 13.9712C54.4968 14.5391 56.2762 13.7318 56.8959 12.1382C57.0087 11.8482 57.0771 11.5451 57.1009 11.2392C58.2698 11.1432 59.3311 10.3965 59.7834 9.23319C60.0893 8.44665 60.0704 7.58804 59.7305 6.81556C59.3905 6.04319 58.77 5.44953 57.9831 5.14356C57.9557 5.1329 57.9281 5.12259 57.9005 5.11274C58.0329 4.28261 57.9248 3.43079 57.5779 2.64307C57.1019 1.56169 56.2331 0.730502 55.1318 0.302426C53.8354 -0.201468 52.4083 -0.0667055 51.2461 0.635934C51.027 0.47668 50.7874 0.345433 50.5328 0.246529C48.9092 -0.384862 47.0739 0.422775 46.4427 2.04649C46.2014 2.66686 46.1631 3.33025 46.3207 3.95613C45.5531 4.45791 44.9509 5.19184 44.6146 6.05631C44.1864 7.1575 44.2128 8.35958 44.6889 9.44096C45.1649 10.5223 46.0337 11.3535 47.135 11.7816C47.5045 11.9254 47.8894 12.0181 48.2792 12.0588L46.9674 18.5207C46.5236 18.6025 46.1065 18.7321 45.7154 18.8995C45.291 15.7582 43.028 13.1633 40.0432 12.2693L40.3007 11.8519C40.781 11.0729 39.9233 10.317 39.2486 10.5658L35.8441 11.8206L32.8413 10.6898C32.1676 10.4356 31.303 11.1888 31.7819 11.9712L32.8014 13.6364C30.7085 15.2758 29.541 17.8874 29.728 20.5463L29.1183 20.5766L28.6216 20.188C28.8226 19.2192 28.8298 18.2323 28.6375 17.2514C28.2995 15.5273 27.3849 14.0118 26.0383 12.9184C26.0301 12.4933 25.9868 12.067 25.9046 11.6483C25.5308 9.74084 24.4378 8.09275 22.8271 7.00762C21.2159 5.92214 19.2799 5.53027 17.3749 5.90339C15.5225 6.26654 13.8771 7.34921 12.8049 8.89687C12.481 8.93121 12.1613 8.98804 11.8459 9.06726C10.2574 8.03662 8.37109 7.66866 6.50715 8.03369C4.60231 8.40739 2.95727 9.50143 1.87507 11.1149C0.79334 12.7278 0.403349 14.6665 0.777286 16.5738C0.84537 16.9212 0.939704 17.2639 1.05665 17.5967C0.1473 19.1168 -0.226753 20.9651 0.140152 22.8376C0.407802 24.2031 1.04622 25.4442 1.96566 26.4422H0.879002C0.393506 26.4422 0.000116348 26.8356 0.000116348 27.3211V59.1211C0.000116348 59.6066 0.393506 60 0.879002 60H10.5463C11.0318 60 11.4252 59.6066 11.4252 59.1211V56.1875H48.5737V59.1211C48.5737 59.6066 48.9671 60 49.4526 60H59.1198C59.6053 60 59.9987 59.6066 59.9987 59.1211V27.321C59.9987 26.8356 59.6053 26.4421 59.1198 26.4421ZM58.2409 54.4296H1.75789V48.3977H58.2409V54.4296ZM1.75789 32.815H58.2409V38.8468H1.75789V32.815ZM21.7053 28.1619C22.0918 26.0189 23.5237 24.2552 25.4758 23.4189L23.9637 25.7337C23.4702 26.4895 24.345 27.278 24.9995 27.0405L28.2025 25.8776L31.0912 26.9713C31.9681 27.0787 32.3436 26.6951 32.2175 25.8207L31.4463 23.9086C33.8141 25.4169 34.9126 28.3634 34.1438 31.0571H21.8506C21.582 30.1208 21.5306 29.1301 21.7053 28.1619ZM40.8347 31.0572H35.9563C36.1848 30.0243 36.2099 28.8613 36.0236 27.8275C37.7001 28.1946 39.5174 28.0017 41.0805 27.2912C40.9482 28.4415 40.8645 29.7075 40.8347 31.0572ZM58.2409 46.6401H1.75789V40.6082H58.2409V46.6401ZM58.2409 31.0572H50.3314V28.1999H58.2409V31.0572ZM52.9229 24.875C52.9399 25.3134 52.9053 25.8387 52.8201 26.4421H49.4524C48.9669 26.4421 48.5735 26.8355 48.5735 27.321V31.0572H42.5931C42.6197 29.9075 42.6869 28.8187 42.7905 27.822L45.4191 28.3316C46.5002 28.5395 46.8506 26.8188 45.7536 26.6058L43.0249 26.0767C43.233 24.8442 43.5082 23.8324 43.8385 23.1287C44.2293 22.2962 45.7639 19.6302 49.1047 20.278C51.809 20.8023 52.8502 22.9964 52.9229 24.875ZM47.7715 10.1434C45.5939 9.29706 45.5476 6.05702 47.7561 5.18177C48.2908 4.89138 48.4341 4.46846 48.186 3.91289C47.3198 2.46718 49.4526 1.01409 50.486 2.32035C50.8778 2.72311 51.3018 2.76061 51.7582 2.43285C53.7942 0.627731 57.0064 2.83795 56.0127 5.39305C55.7899 5.97405 56.0561 6.70704 56.8099 6.68689C57.7115 6.67095 58.4843 7.72409 58.1451 8.59629C57.8723 9.29764 57.1007 9.6581 56.3888 9.41588C55.5519 9.32612 55.1808 9.69935 55.2757 10.5358C55.7558 11.9214 53.9084 12.9979 52.9286 11.9533C52.255 11.4854 51.7543 11.6272 51.4263 12.3789L50.1333 18.7252C49.6891 18.5906 49.2361 18.5003 48.7745 18.4541L50.2219 11.3235C50.2503 10.618 49.9114 10.2713 49.2054 10.2836C48.7253 10.3694 48.2295 10.3214 47.7715 10.1434ZM35.5309 13.5812C35.7286 13.6559 35.9465 13.6564 36.1446 13.5834L37.4681 13.0956L37.0693 13.7421C36.8723 14.0616 36.8998 14.4709 37.138 14.761L37.6184 15.3465L36.3192 15.2706C36.1086 15.258 35.9019 15.3218 35.7348 15.4491L34.9531 16.0457L35.2854 14.8677C35.3518 14.6319 35.317 14.3791 35.1891 14.1702L34.618 13.2375L35.5309 13.5812ZM33.2603 15.5721L32.5463 18.1036C32.3224 18.8978 33.2661 19.5442 33.9255 19.041L36.5421 17.0443L39.5201 17.2183C40.1986 17.2587 40.7673 16.413 40.2507 15.7834L38.8948 14.1308L39.0776 13.8345C41.6544 14.3934 43.6487 16.5493 43.9815 19.1896C44.0145 19.4502 44.0298 19.713 44.0303 19.9747C43.2509 20.6656 42.6533 21.5172 42.2474 22.3819C41.9223 23.0748 41.6464 23.9849 41.4265 25.0661C40.5776 25.6802 39.5801 26.0757 38.533 26.2075C37.4554 26.3436 36.365 26.1985 35.368 25.7895C34.7747 24.5408 33.8621 23.4458 32.6889 22.6254L33.4881 21.9323C34.1087 21.3939 33.6831 20.3556 32.8687 20.3905L31.4832 20.4593C31.3381 18.6197 31.9932 16.8549 33.2603 15.5721ZM30.413 22.2723L29.7593 22.8393C29.4758 23.0853 29.3797 23.4839 29.52 23.8321L29.8366 24.6169L28.5201 24.1185C28.3166 24.0439 28.113 24.0425 27.909 24.1143L26.8762 24.4891L27.6131 23.3611C27.747 23.156 27.7893 22.9044 27.7298 22.6668L27.4353 21.492L28.293 22.1631C28.4594 22.2932 28.6673 22.3578 28.8781 22.3487L30.413 22.2723ZM17.7128 7.6287C19.1562 7.34582 20.6235 7.64288 21.8449 8.46575C23.0113 9.25147 23.8186 10.4273 24.1364 11.7918C22.8151 11.2537 21.3661 11.1089 19.9334 11.3897C19.7307 11.4295 19.5278 11.4786 19.3259 11.5365C18.2193 10.2011 16.6973 9.31511 15.0403 8.99027C15.783 8.30404 16.7073 7.8258 17.7128 7.6287ZM3.33484 12.094C4.15514 10.8711 5.40175 10.0419 6.84511 9.75888C7.82068 9.56776 8.80421 9.64264 9.71602 9.96361C8.22778 10.8871 7.09249 12.3224 6.55203 14.0357C6.36126 14.0577 6.17259 14.087 5.98697 14.1233C4.61884 14.3915 3.41277 15.0234 2.44799 15.8984C2.26881 14.5616 2.57783 13.2226 3.33484 12.094ZM4.67708 26.3685C3.21238 25.5542 2.1876 24.1441 1.86523 22.4994C1.26395 19.4319 3.26465 16.4481 6.32505 15.8483C6.62844 15.7887 6.9439 15.7542 7.26299 15.7454C7.66634 15.7343 8.01052 15.45 8.09723 15.0556C8.58226 12.8514 10.3228 11.1474 12.5316 10.7144C14.7441 10.2805 17.0015 11.2044 18.2819 13.0674C18.5123 13.4025 18.9427 13.5359 19.322 13.3897C19.6349 13.2693 19.9543 13.1767 20.2717 13.1144C21.7543 12.8236 23.2608 13.1292 24.515 13.9739C25.7697 14.8193 26.6212 16.1033 26.9124 17.5895C27 18.0362 27.0323 18.4842 27.0132 18.9299L26.5019 18.5299C25.779 17.9645 24.9329 18.7376 25.1079 19.4358L25.6242 21.4959C22.7098 22.3818 20.5222 24.8178 19.9755 27.8497C19.7829 28.9179 19.8062 30.0082 20.0381 31.057H17.4433L16.9382 28.4801C17.9683 28.0947 18.8516 27.4002 19.4776 26.467C20.1108 25.5233 18.6509 24.5441 18.0179 25.4879C17.6555 26.028 17.1648 26.449 16.5932 26.7199L15.8595 22.9766C17.5019 22.4559 18.9116 21.4033 19.8877 19.9483C20.5208 19.0046 19.0612 18.0257 18.4279 18.9693C17.7145 20.0328 16.7009 20.8184 15.519 21.2388L14.6827 16.9717C14.4641 15.8571 12.7392 16.1943 12.9576 17.3098L13.7939 21.5767C12.5408 21.6336 11.3055 21.2892 10.2435 20.5736C9.30119 19.9386 8.31894 21.3965 9.26134 22.0313C10.5416 22.8938 12.0157 23.3414 13.5229 23.3414C13.7263 23.3414 13.9303 23.3312 14.1346 23.3148L14.8683 27.058C14.2368 27.023 13.6234 26.8185 13.0839 26.455C12.1413 25.8205 11.1593 27.278 12.1018 27.9129C13.0181 28.5301 14.109 28.8504 15.2133 28.8183L15.6521 31.0571H11.4252V27.3209C11.4252 26.8354 11.0318 26.442 10.5463 26.442H4.787C4.75243 26.4155 4.71633 26.3904 4.67708 26.3685ZM9.66739 28.1999V31.0572H1.75789V28.1999H9.66739ZM9.66739 58.2422H1.75789V56.1875H9.66739V58.2422ZM50.3314 58.2422V56.1875H58.2409V58.2422H50.3314Z" fill="#060606"/>
<path id="Vector_27" d="M5.71266 34.952C4.58157 34.952 4.57969 36.7098 5.71266 36.7098C6.84375 36.7098 6.84563 34.952 5.71266 34.952Z" fill="#060606"/>
<path id="Vector_28" d="M5.71266 44.5031C6.84375 44.5031 6.84563 42.7452 5.71266 42.7452C4.58157 42.7452 4.57969 44.5031 5.71266 44.5031Z" fill="#060606"/>
<path id="Vector_29" d="M5.71266 52.3031C6.84375 52.3031 6.84563 50.5453 5.71266 50.5453C4.58157 50.5453 4.57969 52.3031 5.71266 52.3031Z" fill="#060606"/>
<path id="Vector_30" d="M54.0784 34.952C52.9473 34.952 52.9455 36.7098 54.0784 36.7098C55.2095 36.7098 55.2114 34.952 54.0784 34.952Z" fill="#060606"/>
<path id="Vector_31" d="M54.0784 44.5031C55.2095 44.5031 55.2114 42.7452 54.0784 42.7452C52.9473 42.7452 52.9455 44.5031 54.0784 44.5031Z" fill="#060606"/>
<path id="Vector_32" d="M54.0784 52.3031C55.2095 52.3031 55.2114 50.5453 54.0784 50.5453C52.9473 50.5453 52.9455 52.3031 54.0784 52.3031Z" fill="#060606"/>
</g>
</g>
</g>
<defs>
<clipPath id="clip0_0_1787">
<rect width="60" height="60" fill="white"/>
</clipPath>
</defs>
</svg>
