<svg width="83" height="73" viewBox="0 0 83 73" fill="none" xmlns="http://www.w3.org/2000/svg">
<g id="Layer_1" clip-path="url(#clip0_0_1853)">
<path id="Vector" d="M43.0007 38.4565C42.7034 38.5851 42.4279 38.3526 42.2113 37.8504C41.4584 36.1088 41.4172 31.3629 42.7545 30.7888L42.9458 30.7412C43.3109 30.6887 43.5705 30.9635 43.7486 31.3763C44.0285 32.0264 44.1054 32.9394 44.123 33.3861C44.1454 34.2521 43.8798 38.0433 43.0007 38.4565ZM12.9515 49.309C11.1429 45.1309 10.8714 41.2535 11.2131 38.7055C11.6431 35.4939 13.7109 33.6799 15.3819 37.5486C16.3 39.6756 16.7012 42.7243 16.8278 43.7545C17.4943 48.7045 16.9672 58.5881 12.951 49.3073L12.9515 49.309ZM16.389 54.2398C19.539 52.8864 20.3211 47.4377 19.6689 42.5002C19.4344 40.8154 19.0081 39.1766 18.4217 37.8182C17.109 34.7762 14.9126 32.9537 11.7631 34.3088C7.66179 36.0712 7.17032 43.7408 8.64065 47.3097L8.71727 47.4868C9.24029 48.6972 9.97563 49.5027 11.2181 49.2822C11.3419 50.1391 11.6014 51.1483 11.9828 52.0341C12.7609 53.836 14.1275 55.2084 16.3864 54.2369L16.389 54.2398ZM28.3012 47.4023C28.8356 47.1721 29.1627 46.7872 29.4083 45.5611C29.5432 44.8941 29.6296 43.9718 29.6883 42.6943C29.7101 42.7483 29.7323 42.804 29.7553 42.8558C30.4183 44.3913 31.5231 45.3172 32.9619 44.734L33.0208 44.7092C34.0311 44.2753 34.4682 43.0016 34.7298 41.7332C34.9214 43.1557 35.0276 43.8107 35.093 44.9389C32.4525 46.2483 31.2485 47.5372 31.6566 49.4618C31.7155 49.6817 31.7629 49.8721 31.8395 50.0491C32.3107 51.1411 33.3213 51.6879 34.6674 51.2149L34.8748 51.1248C37.3708 50.0518 37.5468 47.0351 37.4697 44.652C38.484 43.655 39.0009 42.4886 39.3051 40.9913C39.4637 40.2091 39.5534 39.333 39.6116 38.3458C39.6418 38.4247 39.6733 38.5015 39.7065 38.5778C40.3695 40.1133 41.4743 41.0391 42.9131 40.456L42.972 40.4311C44.1307 39.9321 44.5843 38.373 44.7578 36.898C44.8818 37.2654 44.9788 37.573 45.1072 37.8685C45.3237 38.3706 45.574 38.7876 45.8805 39.0064C46.4755 39.4851 47.2855 39.2427 48.0294 38.9237L48.3857 38.7703C49.2447 38.357 49.6327 36.3695 49.8212 34.3248C50.0211 35.4858 50.2337 36.4423 50.4352 36.9086C50.7576 37.5745 51.7723 37.3135 52.4853 37.0083L52.6341 36.9448C52.8712 36.8432 53.0081 36.7485 52.8934 36.4838C52.6295 35.7913 52.4174 34.483 52.2121 33.0297C52.3519 31.8846 52.9446 27.7085 53.8218 25.8256C53.8736 25.6993 53.9525 25.5585 54.0425 25.5199C54.1014 25.495 54.1572 25.5399 54.1957 25.6293C54.3197 25.9967 54.7215 31.4962 55.5922 33.6777C56.2303 35.1545 57.074 35.0717 58.1445 34.6108L58.9629 34.2229C59.7857 33.8175 60.0534 32.8503 60.1587 30.0665C60.27 30.4682 60.3919 30.8416 60.5323 31.1683C60.7622 31.6995 61.0554 32.134 61.3602 32.3533C61.9552 32.832 62.7652 32.5896 63.5091 32.2706L63.8946 32.1038C64.8002 31.6672 65.1576 29.4087 65.3101 27.216C65.3341 27.2784 65.3594 27.3387 65.3868 27.4003C66.1898 29.2608 67.7483 30.3425 70.3116 29.3438L70.6386 29.2036C70.9359 29.075 71.2789 28.8925 71.6308 28.5661C72.6407 27.6411 73.7004 25.6095 73.8896 20.6623C73.8941 20.5904 73.8692 20.5318 73.8692 20.5318C73.8174 20.4134 73.7204 20.3505 73.6057 20.3305C73.6057 20.3305 73.5334 20.3263 73.4435 20.3649C73.3536 20.4035 73.2787 20.4707 73.2831 20.6436C73.0823 25.3165 72.1445 27.2248 71.2405 28.0689C71.0287 28.2308 70.8324 28.3486 70.625 28.4386C70.4761 28.5021 70.3157 28.536 70.1536 28.5704C69.1638 28.6452 68.4218 27.74 67.9749 26.705C67.7198 26.1135 67.5533 25.4855 67.5122 24.978C67.1493 22.5083 67.9513 19.7119 68.7834 19.3547L68.8733 19.3161C69.0045 19.2955 69.1033 19.3579 69.1666 19.5059C69.3699 19.9789 69.2097 21.2383 69.1804 21.4963C69.1627 21.5391 69.1893 21.5973 69.2008 21.6268C69.2526 21.7453 69.3204 21.8214 69.4351 21.8414C69.6651 21.8831 69.8977 21.8534 70.0759 21.7767C70.3732 21.6481 70.5766 21.3869 70.7002 21.0184C70.8608 20.495 70.8147 19.813 70.5716 19.2527C70.2018 18.3964 69.3859 17.7322 68.0956 18.0054C67.8745 18.0646 67.6241 18.1371 67.4167 18.2271C65.2478 19.16 64.6433 22.0812 64.7293 24.3206C64.7398 24.5298 64.755 24.7361 64.7757 24.9426C64.7162 27.299 64.464 31.1264 63.5823 31.5367C63.4041 31.6135 63.2686 31.4612 63.1269 31.1366C62.3488 29.3347 61.891 22.5648 61.8477 21.8114L61.8273 21.6809C61.6355 21.2374 60.5239 21.1908 59.8114 21.4977C59.4844 21.6379 59.2384 21.8833 59.2207 22.1709C59.2403 23.1355 59.3318 25.096 59.5801 27.0364C59.5026 32.1349 59.373 33.2773 58.6781 33.643C58.5292 33.7065 58.4233 33.5427 58.2701 33.1885C57.5305 31.4759 57.2482 26.9052 56.7839 24.6892L56.6599 24.3218C56.3149 23.5242 55.5005 23.349 54.7571 23.6696C53.5097 24.2051 52.9125 26.2487 52.5179 27.7829C52.2767 28.6924 52.0896 29.6471 51.9251 30.4889C51.9118 30.215 51.6298 26.8698 51.625 26.2057L51.6046 26.0752C51.4013 25.6021 50.2423 25.61 49.528 25.9174C49.1718 26.0708 48.9258 26.3162 48.9373 26.5905C48.9745 27.5522 49.1358 29.311 49.3579 31.126C49.291 33.4208 49.0372 37.7527 48.0974 38.1912C47.9486 38.2547 47.8042 38.0015 47.6261 37.5887C46.767 35.4369 46.5049 29.5265 46.4825 28.4157L46.4621 28.2852C46.2588 27.8122 45.1587 27.7951 44.4754 28.0888C44.1192 28.2423 43.8892 28.4453 43.8439 28.7457L43.8664 29.3669C43.267 28.9601 42.5293 28.962 41.7561 29.2942L41.7268 29.3075C39.5494 30.2427 38.7984 33.2701 39.0648 35.9652C39.0021 37.9489 38.9506 39.5526 38.6897 40.8716C38.4484 42.0257 38.0744 42.9563 37.434 43.7569C37.3143 41.6027 37.0414 39.0943 36.8109 36.8465C36.6145 35.2494 36.4819 33.802 36.4006 32.7161L36.3917 32.6152C36.2137 32.2024 35.1765 32.0869 34.464 32.3939C34.1667 32.5225 33.8955 32.7075 33.7763 33.0042C33.6952 33.1437 33.7248 33.3769 33.7717 33.5656C33.1812 33.2597 32.4843 33.2778 31.801 33.5715L31.7718 33.5848C29.5799 34.5274 28.8324 37.5884 29.1157 40.2988C29.0544 42.866 28.9516 44.4689 28.7598 45.4539C28.7129 45.7547 28.4419 46.6757 28.0564 46.8425C27.9076 46.9059 27.7499 46.8684 27.5762 46.6285L27.3007 46.1512C26.6625 44.6744 26.4796 41.6379 26.3802 40.1036C26.2989 39.0178 26.2693 38.2951 26.0643 37.8225L25.9447 37.6279C25.4938 36.9112 24.5085 36.6694 23.7662 36.988C23.1419 37.2568 22.5601 37.7861 21.7709 38.1607C21.771 37.916 21.7149 37.1352 21.6555 36.6689L21.6467 36.5679C21.5453 36.3322 21.1075 36.3788 20.7513 36.5323C20.454 36.6609 20.165 36.8888 20.1787 37.1643C20.1968 37.6127 20.2392 38.118 20.4177 38.5324C20.5577 38.8575 20.8035 39.1016 21.1615 39.1924C21.1794 40.6198 21.1753 41.1829 21.139 43.0544C21.1346 43.1263 21.1478 43.1553 21.1594 43.1849C21.236 43.362 21.3507 43.382 21.4527 43.3746C21.5249 43.3788 21.5542 43.3655 21.6148 43.3402C21.7047 43.3016 21.7841 43.1625 21.7753 43.0615C21.8204 41.291 21.8338 40.5858 21.7817 39.2419C21.9554 39.2371 22.1336 39.1604 22.2824 39.0969C22.7876 38.88 23.2586 38.5018 23.633 38.3072C23.7864 40.1315 23.8835 44.4328 24.8397 46.6475C25.043 47.1206 25.311 47.4947 25.5883 47.7268C26.2377 48.2525 27.2905 47.8345 28.0035 47.5292L28.3008 47.4006L28.3012 47.4023ZM33.007 42.7187L32.9777 42.732C32.6804 42.8606 32.4341 42.6148 32.2313 42.1434C31.4784 40.4018 31.4509 35.6867 32.8351 35.0565C33.2813 34.8645 33.5949 35.1847 33.7867 35.6282C34.0799 36.3074 34.1408 37.2628 34.1789 37.5952C34.2084 38.5626 33.9015 42.3358 33.0108 42.7195L33.007 42.7187ZM33.6614 50.1066C33.068 50.3617 32.6335 50.0938 32.4169 49.5917C32.3651 49.4732 32.3155 49.356 32.2929 49.2243C32.0083 47.6653 33.1113 46.6319 35.1226 45.6616C35.1541 47.6092 34.7891 49.6214 33.6597 50.1071L33.6614 50.1066ZM61.0905 19.6521C61.3276 19.5505 61.5101 19.4019 61.5057 19.2291C61.5218 18.6972 61.4786 17.4543 61.5123 17.1244C61.546 17.0392 61.508 16.9515 61.4827 16.8912C61.2909 16.4477 60.1953 16.3588 59.512 16.6524C59.185 16.7926 58.9555 16.9973 58.982 17.3002C58.9686 17.7607 59.1106 19.0659 59.3139 19.539C59.4804 19.9222 60.4933 19.9064 61.0883 19.6509L61.0905 19.6521Z" fill="#67B33D"/>
<path id="Vector_2" d="M23.6508 33.8427C23.7498 34.0827 24.0243 34.1959 24.2645 34.0989C24.5059 33.9998 24.6203 33.7262 24.5236 33.4874L23.2026 30.2719C23.1037 30.0319 22.8291 29.9187 22.5894 30.0174L22.5775 30.0206C22.4578 30.0708 22.343 30.1523 22.1944 30.2646L21.6938 30.6616C21.5373 30.7852 21.484 30.9807 21.5551 31.1575C21.6394 31.3633 21.8881 31.4616 22.0935 31.3776C22.1393 31.3581 22.1972 31.3226 22.2381 31.2917L22.5146 31.0853L23.6479 33.8454L23.6508 33.8427ZM27.3312 32.8838C28.4042 32.4458 28.7498 31.2456 28.2737 30.0878L28.2705 30.076C27.7944 28.9182 26.7091 28.3171 25.6476 28.7502C24.5815 29.1863 24.2291 30.3884 24.7052 31.5461L24.7084 31.558C25.1845 32.7157 26.2583 33.3217 27.3312 32.8838ZM27.0174 32.0868C26.4833 32.3043 25.9118 31.9063 25.6123 31.1762L25.6091 31.1644C25.3079 30.4347 25.4345 29.7645 25.9619 29.5488C26.4892 29.3332 27.071 29.7357 27.367 30.4595L27.3702 30.4713C27.6696 31.1942 27.5499 31.8698 27.0174 32.0868ZM31.5191 31.1725C32.5921 30.7345 32.9377 29.5342 32.4616 28.3765L32.4584 28.3647C31.9823 27.2069 30.897 26.6058 29.8355 27.0389C28.7677 27.4755 28.417 28.6771 28.8931 29.8348L28.8963 29.8467C29.3724 31.0044 30.4462 31.6104 31.5191 31.1725ZM31.2053 30.3755C30.6712 30.5929 30.0997 30.195 29.8002 29.4649L29.797 29.453C29.4958 28.7234 29.6224 28.0531 30.1498 27.8375C30.6771 27.6219 31.2589 28.0244 31.5549 28.7481L31.5581 28.76C31.8575 29.4828 31.7378 30.1585 31.2053 30.3755ZM33.9995 27.7487C34.5846 27.5103 34.7909 26.8858 34.5611 26.3274L34.5579 26.3155C34.3264 25.7576 33.7523 25.4654 33.1723 25.7024C32.5873 25.9408 32.3796 26.5602 32.6108 27.1237L32.6139 27.1355C32.8455 27.6935 33.4196 27.9856 33.9995 27.7487ZM34.3961 29.6438C34.4578 29.7922 34.6263 29.8631 34.7756 29.8014C34.8677 29.764 34.9402 29.6811 34.9618 29.5847L36.0936 25.0466C36.1118 24.9782 36.1125 24.9128 36.0814 24.8377C36.0198 24.6893 35.8513 24.6184 35.702 24.6802C35.6099 24.7175 35.5373 24.8004 35.5158 24.8968L34.3839 29.435C34.3704 29.5002 34.3651 29.5687 34.3961 29.6438ZM37.304 28.7812C37.8886 28.5412 38.0954 27.9184 37.8656 27.36L37.8624 27.3481C37.6308 26.7902 37.0568 26.498 36.4768 26.735C35.8917 26.9734 35.684 27.5928 35.9152 28.1563L35.9184 28.1681C36.1499 28.7261 36.724 29.0182 37.304 28.7812ZM33.7971 27.2246C33.5672 27.3188 33.322 27.1452 33.2119 26.8774L33.2088 26.8656C33.1001 26.6028 33.1329 26.3239 33.3726 26.2253C33.6025 26.131 33.8477 26.3046 33.9578 26.5724L33.961 26.5843C34.0678 26.8402 34.0368 27.1259 33.7971 27.2246ZM37.1016 28.2572C36.8716 28.3514 36.6264 28.1778 36.5164 27.91L36.5132 27.8982C36.4045 27.6354 36.4373 27.3565 36.677 27.2578C36.907 27.1636 37.1522 27.3372 37.2622 27.605L37.2654 27.6168C37.3723 27.8728 37.3413 28.1585 37.1016 28.2572Z" fill="#0F5D3C"/>
<path id="Vector_3" d="M41.0403 48.3107C41.1158 48.4971 41.3251 48.5843 41.5126 48.5086C41.7001 48.433 41.79 48.224 41.7128 48.038L41.4669 47.4332L41.9781 47.2255C42.6638 46.9475 43.0675 46.3589 42.7803 45.6545L42.7781 45.6461C42.5242 45.0252 41.908 44.7733 41.1778 45.0687L40.2635 45.4388C40.076 45.5144 39.9861 45.7234 40.0633 45.9094L41.0399 48.309L41.0403 48.3107ZM41.2254 46.838L40.8467 45.9079L41.3665 45.698C41.7038 45.5623 41.9791 45.6372 42.0999 45.9384L42.1022 45.9468C42.2087 46.2083 42.0939 46.4875 41.7566 46.6232L41.2237 46.8385L41.2254 46.838ZM43.9607 47.1275C44.0361 47.314 44.2459 47.4028 44.433 47.3255C44.6205 47.2499 44.7103 47.0409 44.6332 46.8549L44.362 46.1897L44.8995 45.9714L45.8919 46.5321C46.0104 46.6001 46.1416 46.6338 46.2943 46.5711C46.4555 46.5062 46.5641 46.3194 46.4886 46.1329C46.446 46.0283 46.3739 45.9769 46.2748 45.9201L45.5765 45.5452C45.8856 45.2431 46.0063 44.85 45.8123 44.3708L45.81 44.3623C45.6911 44.0751 45.5023 43.8737 45.2637 43.7727C44.9805 43.6546 44.6358 43.6672 44.2463 43.8259L43.1839 44.2556C42.9963 44.3313 42.9065 44.5403 42.9837 44.7262L43.9602 47.1259L43.9607 47.1275ZM44.1235 45.5992L43.7693 44.726L44.4383 44.4543C44.7655 44.3213 45.0274 44.3871 45.1445 44.6748L45.1468 44.6832C45.252 44.9397 45.1346 45.1887 44.8075 45.3216L44.1252 45.5987L44.1235 45.5992ZM48.7557 45.6071C49.6997 45.2254 50.0985 44.2375 49.7465 43.3728L49.7443 43.3643C49.3906 42.5001 48.4289 42.0743 47.4848 42.456C46.5408 42.8377 46.142 43.8256 46.494 44.6903L46.4962 44.6987C46.8482 45.5634 47.8116 45.9887 48.7557 45.6071ZM48.5129 44.9868C47.9703 45.2066 47.4088 44.9274 47.1978 44.4056L47.1956 44.3971C46.983 43.8758 47.1853 43.2977 47.728 43.0779C48.2707 42.8582 48.8322 43.1374 49.0448 43.6587L49.0471 43.6672C49.2597 44.1885 49.0573 44.7666 48.5146 44.9864L48.5129 44.9868ZM50.8273 44.3178C50.9028 44.5042 51.1125 44.593 51.2996 44.5157L52.1562 44.1683C53.1181 43.7783 53.513 42.844 53.165 41.9873L53.1627 41.9788C52.813 41.1226 51.8818 40.7358 50.9199 41.1259L50.0633 41.4732C49.8758 41.5489 49.7859 41.7579 49.8631 41.9438L50.829 44.3173L50.8273 44.3178ZM51.391 43.7751L50.6444 41.9412L51.1642 41.7312C51.7149 41.5075 52.241 41.7363 52.4599 42.2741L52.4621 42.2826C52.6831 42.8216 52.4615 43.3415 51.9108 43.5652L51.391 43.7751ZM55.6791 42.7984C56.5014 42.4656 56.8378 41.8026 56.4631 40.8806L55.8905 39.4713C55.815 39.2849 55.6053 39.1961 55.4182 39.2734C55.2306 39.349 55.1425 39.5575 55.218 39.744L55.8013 41.1794C55.9979 41.6615 55.8492 42.0113 55.4381 42.1777C55.0269 42.344 54.6736 42.1886 54.4716 41.6934L53.8981 40.2807C53.8226 40.0943 53.6133 40.0072 53.4258 40.0828C53.2382 40.1584 53.1501 40.367 53.2256 40.5534L53.8075 41.9837C54.1715 42.8796 54.8607 43.1319 55.683 42.7991L55.6791 42.7984ZM59.1435 41.4005C59.6336 41.2022 59.8991 40.928 60.0769 40.5776C60.1162 40.5 60.136 40.3968 60.0934 40.2922C60.0241 40.1222 59.8239 40.0417 59.6529 40.1111C59.574 40.1431 59.5168 40.2019 59.4811 40.2659C59.3515 40.4964 59.1982 40.6589 58.9139 40.775C58.3895 40.988 57.8492 40.6995 57.6366 40.1782L57.6343 40.1697C57.4217 39.6484 57.619 39.0716 58.1353 38.8626C58.3755 38.7656 58.6047 38.764 58.8495 38.8271C58.9107 38.8379 58.9848 38.8489 59.0768 38.8115C59.261 38.7368 59.3505 38.5333 59.2759 38.3503C59.228 38.2326 59.1287 38.1613 59.0369 38.1388C58.7082 38.0546 58.3466 38.0591 57.8879 38.2454C56.9473 38.6262 56.5794 39.6003 56.9314 40.465L56.9337 40.4735C57.2901 41.3479 58.2411 41.7674 59.1406 41.4032L59.1435 41.4005ZM61.502 40.0253C61.5775 40.2118 61.7872 40.3006 61.9743 40.2233C62.1618 40.1476 62.2517 39.9387 62.1745 39.7527L61.3138 37.6356L61.9617 37.3732C62.1326 37.3038 62.215 37.1077 62.1462 36.9394C62.0769 36.7695 61.8801 36.688 61.7109 36.757L59.7426 37.5545C59.5716 37.6239 59.4893 37.82 59.558 37.9883C59.6273 38.1582 59.8241 38.2397 59.9934 38.1707L60.6413 37.9083L61.502 40.0253Z" fill="#0F5D3C"/>
<path id="Vector_4" fill-rule="evenodd" clip-rule="evenodd" d="M38.9379 53.1453L39.8843 54.2623L41.244 53.7039L40.4671 54.9473L41.4176 56.0595L39.9918 55.7109L39.2195 56.9584L39.1149 55.4999L37.687 55.1574L39.0481 54.6042L38.9379 53.1453ZM52.2419 47.706L53.1883 48.823L54.548 48.2646L53.7711 49.508L54.7217 50.6202L53.2958 50.2716L52.5236 51.5191L52.4189 50.0606L50.991 49.7181L52.3521 49.1649L52.2419 47.706ZM56.4281 45.9952L57.3745 47.1121L58.7342 46.5538L57.9573 47.7971L58.9079 48.9093L57.482 48.5608L56.7098 49.8083L56.6051 48.3498L55.1772 48.0072L56.5383 47.454L56.4281 45.9952ZM43.1241 51.4345L44.0705 52.5514L45.4302 51.9931L44.6533 53.2364L45.6038 54.3486L44.178 54.0001L43.4058 55.2476L43.3011 53.7891L41.8732 53.4465L43.2343 52.8933L43.1241 51.4345Z" fill="#0F5D3C"/>
<path id="Vector_5" fill-rule="evenodd" clip-rule="evenodd" d="M47.3198 48.684L48.5145 50.0951L50.2319 49.3884L49.2512 50.9601L50.4514 52.3643L48.6497 51.9261L47.6751 53.4998L47.5423 51.6573L45.7385 51.2251L47.4598 50.5264L47.3198 48.684Z" fill="#0F5D3C"/>
<path id="Vector_6" fill-rule="evenodd" clip-rule="evenodd" d="M34.7507 9.4968C42.1812 7.50579 49.712 8.69849 55.8809 12.2376C57.434 13.1285 58.9013 14.1693 60.2589 15.3446C59.4884 15.1359 58.862 14.9612 58.4142 14.9434C57.4719 14.2224 56.4809 13.5651 55.4535 12.9757C49.4741 9.54539 42.1736 8.38888 34.9709 10.3188C27.7683 12.2488 22.0258 16.9001 18.5622 22.8589C16.9541 25.6266 15.8389 28.6755 15.2958 31.8666C15.0231 31.7946 14.7426 31.7411 14.4557 31.711C15.0157 28.4265 16.1662 25.2848 17.8217 22.4355C21.3946 16.2861 27.3201 11.4878 34.7507 9.4968ZM63.6853 18.8934L63.6935 18.9039L63.6848 18.9189L63.6853 18.8934ZM69.426 31.8146C70.4735 38.2886 69.1484 44.7041 66.0225 50.0865C62.4509 56.2337 56.5258 61.0337 49.0936 63.0252C41.6613 65.0167 34.1322 63.8235 27.9633 60.2844C25.0037 58.5866 22.3569 56.3481 20.1864 53.6629C20.3511 53.4067 20.5014 53.1379 20.6406 52.8614C22.7831 55.5849 25.4252 57.8464 28.3912 59.548C34.3684 62.977 41.6689 64.1336 48.8716 62.2036C56.0742 60.2737 61.8184 55.6218 65.2803 49.6635C68.3218 44.4288 69.603 38.1829 68.5685 31.8866C68.8481 31.8824 69.1339 31.8602 69.4248 31.8167L69.426 31.8146Z" fill="#0F5D3C"/>
<path id="Vector_7" fill-rule="evenodd" clip-rule="evenodd" d="M35.8792 13.7086C42.1413 12.0306 48.4861 13.0353 53.6836 16.0171C54.7929 16.6535 55.8498 17.3801 56.8414 18.1894C56.8817 18.6119 56.9468 19.0658 57.0351 19.4772C55.8697 18.4407 54.6028 17.5293 53.2545 16.7557C48.2465 13.8827 42.132 12.9142 36.0995 14.5306C30.0669 16.147 25.2558 20.043 22.3553 25.0351C20.6337 27.9982 19.5859 31.3463 19.3535 34.833C19.3286 34.8488 19.3053 34.8641 19.2809 34.8815C19.0577 34.5588 18.8194 34.2546 18.5674 33.9741C18.906 30.6456 19.9619 27.4567 21.6148 24.6117C24.6251 19.4307 29.6175 15.3882 35.8796 13.7103L35.8792 13.7086ZM65.2671 33.7974C65.7942 38.812 64.6571 43.7322 62.2277 47.911C59.2175 53.092 54.2251 57.1345 47.9629 58.8125C41.7008 60.4904 35.356 59.4857 30.1585 56.5039C26.8134 54.5849 23.9436 51.8478 21.8795 48.4778C21.9427 47.9859 21.9871 47.4918 22.0136 46.9988C24.0294 50.7189 27.0289 53.7222 30.5876 55.7653C35.5956 58.6383 41.7101 59.6068 47.7427 57.9904C53.7752 56.374 58.5863 52.478 61.4868 47.4859C63.7723 43.5524 64.8709 38.9379 64.4476 34.2219L64.7924 34.0733L64.8343 34.053C64.9877 33.9793 65.1307 33.8938 65.2654 33.7979L65.2671 33.7974Z" fill="#0F5D3C"/>
<path id="Vector_8" fill-rule="evenodd" clip-rule="evenodd" d="M35.3161 11.5933C35.0622 11.6595 34.9104 11.9159 34.9762 12.1684C35.042 12.4209 35.2992 12.5713 35.5531 12.5051C35.807 12.4389 35.9584 12.1808 35.893 11.93C35.8272 11.6775 35.5682 11.5276 35.3161 11.5933Z" fill="#0F5D3C"/>
<path id="Vector_9" fill-rule="evenodd" clip-rule="evenodd" d="M37.1174 11.1795C36.8602 11.2266 36.6894 11.4736 36.7361 11.7294C36.7828 11.9852 37.0305 12.1545 37.2872 12.1057C37.5443 12.0585 37.7151 11.8115 37.6667 11.5562C37.6201 11.3004 37.3724 11.1311 37.1157 11.1799L37.1174 11.1795Z" fill="#0F5D3C"/>
<path id="Vector_10" fill-rule="evenodd" clip-rule="evenodd" d="M38.9442 10.8948C38.6842 10.9246 38.4965 11.1562 38.524 11.4153C38.5532 11.674 38.7854 11.8601 39.0454 11.8304C39.3053 11.8006 39.4926 11.5673 39.4634 11.3087C39.4341 11.05 39.2003 10.8643 38.942 10.8936L38.9442 10.8948Z" fill="#0F5D3C"/>
<path id="Vector_11" fill-rule="evenodd" clip-rule="evenodd" d="M40.7862 10.7422C40.5247 10.7525 40.321 10.972 40.3306 11.2323C40.3402 11.4926 40.5602 11.6947 40.8218 11.6845C41.0833 11.6742 41.287 11.4547 41.2774 11.1944C41.2678 10.9341 41.0478 10.732 40.7862 10.7422Z" fill="#0F5D3C"/>
<path id="Vector_12" fill-rule="evenodd" clip-rule="evenodd" d="M42.6346 10.7218C42.3736 10.7138 42.1531 10.9179 42.1443 11.1777C42.1355 11.4375 42.3396 11.6548 42.601 11.6645C42.862 11.6725 43.0809 11.4688 43.0913 11.2086C43.1001 10.9488 42.8961 10.7316 42.6346 10.7218Z" fill="#0F5D3C"/>
<path id="Vector_13" fill-rule="evenodd" clip-rule="evenodd" d="M44.4783 10.8332C44.2178 10.8069 43.9855 10.9942 43.9566 11.2539C43.9295 11.5132 44.1171 11.7439 44.378 11.7719C44.6384 11.7982 44.8707 11.6109 44.8996 11.3512C44.9267 11.0919 44.7391 10.8612 44.48 10.8327L44.4783 10.8332Z" fill="#0F5D3C"/>
<path id="Vector_14" fill-rule="evenodd" clip-rule="evenodd" d="M46.3103 11.0786C46.0538 11.0331 45.8058 11.2028 45.7599 11.4599C45.7134 11.7153 45.8851 11.9611 46.1415 12.0066C46.398 12.0521 46.6455 11.8807 46.6919 11.6253C46.7379 11.3682 46.5667 11.124 46.3103 11.0786Z" fill="#0F5D3C"/>
<path id="Vector_15" fill-rule="evenodd" clip-rule="evenodd" d="M48.1182 11.4515C47.8641 11.3873 47.606 11.5398 47.5424 11.7925C47.4772 12.0457 47.6293 12.3004 47.8835 12.3646C48.136 12.4293 48.3941 12.2768 48.4593 12.0236C48.5245 11.7705 48.3724 11.5157 48.1182 11.4515Z" fill="#0F5D3C"/>
<path id="Vector_16" fill-rule="evenodd" clip-rule="evenodd" d="M49.8936 11.9546C49.6456 11.8724 49.377 12.006 49.2937 12.2531C49.2104 12.5002 49.344 12.7672 49.592 12.8494C49.8401 12.9316 50.1087 12.798 50.1919 12.5509C50.2752 12.3037 50.1417 12.0368 49.8936 11.9546Z" fill="#0F5D3C"/>
<path id="Vector_17" fill-rule="evenodd" clip-rule="evenodd" d="M51.6283 12.5849C51.3864 12.4848 51.1089 12.599 51.0093 12.8396C50.9081 13.0807 51.0238 13.3561 51.2635 13.455C51.5055 13.5551 51.7825 13.4392 51.8825 13.2003C51.9838 12.9592 51.8681 12.6839 51.6283 12.5849Z" fill="#0F5D3C"/>
<path id="Vector_18" fill-rule="evenodd" clip-rule="evenodd" d="M53.3132 13.3354C53.0796 13.2186 52.795 13.3129 52.6769 13.5458C52.5588 13.7787 52.6529 14.0617 52.8865 14.1785C53.1202 14.2954 53.4048 14.201 53.5229 13.9681C53.6409 13.7353 53.5469 13.4523 53.3132 13.3354Z" fill="#0F5D3C"/>
<path id="Vector_19" fill-rule="evenodd" clip-rule="evenodd" d="M54.9393 14.2068C54.714 14.0732 54.4239 14.1473 54.2908 14.3715C54.1559 14.5962 54.2296 14.8846 54.4545 15.0165C54.6777 15.1489 54.9699 15.076 55.1031 14.8518C55.2379 14.6271 55.1643 14.3387 54.9393 14.2068Z" fill="#0F5D3C"/>
<path id="Vector_20" fill-rule="evenodd" clip-rule="evenodd" d="M56.4972 15.1906C56.2823 15.0415 55.9885 15.0949 55.8377 15.3075C55.6873 15.5218 55.7401 15.8141 55.9533 15.9636C56.1683 16.1127 56.462 16.0593 56.6129 15.8467C56.7632 15.6324 56.7105 15.3401 56.4972 15.1906Z" fill="#0F5D3C"/>
<path id="Vector_21" fill-rule="evenodd" clip-rule="evenodd" d="M67.4551 33.5682C67.4293 33.3087 67.1984 33.1204 66.9388 33.1446C66.6779 33.171 66.4881 33.4014 66.5134 33.6592C66.5392 33.9188 66.7701 34.1071 67.0293 34.0812C67.2902 34.0548 67.48 33.8244 67.4547 33.5666L67.4551 33.5682Z" fill="#0F5D3C"/>
<path id="Vector_22" fill-rule="evenodd" clip-rule="evenodd" d="M67.5784 35.4023C67.5727 35.1428 67.3551 34.9364 67.0943 34.9428C66.8336 34.9493 66.6256 35.1663 66.6318 35.4275C66.6375 35.6871 66.8551 35.8934 67.1175 35.8866C67.3783 35.8801 67.5863 35.6631 67.5805 35.4036L67.5784 35.4023Z" fill="#0F5D3C"/>
<path id="Vector_23" fill-rule="evenodd" clip-rule="evenodd" d="M67.5698 37.2411C67.582 36.9804 67.3809 36.7606 67.119 36.7492C66.8571 36.7378 66.6356 36.9385 66.6234 37.1992C66.6108 37.4582 66.8124 37.6797 67.0743 37.6911C67.3362 37.7025 67.5576 37.5018 67.5698 37.2411Z" fill="#0F5D3C"/>
<path id="Vector_24" fill-rule="evenodd" clip-rule="evenodd" d="M67.4271 39.0759C67.4581 38.8174 67.273 38.5824 67.0133 38.5522C66.7537 38.5221 66.5187 38.7065 66.486 38.9655C66.455 39.2239 66.6397 39.4573 66.8998 39.4891C67.1594 39.5192 67.3944 39.3348 67.4271 39.0759Z" fill="#0F5D3C"/>
<path id="Vector_25" fill-rule="evenodd" clip-rule="evenodd" d="M67.1526 40.8952C67.2024 40.639 67.0342 40.3922 66.7786 40.3428C66.5212 40.294 66.2728 40.462 66.2225 40.7166C66.1727 40.9729 66.3404 41.218 66.5966 41.269C66.8539 41.3179 67.1006 41.1503 67.1509 40.8957L67.1526 40.8952Z" fill="#0F5D3C"/>
<path id="Vector_26" fill-rule="evenodd" clip-rule="evenodd" d="M66.7475 42.6897C66.8149 42.4378 66.6675 42.18 66.4141 42.1119C66.1612 42.0456 65.9017 42.193 65.8326 42.4454C65.7652 42.6973 65.9144 42.9546 66.1661 43.0232C66.419 43.0896 66.678 42.9404 66.7475 42.6897Z" fill="#0F5D3C"/>
<path id="Vector_27" fill-rule="evenodd" clip-rule="evenodd" d="M66.2122 44.4539C66.2993 44.2076 66.1692 43.9397 65.9219 43.8537C65.6747 43.7677 65.4052 43.8979 65.318 44.1442C65.2309 44.3905 65.3627 44.658 65.6083 44.7444C65.8556 44.8305 66.1246 44.6986 66.2122 44.4539Z" fill="#0F5D3C"/>
<path id="Vector_28" fill-rule="evenodd" clip-rule="evenodd" d="M65.5536 46.1731C65.6571 45.9332 65.5465 45.6565 65.3075 45.5538C65.0668 45.4515 64.7884 45.5623 64.6845 45.8004C64.5811 46.0403 64.6917 46.317 64.9307 46.4197C65.1714 46.522 65.4497 46.4112 65.5536 46.1731Z" fill="#0F5D3C"/>
<path id="Vector_29" fill-rule="evenodd" clip-rule="evenodd" d="M64.77 47.8407C64.8902 47.6091 64.8013 47.3247 64.5689 47.2057C64.3365 47.0867 64.0505 47.176 63.9303 47.4076C63.8101 47.6393 63.899 47.9236 64.1314 48.0426C64.3638 48.1616 64.6498 48.0723 64.77 47.8407Z" fill="#0F5D3C"/>
<path id="Vector_30" fill-rule="evenodd" clip-rule="evenodd" d="M63.8702 49.4485C64.0077 49.2268 63.9391 48.9369 63.715 48.8012C63.4926 48.665 63.2012 48.734 63.0642 48.9575C62.9267 49.1792 62.997 49.4686 63.2194 49.6048C63.4418 49.7409 63.7327 49.6702 63.8702 49.4485Z" fill="#0F5D3C"/>
<path id="Vector_31" fill-rule="evenodd" clip-rule="evenodd" d="M62.8541 50.99C63.007 50.7786 62.9589 50.4833 62.7469 50.3316C62.5349 50.1799 62.2381 50.2286 62.0851 50.44C61.9321 50.6514 61.9803 50.9467 62.1923 51.0984C62.4042 51.2501 62.7011 51.2014 62.8541 50.99Z" fill="#0F5D3C"/>
<path id="Vector_32" fill-rule="evenodd" clip-rule="evenodd" d="M61.7312 52.4529C61.8981 52.2523 61.8729 51.9545 61.6718 51.789C61.4707 51.6235 61.1736 51.6506 61.0046 51.8499C60.8378 52.0505 60.8641 52.3462 61.064 52.5138C61.2651 52.6793 61.5623 52.6523 61.7312 52.4529Z" fill="#0F5D3C"/>
<path id="Vector_33" fill-rule="evenodd" clip-rule="evenodd" d="M60.506 53.8326C60.6871 53.6445 60.682 53.3467 60.4952 53.1665C60.3067 52.9868 60.0075 52.9926 59.8259 53.1791C59.6448 53.3672 59.6499 53.6649 59.8367 53.8451C60.0252 54.0248 60.3244 54.019 60.506 53.8326Z" fill="#0F5D3C"/>
<path id="Vector_34" fill-rule="evenodd" clip-rule="evenodd" d="M59.1832 55.1206C59.3773 54.9471 59.394 54.6489 59.2198 54.4545C59.0456 54.2601 58.7465 54.246 58.5507 54.4199C58.3565 54.5934 58.3398 54.8915 58.514 55.086C58.6878 55.2787 58.9874 55.2945 59.1832 55.1206Z" fill="#0F5D3C"/>
<path id="Vector_35" fill-rule="evenodd" clip-rule="evenodd" d="M57.7726 56.3127C57.9794 56.1521 58.0171 55.8574 57.858 55.6516C57.6973 55.4464 57.4013 55.4097 57.1941 55.5685C56.9874 55.729 56.9497 56.0237 57.1087 56.2295C57.2695 56.4348 57.5655 56.4715 57.7726 56.3127Z" fill="#0F5D3C"/>
<path id="Vector_36" fill-rule="evenodd" clip-rule="evenodd" d="M56.2789 57.3981C56.497 57.2527 56.5557 56.9614 56.4118 56.7443C56.2663 56.5277 55.9738 56.4701 55.7553 56.6139C55.5372 56.7593 55.4786 57.0506 55.6224 57.2677C55.7679 57.4843 56.0604 57.5419 56.2789 57.3981Z" fill="#0F5D3C"/>
<path id="Vector_37" fill-rule="evenodd" clip-rule="evenodd" d="M54.711 58.3766C54.9391 58.2484 55.0188 57.9606 54.8906 57.7339C54.7624 57.5072 54.4734 57.4287 54.2453 57.5569C54.0171 57.6851 53.9375 57.973 54.0657 58.1997C54.1939 58.4264 54.4828 58.5048 54.711 58.3766Z" fill="#0F5D3C"/>
<path id="Vector_38" fill-rule="evenodd" clip-rule="evenodd" d="M53.0755 59.2389C53.3116 59.1267 53.4131 58.8457 53.301 58.6111C53.1889 58.3764 52.9068 58.2761 52.6708 58.3883C52.4347 58.5005 52.3332 58.7815 52.4453 59.0162C52.5574 59.2508 52.8394 59.3511 53.0755 59.2389Z" fill="#0F5D3C"/>
<path id="Vector_39" fill-rule="evenodd" clip-rule="evenodd" d="M51.3826 59.9827C51.6271 59.8882 51.7471 59.6149 51.6528 59.3719C51.5585 59.1289 51.2843 59.0102 51.0398 59.1047C50.7953 59.1992 50.6753 59.4725 50.7696 59.7155C50.8639 59.9585 51.1382 60.0772 51.3826 59.9827Z" fill="#0F5D3C"/>
<path id="Vector_40" fill-rule="evenodd" clip-rule="evenodd" d="M49.6422 60.6031C49.8912 60.5255 50.0318 60.2612 49.9562 60.0132C49.8785 59.7639 49.6138 59.6263 49.3643 59.7022C49.1153 59.7798 48.9747 60.0441 49.0503 60.2922C49.1276 60.5398 49.3927 60.679 49.6422 60.6031Z" fill="#0F5D3C"/>
<path id="Vector_41" fill-rule="evenodd" clip-rule="evenodd" d="M47.8609 61.0986C48.1149 61.0396 48.2749 60.7864 48.2159 60.5321C48.1569 60.2778 47.9034 60.1209 47.6477 60.1804C47.3937 60.2394 47.2337 60.4925 47.2927 60.7468C47.3518 61.0011 47.6052 61.158 47.8609 61.0986Z" fill="#0F5D3C"/>
<path id="Vector_42" fill-rule="evenodd" clip-rule="evenodd" d="M46.0486 61.4645C46.3076 61.4241 46.4836 61.1829 46.4437 60.9253C46.4039 60.6677 46.1621 60.4932 45.9031 60.5336C45.6441 60.574 45.4681 60.8151 45.508 61.0727C45.5479 61.3303 45.7897 61.5048 46.0486 61.4645Z" fill="#0F5D3C"/>
<path id="Vector_43" fill-rule="evenodd" clip-rule="evenodd" d="M44.2155 61.6983C44.4756 61.6757 44.6697 61.4479 44.6478 61.1891C44.6258 60.9303 44.3974 60.7377 44.1373 60.7602C43.8772 60.7828 43.6831 61.0107 43.705 61.2695C43.727 61.5283 43.9554 61.7209 44.2155 61.6983Z" fill="#0F5D3C"/>
<path id="Vector_44" fill-rule="evenodd" clip-rule="evenodd" d="M42.3697 61.8031C42.6314 61.8001 42.842 61.5859 42.8379 61.326C42.8356 61.0655 42.6214 60.8582 42.3598 60.8613C42.0981 60.8643 41.8892 61.078 41.8915 61.3384C41.8939 61.5988 42.108 61.8061 42.3697 61.8031Z" fill="#0F5D3C"/>
<path id="Vector_45" fill-rule="evenodd" clip-rule="evenodd" d="M40.5222 61.7723C40.7833 61.7875 41.0074 61.5897 41.0234 61.3298C41.0394 61.0699 40.8413 60.8475 40.5802 60.8322C40.3191 60.817 40.095 61.0148 40.079 61.2747C40.0629 61.5346 40.2611 61.7571 40.5222 61.7723Z" fill="#0F5D3C"/>
<path id="Vector_46" fill-rule="evenodd" clip-rule="evenodd" d="M38.6817 61.6111C38.9405 61.6451 39.1798 61.4632 39.2146 61.2055C39.2495 60.9478 39.0673 60.7101 38.8085 60.6762C38.5496 60.6422 38.3104 60.8241 38.2755 61.0818C38.2407 61.3395 38.4228 61.5771 38.6817 61.6111Z" fill="#0F5D3C"/>
<path id="Vector_47" fill-rule="evenodd" clip-rule="evenodd" d="M36.8587 61.3182C37.1153 61.3709 37.3663 61.2057 37.4188 60.9524C37.4724 60.6969 37.3076 60.4492 37.0528 60.396C36.7962 60.3433 36.5469 60.508 36.4927 60.7618C36.4391 61.0173 36.6039 61.265 36.8587 61.3182Z" fill="#0F5D3C"/>
<path id="Vector_48" fill-rule="evenodd" clip-rule="evenodd" d="M35.0615 60.897C35.3137 60.9672 35.5757 60.8226 35.6469 60.5715C35.7182 60.3204 35.572 60.0604 35.3215 59.9898C35.0694 59.9195 34.8078 60.0658 34.7361 60.3152C34.6649 60.5663 34.8111 60.8263 35.0615 60.897Z" fill="#0F5D3C"/>
<path id="Vector_49" fill-rule="evenodd" clip-rule="evenodd" d="M33.299 60.3467C33.5451 60.4349 33.8176 60.3093 33.9069 60.0642C33.9962 59.8191 33.8695 59.5503 33.6247 59.46C33.3787 59.3718 33.1083 59.4986 33.0168 59.7425C32.9276 59.9876 33.0543 60.2564 33.299 60.3467Z" fill="#0F5D3C"/>
<path id="Vector_50" fill-rule="evenodd" clip-rule="evenodd" d="M31.5812 59.6703C31.8194 59.7769 32.1003 59.6689 32.2081 59.4316C32.3158 59.1942 32.2082 58.9149 31.9704 58.81C31.7322 58.7034 31.4513 58.8113 31.3452 59.0482C31.2375 59.2856 31.3451 59.5649 31.5829 59.6698L31.5812 59.6703Z" fill="#0F5D3C"/>
<path id="Vector_51" fill-rule="evenodd" clip-rule="evenodd" d="M29.9186 58.8741C30.1485 58.9974 30.4371 58.911 30.5595 58.6806C30.684 58.4515 30.5963 58.165 30.3668 58.0434C30.1369 57.9201 29.8505 58.0077 29.726 58.2368C29.6015 58.466 29.6887 58.7508 29.9186 58.8741Z" fill="#0F5D3C"/>
<path id="Vector_52" fill-rule="evenodd" clip-rule="evenodd" d="M28.3179 57.9615C28.5391 58.0999 28.8314 58.0342 28.9714 57.8154C29.111 57.5949 29.0459 57.3042 28.8247 57.1659C28.6035 57.0275 28.3112 57.0931 28.1716 57.3137C28.032 57.5342 28.0972 57.8249 28.3183 57.9632L28.3179 57.9615Z" fill="#0F5D3C"/>
<path id="Vector_53" fill-rule="evenodd" clip-rule="evenodd" d="M26.7867 56.9342C26.9974 57.088 27.2939 57.0448 27.449 56.8347C27.6042 56.6245 27.5599 56.33 27.3508 56.1757C27.1418 56.0214 26.8441 56.0668 26.6885 56.2753C26.5333 56.4854 26.5776 56.7799 26.7867 56.9342Z" fill="#0F5D3C"/>
<path id="Vector_54" fill-rule="evenodd" clip-rule="evenodd" d="M25.3345 55.8005C25.5331 55.9703 25.8312 55.9466 26.0023 55.7485C26.1734 55.5504 26.1505 55.2538 25.9519 55.084C25.7532 54.9142 25.4552 54.9379 25.2841 55.136C25.1129 55.3342 25.1359 55.6308 25.3345 55.8005Z" fill="#0F5D3C"/>
<path id="Vector_55" fill-rule="evenodd" clip-rule="evenodd" d="M23.9666 54.5663C24.1522 54.7487 24.4527 54.7479 24.6364 54.5627C24.8201 54.3775 24.8202 54.0784 24.6346 53.896C24.449 53.7137 24.1489 53.7162 23.9648 53.8997C23.7811 54.0849 23.7827 54.3835 23.9666 54.5663Z" fill="#0F5D3C"/>
<path id="Vector_56" fill-rule="evenodd" clip-rule="evenodd" d="M22.6937 53.2376C22.8645 53.433 23.1654 53.4539 23.3617 53.2816C23.558 53.1094 23.5786 52.812 23.4077 52.6166C23.2369 52.4213 22.9365 52.4021 22.7397 52.5727C22.5434 52.7449 22.5229 53.0423 22.6937 53.2376Z" fill="#0F5D3C"/>
<path id="Vector_57" fill-rule="evenodd" clip-rule="evenodd" d="M21.5211 51.8205C21.6789 52.0284 21.9758 52.0685 22.1834 51.9113C22.3927 51.7537 22.4338 51.4581 22.2765 51.2519C22.1187 51.044 21.8218 51.0039 21.6142 51.161C21.4048 51.3186 21.3637 51.6143 21.5211 51.8205Z" fill="#0F5D3C"/>
<path id="Vector_58" fill-rule="evenodd" clip-rule="evenodd" d="M16.8285 30.9539C16.771 31.2086 16.9328 31.459 17.1886 31.5155C17.4444 31.5721 17.6963 31.4103 17.7538 31.1556C17.8114 30.9009 17.6495 30.6505 17.3937 30.594C17.138 30.5374 16.886 30.6992 16.8285 30.9539Z" fill="#0F5D3C"/>
<path id="Vector_59" fill-rule="evenodd" clip-rule="evenodd" d="M17.282 29.17C17.2069 29.4203 17.348 29.6816 17.5993 29.7557C17.8507 29.8298 18.1132 29.6869 18.1887 29.4382C18.2638 29.1879 18.121 28.927 17.8714 28.8525C17.62 28.7785 17.3575 28.9213 17.282 29.17Z" fill="#0F5D3C"/>
<path id="Vector_60" fill-rule="evenodd" clip-rule="evenodd" d="M17.8637 27.4224C17.7706 27.6667 17.8943 27.9381 18.1378 28.0306C18.3831 28.1226 18.6561 27.9987 18.748 27.7565C18.8411 27.5122 18.7173 27.2408 18.4738 27.1483C18.2286 27.0563 17.9556 27.1802 17.8637 27.4224Z" fill="#0F5D3C"/>
<path id="Vector_61" fill-rule="evenodd" clip-rule="evenodd" d="M18.5691 25.7213C18.4592 25.9575 18.5617 26.2382 18.7987 26.3469C19.0356 26.4556 19.3179 26.3528 19.4278 26.1167C19.5378 25.8806 19.4352 25.5999 19.1983 25.4911C18.9613 25.3824 18.679 25.4852 18.5691 25.7213Z" fill="#0F5D3C"/>
<path id="Vector_62" fill-rule="evenodd" clip-rule="evenodd" d="M19.3961 24.0731C19.2694 24.3011 19.3516 24.5872 19.5802 24.7127C19.8089 24.8381 20.0967 24.7556 20.2233 24.5277C20.35 24.2998 20.2679 24.0136 20.0392 23.8881C19.8105 23.7627 19.5228 23.8452 19.3961 24.0731Z" fill="#0F5D3C"/>
<path id="Vector_63" fill-rule="evenodd" clip-rule="evenodd" d="M20.3407 22.4893C20.1968 22.7074 20.2585 22.999 20.4772 23.1416C20.6959 23.2843 20.9891 23.222 21.133 23.004C21.2769 22.7859 21.2152 22.4943 20.9965 22.3517C20.7778 22.209 20.4846 22.2713 20.3407 22.4893Z" fill="#0F5D3C"/>
<path id="Vector_64" fill-rule="evenodd" clip-rule="evenodd" d="M21.3957 20.9775C21.238 21.1848 21.2772 21.4806 21.4854 21.6388C21.6932 21.7952 21.9906 21.7554 22.1484 21.5481C22.3061 21.3409 22.2669 21.045 22.0591 20.8886C21.8513 20.7322 21.5539 20.772 21.3962 20.9792L21.3957 20.9775Z" fill="#0F5D3C"/>
<path id="Vector_65" fill-rule="evenodd" clip-rule="evenodd" d="M22.5574 19.5441C22.3837 19.7393 22.4032 20.0369 22.5989 20.2092C22.7946 20.3816 23.0935 20.3613 23.2673 20.1661C23.441 19.9709 23.4214 19.6734 23.2258 19.501C23.0301 19.3286 22.7311 19.3489 22.5574 19.5441Z" fill="#0F5D3C"/>
<path id="Vector_66" fill-rule="evenodd" clip-rule="evenodd" d="M23.8208 18.1976C23.6345 18.3798 23.6306 18.6782 23.8136 18.8648C23.9963 19.0497 24.296 19.0528 24.4836 18.8684C24.6699 18.6861 24.6738 18.3878 24.489 18.2016C24.3064 18.0167 24.0067 18.0136 23.8186 18.1963L23.8208 18.1976Z" fill="#0F5D3C"/>
<path id="Vector_67" fill-rule="evenodd" clip-rule="evenodd" d="M25.1766 16.9444C24.9777 17.1137 24.9515 17.4107 25.1211 17.6082C25.2907 17.8057 25.5887 17.8292 25.788 17.6616C25.9869 17.4923 26.0113 17.1956 25.8434 16.9977C25.6739 16.8002 25.3759 16.7767 25.1766 16.9444Z" fill="#0F5D3C"/>
<path id="Vector_68" fill-rule="evenodd" clip-rule="evenodd" d="M26.6197 15.7926C26.4095 15.9468 26.3628 16.2421 26.5172 16.4509C26.6721 16.6614 26.9682 16.7054 27.1784 16.5511C27.3887 16.3969 27.4353 16.1016 27.2809 15.8928C27.1265 15.684 26.83 15.6384 26.6197 15.7926Z" fill="#0F5D3C"/>
<path id="Vector_69" fill-rule="evenodd" clip-rule="evenodd" d="M28.1418 14.7447C27.9202 14.8838 27.8521 15.174 27.9913 15.3941C28.1305 15.6143 28.4219 15.6812 28.6434 15.5421C28.865 15.403 28.9314 15.1132 28.7939 14.8927C28.6547 14.6725 28.3638 14.6073 28.1418 14.7447Z" fill="#0F5D3C"/>
<path id="Vector_70" fill-rule="evenodd" clip-rule="evenodd" d="M29.736 13.8101C29.5044 13.9319 29.417 14.2182 29.5389 14.4484C29.6607 14.6787 29.9481 14.7648 30.1793 14.6412C30.4109 14.5193 30.4983 14.2331 30.3748 14.0033C30.2529 13.7731 29.9655 13.6869 29.7343 13.8105L29.736 13.8101Z" fill="#0F5D3C"/>
<path id="Vector_71" fill-rule="evenodd" clip-rule="evenodd" d="M31.394 12.9904C31.1544 13.0963 31.0469 13.3752 31.1521 13.6117C31.2579 13.8499 31.5379 13.9561 31.7758 13.8507C32.0154 13.7448 32.1229 13.4658 32.0176 13.2293C31.9119 12.9912 31.6319 12.8849 31.394 12.9904Z" fill="#0F5D3C"/>
<path id="Vector_72" fill-rule="evenodd" clip-rule="evenodd" d="M33.1046 12.2928C32.8584 12.3805 32.7302 12.6505 32.8181 12.8971C32.9056 13.1419 33.1766 13.2687 33.4228 13.181C33.6691 13.0933 33.7973 12.8232 33.7098 12.5784C33.6223 12.3335 33.3514 12.2067 33.1051 12.2945L33.1046 12.2928Z" fill="#0F5D3C"/>
<path id="Vector_73" fill-rule="evenodd" clip-rule="evenodd" d="M48.7926 15.5057C51.2219 19.735 50.3892 22.7227 46.2979 24.468L46.5744 23.3298L47.354 20.1169L46.1677 23.2067L45.7483 24.3016C43.3652 20.5712 44.379 17.6401 48.793 15.5074L48.7926 15.5057Z" fill="#7DBE35"/>
<path id="Vector_74" fill-rule="evenodd" clip-rule="evenodd" d="M33.6476 16.9859C34.3955 23.8792 37.8528 26.6184 44.0192 25.2091L42.7476 24.1303L39.1596 21.0871L43.109 23.6492L44.5077 24.5561C44.1263 18.2752 40.5041 15.7506 33.6459 16.9864L33.6476 16.9859Z" fill="#7DBE35"/>
</g>
<defs>
<clipPath id="clip0_0_1853">
<rect width="70" height="55.4167" fill="white" transform="translate(0.875244 18.5737) rotate(-15)"/>
</clipPath>
</defs>
</svg>
