<svg width="145" height="185" viewBox="0 0 145 185" fill="none" xmlns="http://www.w3.org/2000/svg">
<g id="Group">
<path id="Vector" d="M50.7448 124.833C54.6251 123.871 58.4777 122.989 62.2536 121.946C66.428 120.778 70.6278 119.664 74.6822 118.144C76.7494 117.364 78.4735 115.734 80.23 114.137C76.9721 112.129 73.9447 113.877 70.9059 114.271C70.8292 114.111 70.7594 113.932 70.6826 113.772C73.5232 112.556 76.3696 111.386 79.1777 110.137C84.847 107.612 90.5105 105.041 96.174 102.47C96.9127 102.132 97.626 101.741 98.2742 101.282C99.8912 100.146 99.761 98.3731 97.8876 97.7814C96.5927 97.3708 94.9969 97.1866 93.7159 97.5557C89.9064 98.6305 86.0889 99.7911 82.4564 101.371C77.9125 103.339 73.5465 105.746 69.098 107.946C68.7252 108.125 68.3395 108.278 67.9539 108.43C67.8702 108.29 67.8063 108.157 67.7157 108.036C71.3067 105.756 74.8268 103.362 78.4945 101.241C87.3696 96.1454 96.4249 91.3567 105.216 86.1212C113.895 80.9565 122.322 75.3715 130.858 69.9799C131.118 69.8058 131.471 69.6859 131.62 69.4505C132.001 68.7432 132.642 67.9278 132.52 67.2653C132.442 66.795 131.25 66.1548 130.628 66.224C127.921 66.4909 125.047 66.4776 122.626 67.5088C115.655 70.4616 108.818 73.727 102.044 77.1256C91.7137 82.3297 82.7525 89.4981 73.9074 96.8401C73.6863 97.0281 73.42 97.1559 72.9459 97.0558C74.9591 95.1064 76.9538 93.0841 79.032 91.2019C91.0466 80.2579 103.126 69.3811 115.128 58.4104C122.074 52.0618 128.193 44.9797 132.838 36.7377C133.797 35.0158 134.587 33.1458 135.139 31.2588C135.845 28.8722 134.352 27.5732 132.024 28.5926C130.114 29.4272 128.305 30.607 126.646 31.8618C112.441 42.6119 99.6652 54.9045 87.8048 68.1829C85.726 70.5077 83.6404 72.8522 81.4514 75.0497C84.6702 69.6055 88.1187 64.264 91.036 58.6695C93.5108 53.8937 95.6458 48.8877 97.4318 43.8035C98.2764 41.3994 98.1701 38.5505 97.961 35.9312C97.7365 33.0407 95.3587 32.1833 93.1936 34.1236C91.6986 35.4801 90.2526 37.0753 89.3062 38.8238C84.9232 46.8257 80.5333 54.8472 76.4912 63.013C70.4563 75.15 64.8933 87.5191 57.7973 99.0841C57.4517 99.6268 57.0991 100.189 56.3998 100.541C56.8722 99.5118 57.3445 98.4822 57.8366 97.4597C62.7366 87.2928 66.8355 76.8224 69.0353 65.707C69.5528 63.0994 69.8072 60.4215 69.8761 57.767C69.899 56.7566 69.0828 55.7394 68.6699 54.7088C67.7357 55.2883 66.4478 55.6771 65.9519 56.5213C64.4506 59.0932 63.0143 61.7323 62.0116 64.5236C58.8038 73.4032 55.786 82.3716 52.6964 91.2927C52.5302 91.7657 52.3711 92.2189 51.9013 92.6738C51.9827 92.1268 52.0572 91.5995 52.0993 91.0387C52.4063 87.9586 52.7794 84.8797 52.9613 81.7778C53.0304 80.7616 52.797 79.6613 52.4225 78.7106C51.7874 77.1149 50.3178 76.8865 49.2132 78.2031C48.3781 79.1937 47.6266 80.3244 47.2043 81.5265C45.889 85.2707 44.5076 89.0138 43.5737 92.8699C42.1148 98.9767 41.0049 105.162 39.7569 111.298C39.5924 112.082 39.3885 112.851 39.1765 113.707C37.9546 113.278 36.8717 112.831 35.7472 112.502C20.7834 107.954 6.65839 119.485 8.33352 135.326C8.8672 140.362 8.72385 145.182 7.93866 150.065C7.895 150.315 7.87797 150.552 7.87373 150.817C7.54127 155.482 7.65156 155.609 12.2681 155.703C12.6447 155.703 13.0202 155.768 13.384 155.741C17.6974 155.374 21.7009 156.205 25.8595 157.666C33.6643 160.408 41.0755 158.849 47.0306 152.927C53.0863 146.908 54.5536 139.454 52.5447 131.243C52.0481 129.253 51.4785 127.282 50.805 124.787L50.7448 124.833Z" fill="#6D513A"/>
<path id="Vector_2" d="M15.9572 143.185C16.0855 143.009 16.2405 142.82 16.3689 142.643C15.4766 141.843 14.694 140.793 13.6654 140.255C11.1825 138.94 10.5005 136.973 10.2206 134.24C9.26738 125.294 15.4576 116.244 24.2137 114.45C33.3012 112.595 40.3518 116.223 46.0641 122.967C52.5867 130.682 52.7559 139.088 49.0845 146.388C48.8592 146.84 48.5226 147.231 47.941 148.067C47.7561 141.471 45.0033 136.387 41.9587 131.376C38.7143 126.053 32.2919 118.682 30.3855 118.5C30.7734 119.035 31.0834 119.476 31.4073 119.877C33.2473 122.14 35.188 124.305 36.8879 126.651C40.6687 131.897 44.2896 137.221 45.9378 143.622C47.3994 149.294 45.5658 152.811 40.3326 154.094C40.0286 149.981 39.479 145.936 36.5587 142.652C36.3531 143.111 36.3596 143.534 36.4725 143.905C37.1492 146.202 38.0576 148.469 38.476 150.808C39.2274 155.034 38.8721 155.352 34.6839 155.741C34.5912 155.752 34.4937 155.652 34.3105 155.543C35.1178 152.993 35.0259 150.481 34.0488 147.969C30.844 139.759 25.3512 133.335 18.4533 128.012C17.755 127.479 17.0161 126.998 16.2842 126.497C16.1697 126.634 16.0482 126.79 15.914 126.92C16.4398 127.504 16.9113 128.178 17.5111 128.677C21.8792 132.314 25.7116 136.406 28.8531 141.14C31.0981 144.519 33.2029 147.981 33.4132 152.173C33.6005 155.737 32.1858 156.612 28.9056 155.172C29.5629 150.023 23.3404 138.429 18.3726 135.931C18.6677 136.477 18.827 136.843 19.0535 137.144C21.2398 140.06 23.58 142.852 25.5729 145.877C27.3405 148.534 28.323 151.536 27.4189 155.181C21.3662 153.188 15.2987 153.757 8.93892 154.844C9.58249 150.553 10.1734 146.666 10.8803 142.132C13.1306 145.181 15.1357 147.855 17.1339 150.55C17.2612 150.439 17.4013 150.356 17.5286 150.246C15.9884 147.004 14.4146 143.794 11.5327 141.409C11.0373 140.992 10.7374 140.333 10.3495 139.798C10.5104 139.655 10.6712 139.513 10.8252 139.39C12.5165 140.626 14.2206 141.889 15.9119 143.125L15.9572 143.185Z" fill="#F6DF7F"/>
<path id="Vector_3" d="M133.487 29.6601C133.676 29.8151 133.884 29.977 134.074 30.132C133.494 31.6552 133.066 33.2535 132.323 34.6751C128.792 41.4487 124.144 47.4315 118.629 52.667C112.913 58.0974 106.996 63.2802 101.027 68.4225C86.8861 80.5675 72.914 92.8606 60.6179 106.938C58.2015 109.72 55.4592 112.232 52.8734 114.866C53.0485 114.241 53.4128 113.771 53.7771 113.301C61.3922 103.978 69.151 94.7487 76.5897 85.2966C85.2358 74.2983 94.3832 63.7639 104.605 54.2047C112.52 46.8015 120.714 39.6736 128.856 32.5053C130.203 31.3181 131.919 30.5927 133.487 29.6601Z" fill="#AFF1D5"/>
<path id="Vector_4" d="M57.5581 104.114C57.368 104.025 57.1975 103.943 57.0143 103.834C65.2587 92.3408 70.909 79.471 77.0312 66.8334C81.1238 58.3975 85.4264 50.0575 89.8008 41.7649C90.9794 39.5444 92.6693 37.5701 94.299 35.641C95.2348 34.5528 96.1286 34.8447 96.2374 36.2998C96.343 37.953 96.4072 39.7244 95.9135 41.2556C94.8421 44.6206 93.6386 47.9834 92.0884 51.1359C85.9347 63.6739 78.1585 75.2213 70.1271 86.6126C65.9831 92.4846 61.7544 98.2825 57.5512 104.134L57.5581 104.114Z" fill="#AFF1D5"/>
<path id="Vector_5" d="M130.783 68.0499C129.495 68.8813 128.252 69.7729 126.938 70.5511C115.606 77.2188 104.269 83.8402 92.937 90.5079C85.8275 94.674 78.3882 98.3921 71.7048 103.173C64.3131 108.457 57.639 114.725 50.6549 120.551C50.0589 121.05 49.4757 121.575 48.8994 122.081C48.7166 121.53 48.7997 121.294 48.9606 121.151C58.3202 113.038 67.5695 104.797 77.1102 96.9248C83.2161 91.897 89.4925 86.9512 96.2057 82.7788C103.459 78.2649 111.222 74.5718 118.887 70.778C122.53 68.9804 126.392 67.5035 130.803 68.0568L130.783 68.0499Z" fill="#AFF1D5"/>
<path id="Vector_6" d="M45.7003 116.818C45.5426 116.762 45.4047 116.714 45.2667 116.665C47.1147 112.666 49.2779 108.776 50.7908 104.659C55.0675 92.9891 59.0612 81.242 63.1802 69.5168C64.4332 65.9499 65.7326 62.3772 67.025 58.8243C67.2534 58.174 67.6593 57.586 67.9793 56.99C68.1961 57.0662 68.3991 57.1817 68.5892 57.2707C65.659 78.9107 56.1493 98.0403 45.727 116.805L45.7003 116.818Z" fill="#AFF1D5"/>
<path id="Vector_7" d="M41.2829 115.022C42.714 108.175 43.9693 101.576 45.5076 95.0544C46.606 90.4149 48.0336 85.8468 49.3824 81.251C49.6268 80.4292 50.1807 79.6718 50.5897 78.8857C50.7612 78.9017 50.9258 78.9374 51.0973 78.9534C51.2561 79.7619 51.5865 80.5863 51.5738 81.3788C51.5452 83.162 51.483 84.9776 51.2169 86.7437C49.8201 96.3923 46.4828 105.514 43.3692 114.692C43.2308 115.087 43.0007 115.426 42.7685 115.898C42.1469 115.525 41.6365 115.213 41.2701 114.996L41.2829 115.022Z" fill="#AFF1D5"/>
<path id="Vector_8" d="M97.2747 99.3372C83.9051 105.378 70.7948 111.31 58.5565 116.84C67.6292 110.552 78.2536 105.141 89.3649 100.676C91.7655 99.7042 94.312 98.6949 97.2944 99.3441L97.2747 99.3372Z" fill="#AFF1D5"/>
<path id="Vector_9" d="M64.1193 119.724C64.0437 119.498 63.968 119.272 63.912 119.053C67.9505 117.705 72.0156 116.343 76.0541 114.995C76.1228 115.24 76.2182 115.473 76.2869 115.719C72.2287 117.06 68.1706 118.402 64.1193 119.724Z" fill="#AFF1D5"/>
</g>
</svg>
