<svg width="58" height="10" viewBox="0 0 58 10" fill="none" xmlns="http://www.w3.org/2000/svg">
<g clip-path="url(#clip0_0_1010)">
<path d="M2.3225 6.40084L1.79458 9.63709C1.7525 9.89418 2.02708 10.0871 2.25417 9.96084L5 8.44334L7.74583 9.96126C7.97083 10.0863 8.24792 9.89709 8.20542 9.63751L7.6775 6.40126L9.91083 4.11209C10.0879 3.93084 9.98625 3.62334 9.73458 3.58501L6.66042 3.11543L5.2825 0.180427C5.17958 -0.0387394 4.82 -0.0387394 4.71708 0.180427L3.33958 3.11501L0.265418 3.58459C0.0129178 3.62334 -0.0879156 3.93043 0.0891678 4.11168L2.3225 6.40084Z" fill="#ECB72B"/>
</g>
<g clip-path="url(#clip1_0_1010)">
<path d="M14.3225 6.40084L13.7946 9.63709C13.7525 9.89418 14.0271 10.0871 14.2542 9.96084L17 8.44334L19.7458 9.96126C19.9708 10.0863 20.2479 9.89709 20.2054 9.63751L19.6775 6.40126L21.9108 4.11209C22.0879 3.93084 21.9863 3.62334 21.7346 3.58501L18.6604 3.11543L17.2825 0.180427C17.1796 -0.0387394 16.82 -0.0387394 16.7171 0.180427L15.3396 3.11501L12.2654 3.58459C12.0129 3.62334 11.9121 3.93043 12.0892 4.11168L14.3225 6.40084Z" fill="#ECB72B"/>
</g>
<g clip-path="url(#clip2_0_1010)">
<path d="M26.3225 6.40084L25.7946 9.63709C25.7525 9.89418 26.0271 10.0871 26.2542 9.96084L29 8.44334L31.7458 9.96126C31.9708 10.0863 32.2479 9.89709 32.2054 9.63751L31.6775 6.40126L33.9108 4.11209C34.0879 3.93084 33.9863 3.62334 33.7346 3.58501L30.6604 3.11543L29.2825 0.180427C29.1796 -0.0387394 28.82 -0.0387394 28.7171 0.180427L27.3396 3.11501L24.2654 3.58459C24.0129 3.62334 23.9121 3.93043 24.0892 4.11168L26.3225 6.40084Z" fill="#ECB72B"/>
</g>
<g clip-path="url(#clip3_0_1010)">
<path d="M38.3225 6.40084L37.7946 9.63709C37.7525 9.89418 38.0271 10.0871 38.2542 9.96084L41 8.44334L43.7458 9.96126C43.9708 10.0863 44.2479 9.89709 44.2054 9.63751L43.6775 6.40126L45.9108 4.11209C46.0879 3.93084 45.9863 3.62334 45.7346 3.58501L42.6604 3.11543L41.2825 0.180427C41.1796 -0.0387394 40.82 -0.0387394 40.7171 0.180427L39.3396 3.11501L36.2654 3.58459C36.0129 3.62334 35.9121 3.93043 36.0892 4.11168L38.3225 6.40084Z" fill="#ECB72B"/>
</g>
<g clip-path="url(#clip4_0_1010)">
<path d="M50.3225 6.40084L49.7946 9.63709C49.7525 9.89418 50.0271 10.0871 50.2542 9.96084L53 8.44334L55.7458 9.96126C55.9708 10.0863 56.2479 9.89709 56.2054 9.63751L55.6775 6.40126L57.9108 4.11209C58.0879 3.93084 57.9863 3.62334 57.7346 3.58501L54.6604 3.11543L53.2825 0.180427C53.1796 -0.0387394 52.82 -0.0387394 52.7171 0.180427L51.3396 3.11501L48.2654 3.58459C48.0129 3.62334 47.9121 3.93043 48.0892 4.11168L50.3225 6.40084Z" fill="#ECB72B"/>
</g>
<defs>
<clipPath id="clip0_0_1010">
<rect width="10" height="10" fill="white"/>
</clipPath>
<clipPath id="clip1_0_1010">
<rect width="10" height="10" fill="white" transform="translate(12)"/>
</clipPath>
<clipPath id="clip2_0_1010">
<rect width="10" height="10" fill="white" transform="translate(24)"/>
</clipPath>
<clipPath id="clip3_0_1010">
<rect width="10" height="10" fill="white" transform="translate(36)"/>
</clipPath>
<clipPath id="clip4_0_1010">
<rect width="10" height="10" fill="white" transform="translate(48)"/>
</clipPath>
</defs>
</svg>
