<svg width="13" height="13" viewBox="0 0 13 13" fill="none" xmlns="http://www.w3.org/2000/svg">
<g id="ant-design:copyright-circle-outlined" clip-path="url(#clip0_0_407)">
<path id="Vector" d="M6.5 0.8125C3.35918 0.8125 0.8125 3.35918 0.8125 6.5C0.8125 9.64082 3.35918 12.1875 6.5 12.1875C9.64082 12.1875 12.1875 9.64082 12.1875 6.5C12.1875 3.35918 9.64082 0.8125 6.5 0.8125ZM6.5 11.2227C3.89238 11.2227 1.77734 9.10762 1.77734 6.5C1.77734 3.89238 3.89238 1.77734 6.5 1.77734C9.10762 1.77734 11.2227 3.89238 11.2227 6.5C11.2227 9.10762 9.10762 11.2227 6.5 11.2227ZM6.57109 4.45986C7.24395 4.45986 7.70098 4.88897 7.75176 5.51865C7.75557 5.57197 7.8 5.6126 7.85332 5.6126H8.57314C8.60615 5.6126 8.63281 5.58594 8.63281 5.55293C8.63281 4.45225 7.76445 3.68164 6.56729 3.68164C5.17207 3.68164 4.36719 4.62363 4.36719 6.18008V6.84404C4.36719 8.38906 5.17207 9.31836 6.56729 9.31836C7.76064 9.31836 8.63281 8.57187 8.63281 7.52324C8.63281 7.49023 8.60615 7.46357 8.57314 7.46357H7.85205C7.79873 7.46357 7.75557 7.5042 7.75049 7.55625C7.69717 8.1415 7.24141 8.54395 6.56982 8.54395C5.74082 8.54395 5.27363 7.93584 5.27363 6.84785V6.18008C5.2749 5.07559 5.74336 4.45986 6.57109 4.45986Z" fill="#232424"/>
</g>
<defs>
<clipPath id="clip0_0_407">
<rect width="13" height="13" fill="white"/>
</clipPath>
</defs>
</svg>
