<svg width="19" height="20" viewBox="0 0 19 20" fill="none" xmlns="http://www.w3.org/2000/svg">
<g id="Frame" clip-path="url(#clip0_0_396)">
<path id="Vector" d="M7.39937 8.9712C6.23998 7.39498 4.63466 6.03904 2.80638 5.07624C2.53009 4.93725 2.22496 4.86238 1.91453 4.85742C1.2018 4.85742 0.576763 5.2513 0.220026 5.86326C-0.0162373 6.30449 -0.0644087 6.81969 0.0860867 7.29575C0.236582 7.7718 0.573444 8.16979 1.02269 8.40229C3.832 9.89025 5.66102 12.6911 5.88398 15.9734C5.83865 15.6233 5.92783 15.2724 6.06161 14.9231C6.10694 14.8793 6.10694 14.8348 6.15079 14.7918C7.04264 13.3913 7.48856 11.7283 7.48856 10.0653C7.44471 9.67142 7.44471 9.32131 7.39937 8.9712Z" fill="#1476C6"/>
<path id="Vector_2" d="M18.5051 5.42598C18.1543 3.9625 17.6461 2.53974 16.989 1.18163C16.8095 0.831837 16.536 0.536848 16.1981 0.328584C15.8601 0.120319 15.4705 0.00669076 15.0715 0C14.7611 0.00503809 14.456 0.0798974 14.1797 0.218818C13.9269 0.332196 13.7 0.494596 13.5128 0.696219C13.3256 0.897843 13.1818 1.13453 13.0902 1.39208C12.9985 1.64963 12.9609 1.92271 12.9795 2.1949C12.9982 2.46708 13.0727 2.73275 13.1987 2.97593C14.2607 5.17807 14.8094 7.58482 14.8047 10.0212C14.8143 12.4442 14.2652 14.838 13.1987 17.0234C13.1987 17.0678 12.9757 17.461 12.9757 17.8986C12.9702 18.0606 12.9854 18.2225 13.0211 18.3807C13.1541 18.9497 13.5554 19.5186 14.1797 19.7812C14.456 19.9201 14.7611 19.995 15.0715 20C15.8296 20 16.5431 19.5624 16.9444 18.9059C17.4541 17.9137 17.8579 16.8724 18.1492 15.7987C18.2739 15.4102 18.3778 15.0155 18.4606 14.6164C18.8199 13.1102 18.9995 11.5681 18.9957 10.0212C19.034 8.47512 18.8691 6.93067 18.5051 5.42598Z" fill="#47AE33"/>
<path id="Vector_3" d="M9.58656 3.28198C9.54197 3.23749 9.49738 3.1507 9.45353 3.10693C9.32382 2.92802 9.15624 2.77873 8.96227 2.6693C8.65012 2.40672 8.24879 2.31918 7.84746 2.31918C7.60274 2.3116 7.35928 2.3564 7.13399 2.45048C6.86843 2.54745 6.6257 2.69634 6.42051 2.88812C6.21446 3.09834 6.06171 3.3532 5.97459 3.63209C5.79622 4.11277 5.79622 4.81372 6.15296 5.33889C6.86643 6.43298 7.26776 7.70212 7.40154 9.01503C7.43928 9.36384 7.45442 9.71465 7.44688 10.0654C7.45216 11.7316 6.98928 13.367 6.10911 14.7918C6.06378 14.8349 6.06378 14.8794 6.01918 14.9231C5.85249 15.2474 5.79028 15.6137 5.84081 15.9734C5.86848 16.2869 5.97191 16.5894 6.14252 16.8558C6.31314 17.1222 6.54602 17.3448 6.82184 17.5052C6.95562 17.5927 7.13399 17.6365 7.26776 17.724C7.45705 17.7743 7.6515 17.8037 7.84746 17.8115C8.56168 17.8115 9.18523 17.4607 9.58656 16.8487C10.7014 15.0537 11.3257 13.0413 11.504 10.9406C11.504 10.6773 11.5486 10.3717 11.5486 10.1091C11.504 7.61386 10.8351 5.29511 9.58656 3.28198Z" fill="#ED114C"/>
<path id="Vector_4" d="M13.1962 17.0235C14.2628 14.8382 14.8118 12.4444 14.8023 10.0213C14.8063 9.40772 14.7763 8.79437 14.7124 8.18398C13.33 5.99579 11.3233 4.07018 8.95996 2.62598L9.0053 2.66975C9.18292 2.80031 9.3167 2.88857 9.45122 3.10738C9.50581 3.15751 9.55086 3.21678 9.58425 3.28243C10.8367 5.31546 11.4997 7.64558 11.5017 10.0213C11.5102 10.2994 11.4955 10.5778 11.4579 10.8535C12.4949 12.7818 13.031 14.9314 13.0186 17.1118V17.7682C13.0186 17.5494 13.107 17.2868 13.1516 17.068C13.1576 17.0681 13.1635 17.067 13.169 17.0648C13.1745 17.0626 13.1795 17.0593 13.1837 17.0551C13.1878 17.051 13.1911 17.046 13.1933 17.0406C13.1954 17.0352 13.1964 17.0293 13.1962 17.0235Z" fill="#FBBF16"/>
<path id="Vector_5" d="M13.1071 10.591C12.4382 7.52756 11.1004 4.90173 9.49512 3.10742C9.53971 3.15119 9.5843 3.19495 9.5843 3.23799C10.8369 5.27151 11.4999 7.6021 11.5018 9.97832C11.5102 10.2562 11.4956 10.5343 11.4579 10.8098C12.4951 12.738 13.0312 14.8877 13.0186 17.068V17.7245C13.0186 17.5057 13.1071 17.2424 13.1517 17.0235C13.1565 16.9906 13.1722 16.9601 13.1963 16.9368L13.5084 15.1862C13.5656 13.6442 13.4308 12.101 13.1071 10.591Z" fill="#F98E19"/>
<path id="Vector_6" d="M7.39947 8.97159C6.6414 7.92126 5.61578 6.95773 4.50098 6.12695C4.67935 6.65212 4.85771 7.22106 4.99223 7.74622C5.70497 10.5033 5.97252 13.1729 5.79415 15.4049C5.79415 15.5799 5.83874 15.755 5.83874 15.8863C5.79415 15.5361 5.88408 15.186 6.01711 14.8352C6.0617 14.7922 6.0617 14.7484 6.10704 14.7046C6.99888 13.3035 7.44481 11.6412 7.44481 9.97816C7.45138 9.64204 7.43623 9.30584 7.39947 8.97159Z" fill="#0F51B2"/>
<path id="Vector_7" d="M13.1965 17.068C15.2485 14.5735 16.6747 9.58369 16.6747 3.85138C16.6844 2.75472 16.6248 1.65853 16.4964 0.569106C16.1172 0.232987 15.625 0.0459947 15.114 0.0439453C14.8036 0.0490868 14.4985 0.12394 14.2222 0.262764C13.1519 0.744164 12.706 2.01331 13.2419 3.01915C14.3031 5.22201 14.8512 7.62915 14.8464 10.0658C14.8561 12.4887 14.3075 14.8824 13.2419 17.068C13.1965 17.0235 13.1965 17.0235 13.1965 17.068Z" fill="#48C92D"/>
<path id="Vector_8" d="M6.01919 14.8794C5.93368 15.0751 5.87375 15.2808 5.84082 15.4913C7.53532 13.522 8.73931 9.49643 8.73931 4.85748C8.73931 4.02597 8.69473 3.2375 8.65013 2.45048C8.39168 2.364 8.12053 2.31965 7.84747 2.31918C7.60275 2.3116 7.35929 2.3564 7.134 2.45048C6.86844 2.54745 6.62571 2.69634 6.42052 2.88812C6.21447 3.09835 6.06171 3.3532 5.9746 3.63209C5.79623 4.11277 5.79623 4.81372 6.15297 5.33889C6.86644 6.43298 7.26777 7.70212 7.40155 9.01503C7.43929 9.36385 7.45443 9.71465 7.44689 10.0654C7.45216 11.7316 6.98928 13.367 6.10912 14.7918C6.10912 14.7918 6.06378 14.8349 6.01919 14.8794Z" fill="#FF4382"/>
</g>
<defs>
<clipPath id="clip0_0_396">
<rect width="19" height="20" fill="white"/>
</clipPath>
</defs>
</svg>
