<svg width="34" height="20" viewBox="0 0 34 20" fill="none" xmlns="http://www.w3.org/2000/svg">
<g id="Frame" clip-path="url(#clip0_0_384)">
<path id="Vector" d="M17 17.4137C18.0551 16.479 18.8985 15.3368 19.4754 14.061C20.0523 12.7853 20.3498 11.4046 20.3487 10.0085C20.3477 8.61012 20.0493 7.22734 19.4726 5.94894C18.8959 4.67054 18.0537 3.52474 17 2.58506C15.1367 0.916337 12.7051 -0.00592805 10.1843 2.86758e-05C7.48405 0.00175753 4.89486 1.05674 2.98534 2.93328C1.07583 4.80983 0.00211122 7.35453 0 10.0085C0.00122045 11.3218 0.265638 12.6219 0.778125 13.8347C1.29061 15.0475 2.04113 16.1492 2.98685 17.0769C3.93257 18.0046 5.05496 18.7401 6.28991 19.2414C7.52486 19.7428 8.84819 20.0001 10.1843 19.9987C12.7051 20.0047 15.1367 19.0824 17 17.4137Z" fill="#009DDD"/>
<path id="Vector_2" d="M17 17.4136C18.0551 16.4789 18.8985 15.3367 19.4754 14.0609C20.0523 12.7852 20.3498 11.4045 20.3487 10.0084C20.3477 8.61002 20.0493 7.22724 19.4726 5.94884C18.8959 4.67044 18.0537 3.52464 17 2.58496V17.4136Z" fill="#009DDD"/>
<path id="Vector_3" d="M23.8369 4.06186e-06C21.3103 -0.00223307 18.8732 0.919706 17 2.58634C16.6407 2.91956 16.301 3.27264 15.9825 3.64386H18.0361C18.3131 3.98327 18.5725 4.3362 18.8132 4.70136H15.2054C14.9863 5.05386 14.787 5.40768 14.6077 5.75888H19.3897C19.5504 6.11138 19.7085 6.4652 19.828 6.81771H14.1893C14.0686 7.17079 13.9688 7.53042 13.8904 7.8948H20.1335C20.2778 8.59091 20.3512 9.29941 20.3527 10.0098C20.3538 11.0879 20.1784 12.1591 19.8333 13.1824H14.1946C14.3141 13.5349 14.4602 13.8886 14.6117 14.2411H19.3937C19.2213 14.604 19.0284 14.9571 18.8158 15.2987H15.2081C15.4452 15.6662 15.7047 16.0194 15.9852 16.3562H18.0388C17.7189 16.732 17.3727 17.0854 17.0027 17.4137C18.8755 19.0808 21.3128 20.0028 23.8396 20C25.1746 20.0011 26.4968 19.7433 27.7304 19.2416C28.964 18.7399 30.0848 18.0041 31.0288 17.0762C31.9727 16.1483 32.7213 15.0465 33.2316 13.834C33.7419 12.6215 34.0039 11.322 34.0027 10.0098C34.0042 8.69663 33.7426 7.39601 33.2327 6.18223C32.7227 4.96845 31.9745 3.86528 31.0308 2.93575C30.087 2.00622 28.9662 1.26855 27.7323 0.764826C26.4984 0.261105 25.1757 0.0012035 23.8396 4.06186e-06H23.8369Z" fill="#ED1C2E"/>
<path id="Vector_4" d="M30.4932 12.164C30.4963 12.0785 30.5336 11.9976 30.5971 11.9389C30.6605 11.8803 30.7449 11.8486 30.8319 11.8507C30.874 11.85 30.9158 11.8576 30.9548 11.8731C30.9938 11.8886 31.0292 11.9117 31.0589 11.9409C31.0887 11.9701 31.1121 12.005 31.1279 12.0433C31.1437 12.0816 31.1514 12.1227 31.1507 12.164C31.1525 12.2495 31.1201 12.3323 31.0605 12.3945C31.0009 12.4568 30.9188 12.4936 30.8319 12.497C30.7429 12.4943 30.6583 12.4584 30.5954 12.3965C30.5324 12.3347 30.4959 12.2515 30.4932 12.164ZM30.8319 12.4186C30.8647 12.4176 30.897 12.4102 30.9268 12.3968C30.9567 12.3834 30.9835 12.3643 31.0058 12.3406C31.0281 12.3169 31.0453 12.2891 31.0565 12.2588C31.0677 12.2285 31.0726 12.1963 31.071 12.164C31.0723 12.1328 31.067 12.1016 31.0555 12.0724C31.044 12.0433 31.0264 12.0168 31.004 11.9946C30.9815 11.9724 30.9546 11.955 30.925 11.9435C30.8954 11.932 30.8637 11.9266 30.8319 11.9277C30.7991 11.9263 30.7664 11.9313 30.7356 11.9425C30.7049 11.9537 30.6767 11.9708 30.6527 11.9928C30.6287 12.0148 30.6094 12.0412 30.5959 12.0706C30.5824 12.1001 30.5751 12.1318 30.5742 12.164C30.5759 12.2308 30.6035 12.2944 30.6515 12.3418C30.6994 12.3891 30.764 12.4166 30.8319 12.4186ZM30.7921 12.3011H30.7124V12.027H30.8319C30.8704 12.027 30.8917 12.0269 30.9116 12.0465C30.9315 12.0661 30.9515 12.0844 30.9515 12.1053C30.9515 12.1262 30.9315 12.1836 30.8917 12.1836L30.9515 12.3011H30.8704L30.8319 12.2032H30.7921V12.3011ZM30.7921 12.1444H30.8704V12.0844H30.7921V12.1444Z" fill="white"/>
<path id="Vector_5" d="M8.90911 12.4973H7.63392L8.39106 8.59884L6.66423 12.4973H5.50726L5.30801 8.61841L4.55085 12.4973H3.3952L4.37152 7.42383H6.36402L6.46365 10.5572L7.86106 7.42383H9.90403L8.90911 12.4973Z" fill="white"/>
<path id="Vector_6" d="M23.0548 12.4379C22.7568 12.5249 22.4477 12.5688 22.1369 12.5684C21.5006 12.5684 21.1406 12.2551 21.1406 11.6676C21.1457 11.5429 21.159 11.4185 21.1805 11.2955L21.2602 10.8843L21.3213 10.5709L21.8991 7.41797H23.1544L22.9751 8.35666H23.6392L23.4599 9.35675H22.7957L22.4769 11.0801C22.4582 11.1375 22.4449 11.1965 22.4371 11.2564C22.4371 11.4718 22.5699 11.5697 22.8768 11.5697C22.9904 11.5698 23.1037 11.5566 23.2141 11.5305L23.0548 12.4379Z" fill="white"/>
<path id="Vector_7" d="M26.746 8.40354C26.705 8.3812 26.6598 8.36741 26.6132 8.36306C26.5521 8.34348 26.5136 8.34347 26.5136 8.3252H26.3807C25.961 8.3252 25.6621 8.50015 25.2835 8.98974L25.4031 8.36306H24.2461L23.4703 12.4965H24.7455C25.2038 9.96893 25.3831 9.51981 26.0008 9.51981C26.0407 9.51981 26.1004 9.53807 26.1602 9.53807L26.293 9.57725L26.746 8.40354Z" fill="white"/>
<path id="Vector_8" d="M18.0361 9.67623C18.0361 10.1867 18.335 10.5575 19.0124 10.8134C19.5318 11.0288 19.6115 11.0876 19.6115 11.2834C19.6115 11.538 19.3711 11.6555 18.873 11.6555C18.4813 11.6513 18.0921 11.5924 17.7173 11.4805L17.5579 12.4401H17.6177L17.8369 12.4976C17.9166 12.4976 18.0348 12.5184 18.1743 12.5184C18.4127 12.547 18.6528 12.5597 18.8929 12.5563C20.2212 12.5563 20.8655 12.1255 20.8655 11.1855C20.8655 10.6175 20.5998 10.2846 19.9489 10.03C19.4176 9.83419 19.3512 9.77545 19.3512 9.57961C19.3512 9.3642 19.5704 9.24669 19.9888 9.24669C20.2952 9.24922 20.6012 9.26883 20.9053 9.30543L21.0846 8.36543C20.7151 8.31282 20.3422 8.28665 19.9688 8.28712C18.5342 8.28712 18.0361 8.91247 18.0361 9.67623Z" fill="white"/>
<path id="Vector_9" d="M13.0138 12.4976H11.9777L11.9976 12.0667C11.6788 12.3996 11.2405 12.5563 10.6693 12.5563C9.99319 12.5563 9.51367 12.1059 9.51367 11.44C9.51367 10.44 10.3293 9.85248 11.7466 9.85248C11.9191 9.8502 12.0916 9.85716 12.2633 9.87336C12.2908 9.79124 12.3043 9.70522 12.3032 9.61878C12.3032 9.34461 12.084 9.24538 11.4862 9.24538C11.1384 9.24468 10.7913 9.27792 10.4501 9.3446L10.2708 9.40334L10.1513 9.42295L10.3293 8.50121C10.823 8.36391 11.3331 8.29192 11.8462 8.28711C12.9408 8.28711 13.4987 8.69704 13.4987 9.48038C13.4927 9.75744 13.4598 10.0333 13.4004 10.3042L13.1347 11.773L13.0949 12.0275L13.0537 12.243L13.0351 12.3735L13.0138 12.4976ZM12.0973 10.6554C12.0049 10.642 11.9117 10.6359 11.8183 10.6371C11.101 10.6371 10.7424 10.8512 10.7424 11.2638C10.7378 11.3214 10.746 11.3793 10.7663 11.4335C10.7866 11.4877 10.8186 11.537 10.8601 11.5779C10.9017 11.6189 10.9517 11.6505 11.0068 11.6706C11.0619 11.6908 11.1208 11.6989 11.1794 11.6946C11.6988 11.6946 12.0773 11.2638 12.0973 10.6502V10.6554Z" fill="white"/>
<path id="Vector_10" d="M17.178 12.3991C16.7564 12.5154 16.3207 12.5747 15.8829 12.5753C14.4695 12.5753 13.731 11.9225 13.731 10.7136C13.731 9.30355 14.6688 8.26562 15.944 8.26562C16.9801 8.26562 17.6389 8.85315 17.6389 9.75399C17.6368 10.0975 17.5922 10.4394 17.5061 10.7723H14.9743V10.9107C14.9743 11.3807 15.333 11.634 16.0702 11.634C16.521 11.6373 16.9678 11.5511 17.3839 11.3807L17.178 12.3991ZM16.5019 9.95113V9.7357C16.5019 9.40278 16.2814 9.20563 15.9041 9.20563C15.5056 9.20563 15.2267 9.47982 15.1071 9.95113H16.5019Z" fill="white"/>
<path id="Vector_11" d="M30.6911 10.6173C30.4919 11.9869 29.5156 12.5953 28.2191 12.5953C26.8058 12.5953 26.2266 11.7532 26.2266 10.6957C26.2266 9.24518 27.2016 8.24512 28.7172 8.24512C30.0323 8.24512 30.7297 9.06893 30.7297 10.1069C30.7371 10.278 30.7237 10.4493 30.6898 10.6173H30.6911ZM29.3761 10.0873C29.3761 9.65642 29.1968 9.26608 28.6801 9.26608C28.0398 9.26608 27.6426 10.0089 27.6426 10.6761C27.6426 11.2244 27.9216 11.59 28.3599 11.59C28.6389 11.59 29.2366 11.2179 29.3363 10.5912C29.3701 10.4232 29.3834 10.2519 29.3761 10.0808V10.0873Z" fill="white"/>
</g>
<defs>
<clipPath id="clip0_0_384">
<rect width="34" height="20" fill="white"/>
</clipPath>
</defs>
</svg>
