<svg width="50" height="15" viewBox="0 0 50 15" fill="none" xmlns="http://www.w3.org/2000/svg">
<g id="Frame" clip-path="url(#clip0_0_363)">
<path id="Vector" d="M39.0343 2.48563C37.8068 2.48563 36.8249 2.81704 36.0065 2.98274L35.761 4.8883C36.5802 4.59145 37.4321 4.39668 38.2978 4.30832C39.2798 4.30832 39.8527 4.47403 39.689 5.38538C36.743 5.38538 34.779 5.96534 34.3699 7.95374C33.797 11.2677 37.3977 11.3506 38.7888 9.8593L38.6252 10.7706H41.2438L42.3895 5.38538C42.7987 3.14843 40.8347 2.40278 39.0343 2.48563ZM39.198 8.03657C39.0343 8.69937 38.4615 8.94795 37.8068 9.0308C37.234 9.0308 36.743 8.69937 37.0703 8.03657C37.3977 7.53947 38.1342 7.53949 38.707 7.53949H39.3617C39.2798 7.45664 39.198 7.78802 39.198 8.03657Z" fill="#32A6CE"/>
<path id="Vector_2" d="M35.761 4.88817C36.5802 4.59132 37.4321 4.39655 38.2978 4.30819C39.2798 4.30819 39.8527 4.4739 39.689 5.38525C36.743 5.38525 34.779 5.96521 34.3699 7.95361C33.797 11.2676 37.3977 11.3505 38.7888 9.85917L38.6252 10.7705H41.2438L42.3895 5.38525C42.8805 3.1483 40.8347 2.56836 39.0343 2.56836L35.761 4.88817ZM39.198 8.03644C39.0343 8.69924 38.4615 8.94782 37.8069 9.03067C37.234 9.03067 36.743 8.69924 37.0704 8.03644C37.3977 7.53934 38.1342 7.53936 38.707 7.53936H39.3617C39.2799 7.45651 39.198 7.78789 39.198 8.03644Z" fill="#1A80AD"/>
<path id="Vector_3" d="M44.5991 0L42.4714 10.7705H45.09L47.2995 0H44.5991Z" fill="#32A6CE"/>
<path id="Vector_4" d="M46.4812 0L42.4714 10.7705H45.09L47.2995 0H46.4812Z" fill="#1A80AD"/>
<path id="Vector_5" d="M32.4059 0H27.5777L25.4501 10.7705H28.3142L29.0507 7.4565H31.0966C33.0606 7.4565 34.6972 6.29662 35.1064 4.22537C35.5155 1.82271 33.797 0 32.4059 0ZM32.3241 3.72825C32.1604 4.4739 31.4239 4.971 30.6874 4.971H29.378L29.9509 2.4855H31.342C32.0785 2.4855 32.4877 2.9826 32.3241 3.72825Z" fill="#32A6CE"/>
<path id="Vector_6" d="M32.4059 0H29.1326L25.3683 10.7705H28.2324L28.9689 7.4565H31.0147C32.9787 7.4565 34.6154 6.29662 35.0245 4.22537C35.5155 1.82271 33.7971 0 32.4059 0ZM32.3241 3.72825C32.1604 4.4739 31.4239 4.971 30.6874 4.971H29.3781L29.9509 2.4855H31.3421C32.0786 2.4855 32.4877 2.9826 32.3241 3.72825Z" fill="#1A80AD"/>
<path id="Vector_7" d="M13.5023 2.48563C12.2748 2.48563 11.2927 2.81704 10.5563 2.98274L10.3107 4.8883C10.6381 4.7226 11.8656 4.39117 12.8476 4.30832C13.8296 4.30832 14.4024 4.47403 14.2387 5.38538C11.3746 5.38538 9.4106 5.96534 9.00144 7.95374C8.4286 11.2677 11.9474 11.3506 13.3386 9.8593L13.1749 10.7706H15.7936L16.9392 5.38538C17.3484 3.14843 15.3026 2.40278 13.5023 2.48563ZM13.7478 8.03657C13.5841 8.69937 13.0112 8.94795 12.3566 9.0308C11.7837 9.0308 11.2928 8.69937 11.7019 8.03657C12.0293 7.53947 12.7657 7.53949 13.2567 7.53949H13.9114C13.8296 7.45664 13.7478 7.78802 13.7478 8.03657Z" fill="#21789E"/>
<path id="Vector_8" d="M10.3928 4.88817C10.7201 4.72247 11.9477 4.39104 12.9296 4.30819C13.9116 4.30819 14.4845 4.4739 14.3208 5.38525C11.4566 5.38525 9.49263 5.96521 9.08347 7.95361C8.51064 11.2676 12.0295 11.3505 13.4206 9.85917L13.1751 10.7705H15.7938L16.9395 5.38525C17.4305 3.1483 15.3846 2.56836 13.5843 2.56836L10.3928 4.88817ZM13.748 8.03644C13.5843 8.69924 13.0115 8.94782 12.3568 9.03067C11.784 9.03067 11.293 8.69924 11.7022 8.03644C12.0295 7.53934 12.766 7.53936 13.257 7.53936H13.9116C13.8298 7.45651 13.748 7.78789 13.748 8.03644Z" fill="#1A5B80"/>
<path id="Vector_9" d="M18.0033 2.48535H20.6219L21.0311 7.12497L23.6498 2.48535H26.3503L20.1309 14.0844H17.185L19.0671 10.6047L18.0033 2.48535Z" fill="#21789E"/>
<path id="Vector_10" d="M20.6217 2.65105L21.0309 7.2078L23.6496 2.48535H26.3501L20.1307 14.0844H17.1848L19.0669 10.6875" fill="#1A5B80"/>
<path id="Vector_11" d="M7.03768 0H2.1277L6.10352e-05 10.7705H2.86422L3.6007 7.4565H5.64653C7.61052 7.4565 9.2472 6.29662 9.65637 4.22537C10.1474 1.82271 8.42885 0 7.03768 0ZM6.95587 3.72825C6.79221 4.4739 6.05571 4.971 5.31921 4.971H4.00987L4.58269 2.4855H5.97388C6.71038 2.4855 7.11954 2.9826 6.95587 3.72825Z" fill="#21789E"/>
<path id="Vector_12" d="M7.03768 0H4.8282L6.10352e-05 10.7705H2.86422L3.6007 7.4565H5.64653C7.61052 7.4565 9.2472 6.29662 9.65637 4.22537C10.1474 1.82271 8.42885 0 7.03768 0ZM6.95587 3.72825C6.79221 4.4739 6.05571 4.971 5.31921 4.971H4.00987L4.58269 2.4855H5.97388C6.71038 2.4855 7.11954 2.9826 6.95587 3.72825Z" fill="#1A5B80"/>
<path id="Vector_13" d="M13.0114 5.38477C10.8019 5.55047 9.32895 6.21327 9.00162 7.87027C8.42879 11.1843 11.9476 11.2671 13.3388 9.77582L13.1751 10.77H15.7938L16.2029 8.78163L13.0114 5.38477ZM13.7479 8.03596C13.5843 8.69876 13.0114 8.94734 12.3568 9.03019C11.7839 9.03019 11.293 8.69876 11.7021 8.03596C12.0294 7.53886 12.7659 7.53888 13.2569 7.53888H13.9116C13.8298 7.45603 13.7479 7.78741 13.7479 8.03596Z" fill="#06435E"/>
<path id="Vector_14" d="M21.1948 7.0421L21.0312 7.29066L22.7497 8.94766L26.3503 2.48535H23.6498L21.1948 7.0421Z" fill="#06435E"/>
<path id="Vector_15" d="M2.8642 10.771L3.60068 7.45703L0.245544 10.771H2.8642Z" fill="#06435E"/>
<path id="Vector_16" d="M28.2324 10.7707L28.9689 7.29102V7.37388L25.6137 10.7707H28.2324Z" fill="#2273AA"/>
<path id="Vector_17" d="M38.4615 5.38477C36.252 5.55047 34.779 6.21327 34.4517 7.87027C33.8789 11.1843 37.4795 11.2671 38.8707 9.77582L38.6252 10.77H41.2438L41.653 8.78163L38.4615 5.38477ZM39.198 8.03596C39.0344 8.69876 38.4615 8.94734 37.8069 9.03019C37.234 9.03019 36.743 8.69876 37.0704 8.03596C37.3977 7.53886 38.1342 7.53888 38.707 7.53888H39.3617C39.2799 7.45603 39.198 7.78741 39.198 8.03596Z" fill="#2273AA"/>
<path id="Vector_18" d="M44.3535 5.88281L42.4714 10.771H45.09L45.8265 7.45695L44.3535 5.88281Z" fill="#2273AA"/>
<path id="Vector_19" d="M47.8722 1.73968V0.579756H47.463V0.414062H48.5268V0.579756H48.1177V1.73968H47.8722Z" fill="#32A6CE"/>
<path id="Vector_20" d="M48.6907 1.7395V0.413884H48.9362L49.2635 1.32525C49.272 1.38809 49.3008 1.44631 49.3453 1.49094C49.3453 1.40809 49.3453 1.40808 49.4272 1.24238L49.7545 0.331055H50V1.65664H49.8363V0.496748L49.4272 1.65664H49.1817L48.7725 0.496748V1.65664H48.6907V1.7395Z" fill="#32A6CE"/>
</g>
<defs>
<clipPath id="clip0_0_363">
<rect width="50" height="14.0845" fill="white"/>
</clipPath>
</defs>
</svg>
