<svg width="30" height="30" viewBox="0 0 30 30" fill="none" xmlns="http://www.w3.org/2000/svg">
<g id="001-send 1">
<g id="Group">
<path id="Vector" d="M24.7709 14.2907C24.7706 14.2905 24.7704 14.2902 24.7702 14.29L20.688 10.2275C20.3821 9.92316 19.8875 9.92429 19.5831 10.2302C19.2787 10.536 19.2799 11.0306 19.5857 11.335L22.3265 14.0625H5.78125C5.34977 14.0625 5 14.4123 5 14.8437C5 15.2752 5.34977 15.625 5.78125 15.625H22.3264L19.5857 18.3525C19.2799 18.6569 19.2788 19.1515 19.5831 19.4573C19.8875 19.7632 20.3822 19.7643 20.688 19.46L24.7702 15.3975C24.7704 15.3973 24.7706 15.397 24.7709 15.3968C25.0769 15.0914 25.0759 14.5951 24.7709 14.2907Z" fill="#4A4A4A"/>
</g>
</g>
</svg>
