<svg width="50" height="15" viewBox="0 0 50 15" fill="none" xmlns="http://www.w3.org/2000/svg">
<g id="Frame" clip-path="url(#clip0_0_347)">
<path id="Vector" d="M18.3333 14.4028L20.8729 0.46582H24.8412L22.3809 14.4028H18.3333Z" fill="#3C58BF"/>
<path id="Vector_2" d="M18.3333 14.4028L21.5872 0.46582H24.8412L22.3809 14.4028H18.3333Z" fill="#293688"/>
<path id="Vector_3" d="M36.7461 0.620532C35.579 0.194902 34.3411 -0.0155786 33.0953 -0.000189796C29.127 -0.000189796 26.2699 1.93552 26.2699 4.72422C26.2699 6.81477 28.254 7.89747 29.8413 8.59561C31.4286 9.29376 31.9048 9.75701 31.9048 10.3764C31.9048 11.3056 30.635 11.7688 29.5238 11.7688C27.9365 11.7688 27.0635 11.5379 25.713 10.9946L25.1588 10.7636L24.6032 13.9368C25.5556 14.324 27.3003 14.7111 29.127 14.7111C33.3334 14.7111 36.1111 12.7754 36.1111 9.83315C36.1111 8.20845 35.0794 6.96832 32.6984 5.96175C31.2685 5.26619 30.3969 4.87905 30.3969 4.1822C30.3969 3.56277 31.1111 2.94337 32.6984 2.94337C34.0463 2.94337 35 3.17565 35.7143 3.48407L36.1111 3.63892L36.7461 0.620532Z" fill="#3C58BF"/>
<path id="Vector_4" d="M36.7461 0.620532C35.579 0.194902 34.3411 -0.0155786 33.0953 -0.000189796C29.127 -0.000189796 26.9842 1.93552 26.9842 4.72422C26.9842 6.81477 28.254 7.89747 29.8413 8.59561C31.4286 9.29376 31.9048 9.75701 31.9048 10.3764C31.9048 11.3056 30.635 11.7688 29.5238 11.7688C27.9365 11.7688 27.0635 11.5379 25.713 10.9946L25.1588 10.7636L24.6032 13.9368C25.5556 14.324 27.3003 14.7111 29.127 14.7111C33.3334 14.7111 36.1111 12.7754 36.1111 9.83315C36.1111 8.20845 35.0794 6.96832 32.6984 5.96175C31.2685 5.26619 30.3969 4.87905 30.3969 4.1822C30.3969 3.56277 31.1111 2.94337 32.6984 2.94337C34.0463 2.94337 35 3.17565 35.7143 3.48407L36.1111 3.63892L36.7461 0.620532Z" fill="#293688"/>
<path id="Vector_5" d="M43.57 0.46582C42.619 0.46582 41.9047 0.541933 41.5079 1.47236L35.5555 14.4028H39.8412L40.6349 12.08H45.7142L46.1904 14.4028H49.9999L46.6666 0.46582H43.57ZM41.746 9.75717C41.9827 9.05903 43.3333 5.65348 43.3333 5.65348C43.3333 5.65348 43.6507 4.80048 43.8888 4.25848L44.1269 5.57475C44.1269 5.57475 44.9206 9.05901 45.0793 9.83329H41.746V9.75717Z" fill="#3C58BF"/>
<path id="Vector_6" d="M44.5237 0.46582C43.57 0.46582 42.8571 0.541933 42.4603 1.47236L35.5555 14.4028H39.8412L40.6349 12.08H45.7142L46.1904 14.4028H49.9999L46.6666 0.46582H44.5237ZM41.746 9.75717C42.0634 8.98289 43.3333 5.65348 43.3333 5.65348C43.3333 5.65348 43.6507 4.80048 43.8888 4.25848L44.1269 5.57475C44.1269 5.57475 44.9206 9.05901 45.0793 9.83329H41.746V9.75717Z" fill="#293688"/>
<path id="Vector_7" d="M11.0305 10.2205L10.6337 8.20867C9.92072 5.88583 7.61913 3.33069 5.07812 2.09055L8.64955 14.479H12.9366L19.3638 0.541992H15.0741L11.0305 10.2205Z" fill="#3C58BF"/>
<path id="Vector_8" d="M11.0305 10.2205L10.6337 8.20867C9.92072 5.88583 7.61913 3.33069 5.07812 2.09055L8.64955 14.479H12.9366L19.3638 0.541992H15.8678L11.0305 10.2205Z" fill="#293688"/>
<path id="Vector_9" d="M-0.00527954 0.46582L0.707685 0.62067C5.78837 1.78209 9.28043 4.72436 10.6283 8.20861L9.20106 1.62724C8.96297 0.698104 8.24737 0.46582 7.37568 0.46582H-0.00527954Z" fill="#FFBC00"/>
<path id="Vector_10" d="M-0.00527954 0.46582C5.07276 1.62724 9.28043 4.64562 10.6283 8.12988L9.28043 2.63378C9.18246 2.21332 8.94022 1.83815 8.59381 1.57037C8.24741 1.30259 7.81763 1.15829 7.37568 1.16137L-0.00527954 0.46582Z" fill="#F7981D"/>
<path id="Vector_11" d="M-0.00527954 0.46582C5.07276 1.62724 9.28043 4.64562 10.6283 8.12988L9.67725 5.1115C9.43783 4.18236 9.1217 3.25191 8.01059 2.86478L-0.00527954 0.46582Z" fill="#ED7C00"/>
<path id="Vector_12" d="M14.9986 9.75744L12.3015 7.12358L11.0304 10.0658L10.7142 8.13015C9.99996 5.80731 7.69837 3.2522 5.15869 2.01465L8.73012 14.4031H13.0145L14.9986 9.75744Z" fill="#051244"/>
<path id="Vector_13" d="M22.3809 14.4033L18.9669 10.9951L18.3333 14.4033H22.3809Z" fill="#051244"/>
<path id="Vector_14" d="M31.5079 9.60254C31.8254 9.91225 31.9841 10.1445 31.9048 10.453C31.9048 11.3821 30.6349 11.848 29.5238 11.848C27.9365 11.848 27.0635 11.6144 25.713 11.0737L25.1587 10.8401L24.6032 14.016C25.5556 14.4031 27.3003 14.7902 29.127 14.7902C31.6653 14.7902 33.7302 14.0921 34.9206 12.8545L31.5079 9.60254Z" fill="#051244"/>
<path id="Vector_15" d="M36.106 14.4031H39.8362L40.6298 12.0803H45.7092L46.1854 14.4031H49.9949L48.6457 8.75091L43.8838 4.25879L44.1219 5.49894C44.1219 5.49894 44.9156 8.9832 45.0743 9.75747H41.7409C42.0584 8.9832 43.3282 5.65379 43.3282 5.65379C43.3282 5.65379 43.6457 4.80078 43.8838 4.25879" fill="#051244"/>
</g>
<defs>
<clipPath id="clip0_0_347">
<rect width="50" height="14.7887" fill="white"/>
</clipPath>
</defs>
</svg>
